<?xml version="1.0" standalone="no"?>
<!DOCTYPE svg PUBLIC "-//W3C//DTD SVG 20010904//EN"
 "http://www.w3.org/TR/2001/REC-SVG-20010904/DTD/svg10.dtd">
<svg version="1.0" xmlns="http://www.w3.org/2000/svg"
 width="1080.000000pt" height="729.000000pt" viewBox="0 0 1080.000000 729.000000"
 preserveAspectRatio="xMidYMid meet">

<g transform="translate(0.000000,729.000000) scale(0.100000,-0.100000)"
fill="#000000" stroke="none">
<path d="M0 7275 c0 -13 607 -15 5400 -15 4793 0 5400 2 5400 15 0 13 -607 15
-5400 15 -4793 0 -5400 -2 -5400 -15z"/>
<path d="M3505 7025 c-281 -44 -538 -256 -640 -528 -113 -301 -39 -648 185
-875 323 -328 848 -336 1174 -17 113 110 185 230 228 381 32 114 32 324 0 438
-93 325 -364 561 -695 606 -97 12 -149 12 -252 -5z m383 -272 l-3 -48 -48 -3
-47 -3 2 -352 3 -352 130 0 130 0 3 68 3 67 44 0 45 0 0 -115 0 -115 -227 -2
-228 -3 -5 -76 -5 -77 -57 -61 -57 -61 -153 0 -152 0 -63 62 -63 62 0 320 0
320 67 68 67 68 145 0 145 0 58 -57 58 -57 0 147 0 147 -40 0 -40 0 0 50 0 50
146 0 145 0 -3 -47z"/>
<path d="M3284 6386 l-34 -34 0 -284 0 -284 33 -32 c33 -32 33 -32 138 -32
l105 0 37 38 37 38 0 97 0 97 40 0 41 0 -3 123 -3 122 -37 -3 -38 -3 0 53 c0
48 -3 56 -42 95 l-42 43 -99 0 -99 0 -34 -34z"/>
<path d="M4767 6372 l-37 -38 0 -160 0 -160 38 -37 c37 -36 40 -37 113 -37 74
0 76 1 112 38 31 31 37 45 37 80 0 41 -1 42 -35 42 -32 0 -35 -3 -35 -28 0
-16 -8 -36 -18 -45 -22 -20 -102 -23 -120 -5 -8 8 -12 57 -12 153 0 96 4 145
12 153 7 7 33 12 58 12 54 0 80 -21 80 -63 0 -24 4 -27 35 -27 35 0 35 1 35
43 0 34 -7 49 -35 80 -35 37 -36 37 -113 37 -77 0 -78 0 -115 -38z"/>
<path d="M5129 6311 l-39 -39 0 -129 0 -129 38 -37 c38 -37 38 -37 123 -37
l85 0 37 38 37 38 0 131 0 131 -40 36 c-39 35 -42 36 -121 36 -81 0 -81 0
-120 -39z m184 -43 c15 -8 17 -24 17 -121 0 -75 -4 -117 -12 -125 -7 -7 -37
-12 -68 -12 -31 0 -61 5 -68 12 -8 8 -12 50 -12 125 0 96 2 114 18 123 20 12
99 11 125 -2z"/>
<path d="M5480 6315 c0 -28 4 -35 19 -35 11 0 21 -4 23 -10 2 -5 2 -66 0 -135
-3 -116 -5 -125 -23 -125 -15 0 -19 -7 -19 -35 l0 -35 139 0 139 0 31 39 31
39 0 129 0 129 -38 37 -38 37 -132 0 -132 0 0 -35z m241 -45 c17 -10 19 -22
19 -129 0 -135 3 -131 -86 -131 l-54 0 0 128 c0 71 3 132 7 135 10 11 92 8
114 -3z"/>
<path d="M5900 6315 c0 -28 4 -35 20 -35 19 0 20 -7 20 -135 0 -128 -1 -135
-20 -135 -16 0 -20 -7 -20 -35 l0 -35 150 0 150 0 0 65 0 65 -35 0 c-32 0 -35
-2 -35 -30 l0 -30 -61 0 -60 0 3 48 3 47 71 3 71 3 -6 32 c-7 32 -7 32 -74 35
l-67 3 0 49 0 50 60 0 60 0 0 -35 c0 -33 2 -35 35 -35 l35 0 0 70 0 70 -150 0
-150 0 0 -35z"/>
<path d="M6287 6343 c-4 -3 -7 -19 -7 -35 0 -21 5 -28 20 -28 19 0 20 -7 20
-135 0 -128 -1 -135 -20 -135 -16 0 -20 -7 -20 -35 l0 -35 145 0 146 0 -3 68
c-3 65 -4 67 -30 70 -26 3 -28 1 -28 -32 l0 -36 -55 0 -55 0 0 135 c0 128 1
135 20 135 16 0 20 7 20 35 l0 35 -73 0 c-41 0 -77 -3 -80 -7z"/>
<path d="M6610 6315 c0 -28 4 -35 20 -35 19 0 20 -7 20 -135 0 -128 -1 -135
-20 -135 -16 0 -20 -7 -20 -35 l0 -35 85 0 85 0 0 35 c0 31 -3 35 -25 35 l-25
0 0 135 0 135 26 0 c23 0 25 3 22 33 l-3 32 -82 3 -83 3 0 -36z"/>
<path d="M6850 6315 c0 -28 4 -35 20 -35 19 0 20 -7 20 -135 0 -128 -1 -135
-20 -135 -16 0 -20 -7 -20 -35 l0 -35 133 0 133 0 32 33 c28 29 32 40 32 87 0
36 -5 59 -17 72 -14 16 -15 23 -5 38 7 11 12 39 12 63 0 37 -6 48 -38 80 l-38
37 -122 0 -122 0 0 -35z m228 -51 c50 -35 7 -88 -69 -82 l-42 3 -1 43 c-1 23
4 44 9 46 24 10 82 5 103 -10z m14 -161 c20 -18 24 -63 6 -81 -7 -7 -38 -12
-69 -12 l-57 0 -4 51 c-1 28 -1 53 1 55 12 12 106 2 123 -13z"/>
<path d="M7260 6315 c0 -28 4 -35 20 -35 19 0 20 -7 20 -135 0 -128 -1 -135
-20 -135 -16 0 -20 -7 -20 -35 l0 -35 150 0 150 0 0 65 0 65 -30 0 c-27 0 -30
-3 -30 -30 l0 -30 -66 0 -65 0 3 48 3 47 71 3 71 3 -6 32 c-7 32 -7 32 -74 35
l-68 3 3 47 3 47 60 0 60 0 3 -32 c3 -29 7 -33 33 -33 l29 0 0 70 0 70 -150 0
-150 0 0 -35z"/>
<path d="M7647 6343 c-4 -3 -7 -19 -7 -35 0 -21 5 -28 20 -28 19 0 20 -7 20
-135 0 -128 -1 -135 -20 -135 -16 0 -20 -7 -20 -35 l0 -35 75 0 75 0 0 35 c0
24 -5 35 -15 35 -10 0 -15 11 -15 35 0 33 2 35 34 35 45 0 76 -46 69 -102 l-5
-38 66 0 66 0 0 34 c0 28 -4 35 -22 38 -14 2 -31 17 -43 40 l-20 37 28 29 c24
25 27 36 27 93 0 62 -2 67 -38 102 l-38 37 -115 0 c-64 0 -119 -3 -122 -7z
m221 -79 c16 -11 22 -25 22 -53 0 -50 -14 -61 -77 -61 l-53 0 0 65 0 65 43 0
c23 0 53 -7 65 -16z"/>
<path d="M2037 5070 c-20 -24 -67 -26 -152 -5 -118 28 -181 11 -222 -61 -29
-49 -30 -80 -2 -36 23 36 65 62 100 62 20 0 18 -3 -14 -39 -92 -102 -99 -211
-18 -292 89 -90 249 -67 311 43 25 44 21 63 -5 24 -21 -31 -81 -70 -95 -61 -6
4 -10 62 -10 146 0 135 1 139 21 139 37 0 87 30 99 61 16 37 10 45 -13 19z
m-218 -178 c-3 -90 -8 -134 -18 -145 -17 -21 -27 -15 -51 33 -34 67 -23 160
27 212 15 15 31 28 36 28 5 0 8 -55 6 -128z m85 112 c14 -5 16 -28 16 -154 0
-82 -4 -151 -9 -155 -10 -6 -89 9 -99 19 -3 4 6 19 21 34 38 40 47 73 47 173
0 49 2 89 4 89 2 0 11 -3 20 -6z"/>
<path d="M4302 5070 c-15 -25 -71 -27 -152 -5 -70 19 -112 19 -156 0 -40 -16
-68 -47 -83 -87 -13 -35 1 -36 19 -2 17 31 58 54 96 54 l27 0 -37 -37 c-76
-76 -98 -172 -56 -253 62 -122 255 -130 335 -13 33 49 32 73 -1 33 -23 -27
-72 -60 -89 -60 -3 0 -5 64 -5 143 l0 143 45 12 c46 12 80 47 73 77 -2 13 -5
12 -16 -5z m-222 -173 c0 -96 -3 -127 -16 -145 l-16 -23 -24 32 c-46 62 -40
166 12 229 14 16 30 30 35 30 5 0 9 -55 9 -123z m84 107 c14 -5 16 -29 16
-160 0 -102 -4 -154 -11 -154 -20 0 -99 22 -99 28 0 3 15 21 33 40 32 33 32
34 35 143 2 60 5 109 7 109 2 0 10 -3 19 -6z"/>
<path d="M9065 5070 c-22 -24 -76 -26 -155 -5 -73 19 -117 19 -160 -3 -39 -19
-80 -74 -79 -106 0 -21 0 -21 9 -1 14 35 56 66 96 72 l39 6 -42 -44 c-113
-118 -94 -267 42 -330 47 -22 82 -24 139 -7 48 15 126 88 126 119 0 18 -3 17
-26 -11 -23 -27 -72 -60 -89 -60 -3 0 -5 65 -5 144 l0 143 38 7 c40 6 75 36
87 74 8 27 3 28 -20 2z m-225 -176 c0 -133 -10 -175 -36 -153 -61 50 -59 190
4 262 8 9 19 17 24 17 4 0 8 -57 8 -126z m98 108 c9 -7 12 -45 10 -158 l-3
-149 -38 2 c-20 1 -47 8 -59 14 l-22 12 26 21 c40 33 48 58 48 159 0 106 5
119 38 99z"/>
<path d="M988 5033 l-58 -46 0 -83 c0 -119 -17 -148 -46 -79 -28 69 -17 128
38 191 l33 38 -35 -21 c-19 -12 -48 -40 -65 -63 -26 -36 -30 -50 -30 -108 0
-82 23 -133 78 -173 76 -55 174 -48 248 18 50 45 50 58 0 32 -21 -11 -55 -23
-75 -26 l-36 -6 0 92 0 91 46 0 c33 0 51 5 60 18 21 26 16 42 -11 42 -34 0
-32 10 15 55 l40 39 -52 12 c-29 7 -62 15 -73 18 -14 4 -37 -8 -77 -41z m28
-320 c-7 -7 -70 23 -85 41 -13 15 -10 21 20 52 33 34 34 39 38 122 2 51 8 90
15 94 8 5 12 -35 14 -149 1 -86 1 -158 -2 -160z m73 296 c17 -6 31 -14 31 -17
0 -12 -79 -73 -82 -65 -3 6 -2 80 1 91 2 5 19 2 50 -9z"/>
<path d="M1249 5060 l-24 -20 31 6 c24 5 37 1 53 -15 36 -36 27 -63 -35 -106
-51 -35 -55 -40 -38 -50 10 -5 36 -26 56 -46 28 -27 38 -45 38 -68 0 -22 -5
-31 -17 -31 -9 0 -36 -11 -60 -25 -47 -28 -59 -51 -17 -35 38 15 140 12 181
-5 36 -15 37 -15 70 17 31 30 39 54 9 29 -11 -9 -20 -10 -35 -1 -18 9 -21 20
-21 75 0 53 3 65 16 65 26 0 80 -64 93 -112 7 -24 21 -54 31 -68 l19 -25 33
34 c18 19 26 31 16 28 -22 -8 -32 6 -58 75 -12 32 -34 68 -51 82 l-29 25 40
28 c22 15 40 32 40 36 0 9 -80 127 -86 127 -2 0 -27 -17 -56 -37 -39 -28 -53
-34 -56 -23 -19 56 -98 78 -143 40z m254 -77 c19 -26 33 -51 31 -55 -3 -4 -25
-22 -50 -38 l-44 -31 0 86 c0 102 11 108 63 38z m-83 -118 c0 -113 -2 -135
-15 -135 -13 0 -15 21 -15 128 0 71 3 132 7 135 19 19 23 -5 23 -128z m-90 35
l0 -40 -27 17 c-16 9 -30 19 -33 21 -5 4 41 41 53 42 4 0 7 -18 7 -40z"/>
<path d="M2121 5061 c-23 -23 -30 -51 -8 -33 6 5 40 12 73 14 l62 3 -24 -45
c-13 -25 -24 -57 -24 -72 0 -23 -4 -28 -24 -28 -13 0 -34 -9 -47 -20 l-24 -21
30 6 c17 3 35 2 41 -3 32 -21 47 -110 22 -129 -7 -6 -30 -14 -52 -17 -38 -7
-94 -51 -82 -64 4 -3 11 0 16 7 11 18 56 16 123 -5 67 -21 103 -11 135 36 26
39 29 102 10 243 l-12 90 28 23 c34 30 10 33 -27 3 -41 -32 -52 -82 -38 -187
17 -138 15 -179 -11 -193 -17 -9 -28 -8 -55 6 -18 10 -33 21 -33 24 0 3 14 14
31 23 l30 18 -3 134 c-3 126 -2 136 20 165 l23 31 -34 0 c-19 0 -55 3 -79 6
-38 5 -49 3 -67 -15z"/>
<path d="M2790 5065 c-15 -18 -49 -19 -84 -4 -20 10 -28 9 -43 -6 -21 -21 -91
-54 -115 -55 -12 0 -18 -8 -18 -25 0 -20 -6 -25 -35 -31 -21 -4 -45 -18 -60
-36 -30 -35 -26 -47 7 -24 12 9 37 16 55 16 l33 0 0 -129 c0 -72 -4 -132 -9
-135 -5 -3 -25 1 -45 9 -48 20 -62 19 -86 -7 -28 -30 -25 -39 9 -32 16 3 38 1
50 -5 17 -10 34 -6 93 19 125 52 138 72 138 199 l0 91 35 0 c24 0 35 5 35 15
0 8 0 18 0 22 0 8 -4 9 -47 11 -18 2 -23 8 -23 28 0 25 2 26 35 20 42 -8 73 6
86 41 11 31 7 39 -11 18z m-160 -182 c0 -140 -9 -179 -51 -219 l-31 -29 17 35
c13 26 19 67 22 170 5 152 6 160 28 160 13 0 15 -19 15 -117z"/>
<path d="M2858 5070 c-10 -6 -23 -20 -29 -32 -9 -16 -8 -19 3 -12 13 9 138 23
138 15 0 -2 -9 -18 -19 -35 -11 -17 -22 -48 -26 -68 -5 -27 -12 -38 -25 -38
-10 0 -28 -9 -41 -21 l-24 -20 26 5 c39 8 69 -20 75 -69 6 -52 -3 -64 -57 -76
-41 -10 -89 -42 -89 -61 0 -5 10 -2 23 6 20 13 31 13 103 -7 77 -20 82 -20
107 -4 52 34 62 63 58 162 -9 225 -8 228 19 242 19 10 21 13 7 13 -78 0 -100
-79 -76 -272 10 -77 10 -91 -5 -113 -20 -31 -43 -32 -80 -2 l-29 23 32 13 c40
17 45 39 33 152 -10 94 -5 133 23 175 15 23 15 24 -13 24 -16 0 -49 2 -73 5
-24 3 -52 1 -61 -5z"/>
<path d="M3625 5069 c-100 -58 -120 -166 -45 -244 l30 -31 -36 -52 c-19 -29
-34 -62 -32 -73 4 -25 24 -21 21 4 -5 31 25 30 80 -1 l54 -31 48 35 c27 19 52
34 56 34 3 0 9 -13 12 -29 8 -41 29 -44 68 -11 31 27 32 29 12 30 -28 0 -30 9
-38 181 -5 127 -4 138 16 162 24 31 18 34 -20 11 -26 -15 -30 -15 -61 1 -42
22 -138 30 -165 14z m109 -45 c9 -3 16 -12 16 -20 0 -10 -13 -14 -43 -14 -33
0 -49 -6 -67 -25 -23 -24 -21 -50 2 -27 15 15 58 16 58 1 0 -5 -18 -37 -41
-70 -34 -51 -43 -58 -55 -48 -40 33 -58 125 -31 160 29 38 114 61 161 43z m58
-75 c3 -24 7 -61 7 -81 l1 -38 -75 0 -75 0 58 85 c31 46 62 83 67 81 6 -1 13
-23 17 -47z m3 -192 c0 -20 -8 -33 -30 -47 -30 -19 -30 -19 -95 8 -103 44 -82
70 55 68 70 -1 70 -1 70 -29z"/>
<path d="M4515 5033 l-60 -49 -5 -94 c-7 -122 -29 -134 -50 -26 -11 53 5 100
47 147 45 49 30 51 -27 2 -52 -45 -70 -85 -70 -158 0 -128 103 -219 226 -200
46 6 116 51 134 85 l11 21 -39 -20 c-22 -11 -59 -23 -81 -27 l-41 -7 0 92 0
91 49 0 c40 0 53 4 65 22 23 32 20 38 -16 38 l-32 0 44 45 c24 24 42 46 39 48
-2 2 -24 8 -49 14 -25 6 -54 14 -65 18 -15 4 -36 -7 -80 -42z m35 -163 c0
-104 -4 -160 -10 -160 -16 0 -88 38 -95 51 -4 6 9 25 29 44 36 33 36 33 36
117 0 78 9 108 32 108 4 0 8 -72 8 -160z m88 129 c8 -3 -5 -21 -33 -49 l-45
-44 0 61 0 62 33 -13 c17 -7 38 -15 45 -17z"/>
<path d="M7488 5064 c-36 -19 -36 -28 1 -21 38 8 60 -10 67 -53 5 -33 2 -37
-45 -69 -28 -19 -51 -37 -51 -41 0 -3 16 -14 36 -23 23 -11 40 -29 50 -52 22
-53 18 -72 -15 -80 -16 -3 -46 -22 -67 -41 -24 -22 -31 -33 -19 -28 11 4 40
12 65 19 l45 12 3 -59 3 -58 52 2 52 3 3 53 c2 28 7 52 11 52 5 0 27 -7 51
-15 l42 -15 44 37 44 37 0 121 c0 138 -10 165 -79 211 l-40 26 -30 -21 c-35
-25 -41 -26 -41 -6 0 8 -4 15 -10 15 -5 0 -10 -11 -10 -24 0 -13 -7 -29 -15
-36 -12 -10 -15 -9 -15 4 0 9 -11 28 -25 41 -28 28 -66 32 -107 9z m256 -54
c42 -25 64 -65 50 -88 -16 -25 -59 -38 -91 -26 -25 8 -28 15 -31 58 -5 81 12
94 72 56z m-91 -202 c-1 -106 -2 -199 -3 -205 0 -7 -7 -13 -15 -13 -13 0 -15
29 -15 199 0 194 2 206 30 210 3 1 4 -86 3 -191z m-95 72 c-3 -19 -3 -19 -28
0 l-25 20 25 20 c25 19 25 19 28 0 2 -11 2 -29 0 -40z m206 7 l36 11 0 -40 0
-39 -44 6 c-26 4 -52 2 -65 -4 -20 -11 -21 -9 -21 33 l0 44 29 -11 c22 -8 39
-8 65 0z m11 -79 c21 -9 25 -18 25 -55 0 -46 -2 -48 -46 -34 -16 5 -41 12 -56
15 -23 5 -28 12 -28 37 0 43 51 62 105 37z"/>
<path d="M7920 5060 c-11 -11 -20 -32 -20 -47 l0 -28 13 25 c7 14 20 25 30 24
9 0 37 -1 62 -2 l45 -2 -20 -32 c-11 -18 -20 -48 -20 -65 0 -26 -4 -33 -19
-33 -27 0 -51 -10 -51 -22 0 -6 7 -7 16 -4 22 8 54 -11 54 -33 0 -14 -5 -18
-19 -14 -29 7 -34 -13 -6 -25 39 -18 33 -57 -15 -104 -22 -22 -40 -42 -40 -44
0 -3 15 3 33 12 50 26 169 31 218 9 l40 -19 32 32 c17 18 26 32 20 32 -7 0
-14 -4 -17 -9 -3 -5 -23 0 -43 11 -29 15 -50 18 -92 14 l-54 -5 31 32 c51 52
65 99 57 185 -6 62 -4 76 11 93 9 10 23 19 31 19 7 0 13 5 13 11 0 18 -61 2
-87 -23 -21 -20 -23 -30 -23 -125 0 -109 -9 -141 -49 -177 -26 -23 -26 -19 -4
25 14 26 18 60 18 147 0 108 1 115 24 133 30 24 23 32 -16 19 -20 -8 -38 -8
-57 0 -41 15 -74 12 -96 -10z"/>
<path d="M8460 5033 l-55 -46 -5 -96 c-4 -76 -8 -96 -20 -96 -18 0 -39 56 -39
106 -1 38 33 100 72 131 14 12 17 18 8 18 -8 0 -35 -21 -61 -48 -77 -76 -89
-166 -35 -259 29 -48 108 -93 164 -93 45 0 108 29 144 65 38 38 34 46 -12 23
-21 -10 -55 -21 -75 -25 l-36 -6 0 92 0 91 50 0 c45 0 51 3 65 30 l16 30 -31
0 c-16 0 -30 3 -30 8 1 4 19 25 40 47 l39 40 -52 11 c-29 7 -61 15 -72 18 -14
4 -36 -8 -75 -41z m39 -157 c1 -92 -3 -157 -9 -161 -12 -7 -74 21 -92 42 -10
13 -8 19 14 38 40 34 48 58 48 137 0 68 10 98 31 98 4 0 8 -69 8 -154z m60
133 c17 -6 31 -14 31 -17 0 -9 -63 -72 -72 -72 -4 0 -8 23 -8 50 0 54 2 55 49
39z"/>
<path d="M9143 5058 c-28 -30 -30 -42 -4 -28 11 5 45 10 75 10 l55 0 -19 -32
c-10 -18 -22 -50 -25 -70 -5 -27 -12 -38 -25 -38 -10 0 -28 -9 -41 -21 l-24
-21 23 6 c33 7 50 -2 67 -35 17 -31 19 -67 6 -87 -4 -8 -28 -18 -52 -23 -41
-10 -89 -42 -89 -61 0 -5 10 -2 23 6 20 14 30 13 98 -6 67 -18 80 -19 104 -7
69 34 78 77 61 285 -9 99 -8 101 15 117 26 19 9 23 -22 7 -48 -26 -59 -98 -38
-262 10 -77 10 -91 -5 -113 -20 -31 -43 -32 -80 -2 l-29 23 31 13 c40 17 45
35 36 129 -11 111 -8 149 15 188 l20 34 -27 0 c-15 0 -49 3 -77 6 -44 5 -53 3
-72 -18z"/>
<path d="M10102 5035 c-85 -41 -92 -46 -92 -74 0 -29 -1 -30 -29 -20 -21 7
-36 7 -50 -1 -30 -16 -26 -27 8 -22 20 3 34 -3 50 -19 30 -33 28 -49 -7 -40
-15 5 -38 4 -52 -2 -24 -10 -24 -10 12 -17 40 -7 68 -26 68 -44 0 -8 -11 -11
-28 -8 -18 2 -33 -2 -41 -12 -12 -14 -10 -15 17 -10 51 10 95 -54 58 -85 -8
-7 -40 -11 -74 -9 -48 2 -65 -2 -81 -16 -12 -11 -21 -22 -21 -25 0 -3 24 -7
53 -7 28 -1 71 -3 93 -5 81 -7 124 40 124 134 0 36 5 59 15 67 25 20 89 24
123 6 l32 -16 -51 -95 c-28 -52 -48 -95 -44 -95 3 0 19 10 35 21 22 17 38 21
73 17 43 -5 44 -4 70 38 15 24 22 44 17 44 -5 0 -13 -6 -17 -14 -6 -11 -113
-29 -113 -18 0 1 19 30 42 63 71 105 80 189 26 247 -25 26 -89 62 -111 62 -7
0 -55 -20 -105 -45z m153 -46 c44 -39 44 -56 0 -75 -44 -18 -79 -18 -115 1
-26 14 -30 21 -30 60 l0 45 55 0 c47 0 59 -4 90 -31z m-155 -132 c0 -122 -3
-157 -16 -175 -8 -12 -22 -22 -30 -22 -13 0 -13 3 0 22 13 18 16 53 16 169 0
80 3 149 7 152 19 20 23 -6 23 -146z m109 36 c25 3 56 9 69 12 19 6 22 4 22
-21 0 -47 -11 -56 -49 -43 -19 7 -55 9 -87 5 l-54 -6 0 28 c0 37 8 44 33 31
11 -6 41 -9 66 -6z"/>
<path d="M597 5023 l-56 -48 0 -75 c-1 -88 -8 -120 -26 -120 -28 0 -46 111
-26 163 5 14 25 42 43 63 40 46 8 32 -40 -17 -43 -44 -62 -89 -62 -147 0 -87
43 -154 122 -186 70 -29 139 -14 204 46 56 51 56 63 1 33 -23 -14 -58 -26 -77
-27 l-35 -3 -3 153 c-3 166 -4 162 57 141 29 -10 35 -9 57 12 l25 24 -58 17
c-32 10 -61 18 -64 18 -3 0 -31 -21 -62 -47z m33 -164 l0 -160 -22 6 c-26 8
-88 44 -88 51 0 3 13 17 30 30 35 30 50 77 50 160 0 59 4 74 22 74 4 0 8 -72
8 -161z"/>
<path d="M3307 5023 l-57 -48 0 -78 c0 -105 -23 -148 -48 -92 -15 33 -15 120
-1 148 6 12 23 34 37 50 39 41 8 32 -34 -10 -47 -48 -64 -89 -64 -152 0 -87
37 -146 115 -182 72 -33 144 -19 211 43 56 51 56 63 2 33 -24 -13 -60 -27 -80
-30 l-38 -7 0 160 0 161 45 -17 c44 -16 45 -16 70 8 l26 25 -58 17 c-32 10
-60 18 -63 18 -3 0 -31 -21 -63 -47z m33 -164 l0 -160 -22 7 c-33 10 -76 32
-82 43 -3 5 10 25 29 44 34 34 35 37 35 112 0 74 11 115 30 115 6 0 10 -64 10
-161z"/>
<path d="M5093 5010 c-99 -59 -100 -60 -111 -111 -16 -70 -15 -107 7 -155 61
-133 227 -135 345 -3 64 70 84 155 52 218 -30 58 -114 111 -177 111 -8 0 -61
-27 -116 -60z m77 -156 l0 -166 -27 7 c-16 3 -39 13 -52 22 l-23 15 25 26 c38
40 47 73 47 173 0 72 3 89 15 89 13 0 15 -25 15 -166z m106 135 c66 -40 63
-74 -8 -85 -50 -9 -88 25 -88 78 0 40 0 40 31 34 18 -3 47 -15 65 -27z m-200
-216 c-16 -39 -56 23 -56 86 0 47 12 81 37 106 17 18 18 16 21 -80 1 -54 0
-105 -2 -112z m184 123 c19 1 45 4 58 9 21 7 22 5 22 -39 0 -25 -2 -46 -5 -46
-4 0 -20 7 -37 16 -29 15 -43 15 -95 -1 -21 -7 -23 -4 -23 35 0 39 1 41 23 33
12 -4 38 -7 57 -7z m60 -91 c23 -28 -46 -102 -104 -112 l-37 -6 3 59 c3 56 5
60 36 76 36 18 79 10 102 -17z"/>
<path d="M5689 5053 c-18 -21 -87 -52 -116 -53 -18 0 -23 -6 -23 -25 0 -20 -6
-25 -35 -31 -20 -3 -44 -17 -55 -31 -27 -35 -25 -49 5 -29 13 9 38 16 55 16
l30 0 0 -135 c0 -145 -1 -148 -50 -120 -14 8 -34 14 -46 15 -26 0 -54 -30 -53
-56 0 -10 3 -13 6 -6 6 15 34 16 66 1 21 -9 37 -5 110 29 110 51 120 67 125
188 l4 94 28 0 c25 0 40 15 40 39 0 4 -15 7 -32 7 -29 -1 -33 2 -36 27 -3 27
-2 29 27 22 34 -7 66 6 82 36 14 27 6 34 -20 18 -16 -11 -27 -11 -54 -1 -42
15 -42 15 -58 -5z m-39 -185 c0 -143 -11 -186 -57 -215 l-22 -15 20 38 c16 32
19 60 19 174 0 75 3 140 7 143 3 4 12 7 20 7 10 0 13 -29 13 -132z"/>
<path d="M6217 5017 l-57 -52 0 -87 c0 -89 -12 -117 -35 -84 -38 52 -23 151
32 209 34 34 20 35 -25 1 -99 -77 -95 -259 8 -328 80 -53 171 -43 246 26 24
23 42 43 40 46 -3 2 -24 -5 -48 -17 -24 -11 -58 -23 -76 -27 l-32 -6 0 156 c0
86 3 156 6 156 4 0 24 -5 45 -12 36 -10 41 -9 65 13 l25 24 -58 17 c-32 10
-62 18 -68 17 -5 0 -36 -23 -68 -52z m43 -151 c0 -85 -4 -157 -8 -160 -10 -6
-87 28 -96 43 -4 6 9 26 28 45 36 33 36 34 36 118 0 78 9 108 32 108 4 0 8
-69 8 -154z"/>
<path d="M6570 5012 c-107 -66 -118 -84 -119 -185 -1 -66 15 -103 58 -140 68
-57 150 -59 233 -5 80 51 138 140 138 210 -1 76 -90 164 -176 174 -34 4 -52
-3 -134 -54z m80 -157 c0 -150 -2 -165 -17 -165 -21 0 -83 36 -83 47 0 5 14
21 30 37 29 28 30 33 31 120 1 50 2 96 4 101 1 6 3 13 3 18 1 4 9 7 17 7 13 0
15 -25 15 -165z m68 150 c41 -18 82 -52 82 -70 0 -13 -42 -35 -66 -35 -8 0
-28 7 -44 15 -26 14 -30 21 -30 60 0 50 4 52 58 30z m-160 -130 c-3 -115 -16
-147 -41 -99 -25 50 -29 100 -12 140 41 98 58 85 53 -41z m182 22 c19 1 44 3
55 5 15 2 21 -3 23 -25 6 -51 -1 -57 -50 -39 -40 14 -47 14 -76 -1 l-32 -15 0
44 c0 43 1 45 23 37 12 -4 38 -7 57 -6z m58 -101 c8 -38 -66 -106 -115 -106
-21 0 -23 4 -23 58 0 60 6 69 60 85 23 7 75 -17 78 -37z"/>
<path d="M7110 5039 c-88 -48 -130 -98 -130 -153 0 -19 -9 -29 -34 -41 -19 -9
-37 -23 -40 -31 -6 -16 10 -19 19 -4 9 14 46 2 62 -19 20 -27 24 -73 9 -96 -8
-12 -32 -27 -54 -33 -26 -8 -43 -20 -47 -33 -8 -25 -1 -34 17 -23 7 5 35 9 62
10 40 1 54 6 73 28 20 24 23 38 23 112 l0 84 41 0 42 0 -5 -75 c-5 -73 -4 -75
25 -97 16 -13 32 -22 34 -21 15 7 94 85 81 80 -16 -6 -18 1 -18 51 0 35 6 66
15 79 13 19 13 22 0 27 -11 4 -15 23 -15 76 0 75 11 88 43 52 14 -16 17 -43
17 -174 0 -137 2 -159 18 -179 l19 -22 36 28 c39 29 47 41 22 31 -26 -10 -35
29 -35 154 0 83 5 132 15 155 14 34 14 35 -8 30 -16 -4 -29 1 -41 14 -25 27
-28 27 -89 -14 -45 -31 -52 -33 -56 -18 -3 19 -30 53 -40 53 -3 0 -31 -14 -61
-31z m34 -25 c3 -9 6 -42 6 -75 0 -59 0 -59 -30 -59 -16 0 -30 -4 -30 -10 0
-5 -5 -10 -11 -10 -19 0 -6 125 15 149 23 25 42 27 50 5z m114 -66 c-2 -50 -6
-63 -20 -66 -15 -3 -18 4 -18 50 0 50 12 78 32 78 5 0 8 -28 6 -62z m-198
-116 c-5 -157 -9 -171 -49 -172 -10 0 -9 5 5 21 16 18 20 40 22 153 2 72 9
137 14 144 6 7 11 11 12 10 1 -2 -1 -72 -4 -156z m198 -59 c-2 -53 -6 -68 -18
-68 -12 0 -16 15 -18 68 -3 62 -1 67 18 67 19 0 21 -5 18 -67z"/>
<path d="M9560 5011 c-83 -50 -97 -62 -108 -96 -22 -65 -12 -155 22 -200 55
-71 143 -91 229 -51 88 42 167 148 167 223 0 38 -28 99 -57 125 -27 25 -104
58 -133 57 -14 0 -68 -26 -120 -58z m80 -156 c0 -184 -1 -186 -67 -145 -40 24
-41 33 -5 58 26 20 27 23 30 136 3 106 5 116 23 116 18 0 19 -9 19 -165z m68
150 c41 -18 82 -52 82 -70 0 -13 -42 -35 -66 -35 -8 0 -28 7 -44 15 -26 14
-30 21 -30 60 0 50 4 52 58 30z m-158 -123 c0 -68 -4 -104 -14 -117 -13 -18
-14 -17 -28 11 -32 63 -30 125 7 180 28 43 35 27 35 -74z m175 14 c17 0 42 4
58 8 27 8 27 8 27 -38 0 -51 -3 -53 -50 -30 -27 14 -39 15 -65 5 -45 -16 -45
-15 -45 30 0 38 2 40 23 32 12 -4 36 -7 52 -7z m63 -99 c8 -38 -68 -107 -118
-107 -18 0 -20 6 -20 58 0 60 6 69 60 85 23 7 75 -17 78 -36z"/>
<path d="M3403 4383 c-20 -7 -18 -273 1 -273 20 0 24 16 18 78 -4 57 14 92 48
92 31 0 40 -23 40 -97 0 -58 3 -73 15 -73 12 0 15 16 15 85 0 79 -2 86 -25
101 -24 16 -38 15 -79 -2 -17 -7 -19 -3 -14 40 6 48 2 57 -19 49z"/>
<path d="M4076 4372 c-4 -11 -4 -34 -1 -52 5 -28 3 -31 -12 -25 -44 19 -62 17
-87 -8 -37 -37 -37 -117 -1 -152 26 -27 54 -31 86 -15 13 8 19 7 19 0 0 -7 5
-10 10 -8 15 5 16 271 2 276 -6 2 -13 -6 -16 -16z m-22 -98 c12 -5 16 -20 16
-64 0 -44 -4 -59 -16 -64 -48 -18 -74 5 -74 68 0 51 31 76 74 60z"/>
<path d="M6410 4370 c-11 -11 -20 -29 -20 -40 0 -11 -7 -20 -15 -20 -8 0 -15
-7 -15 -15 0 -8 7 -15 15 -15 12 0 15 -16 15 -85 0 -69 3 -85 15 -85 12 0 15
16 15 84 0 77 2 84 21 89 23 6 17 27 -7 27 -8 0 -14 6 -14 14 0 22 28 39 55
34 28 -6 36 16 9 26 -29 11 -54 6 -74 -14z"/>
<path d="M7167 4383 c-4 -3 -7 -66 -7 -140 0 -112 2 -133 15 -133 12 0 15 14
15 69 0 74 14 101 50 101 28 0 40 -31 40 -104 0 -52 3 -66 15 -66 12 0 15 16
15 80 0 68 -3 83 -21 101 -20 20 -41 21 -81 4 -16 -6 -18 -1 -18 44 0 47 -7
61 -23 44z"/>
<path d="M3162 4358 c3 -7 21 -14 41 -16 l37 -3 0 -115 c0 -107 1 -114 20
-114 19 0 20 7 20 115 l0 115 40 0 c29 0 40 4 40 15 0 12 -18 15 -101 15 -76
0 -100 -3 -97 -12z"/>
<path d="M3594 4359 c-10 -17 13 -36 27 -22 12 12 4 33 -11 33 -5 0 -12 -5
-16 -11z"/>
<path d="M6290 4356 c0 -17 27 -29 35 -16 4 6 3 15 0 20 -9 15 -35 12 -35 -4z"/>
<path d="M5470 4337 c0 -17 -7 -26 -21 -30 -23 -6 -17 -27 7 -27 11 0 14 -16
14 -73 0 -43 5 -78 12 -85 17 -17 48 -15 48 3 0 8 -7 15 -15 15 -12 0 -15 14
-15 70 0 56 3 70 15 70 8 0 15 7 15 15 0 8 -6 15 -14 15 -8 0 -16 10 -18 22
-4 31 -28 35 -28 5z"/>
<path d="M6187 4354 c-4 -4 -7 -16 -7 -26 0 -10 -7 -18 -15 -18 -8 0 -15 -7
-15 -15 0 -8 6 -15 14 -15 10 0 15 -20 18 -76 4 -77 13 -94 51 -94 9 0 17 7
17 15 0 8 -7 15 -15 15 -31 0 -33 135 -2 144 22 5 22 24 0 28 -10 2 -18 12
-18 22 0 20 -16 31 -28 20z"/>
<path d="M7060 4336 c0 -19 -5 -26 -20 -26 -11 0 -20 -7 -20 -15 0 -8 9 -15
20 -15 18 0 20 -7 20 -73 0 -43 5 -78 12 -85 17 -17 48 -15 48 3 0 8 -7 15
-15 15 -17 0 -17 1 -19 82 -1 49 2 58 17 58 9 0 17 7 17 15 0 8 -9 15 -21 15
-15 0 -19 5 -17 22 2 11 -3 23 -9 25 -8 3 -13 -5 -13 -21z"/>
<path d="M7570 4336 c0 -19 -5 -26 -20 -26 -11 0 -20 -7 -20 -15 0 -8 9 -15
20 -15 18 0 20 -7 20 -73 0 -43 5 -78 12 -85 17 -17 48 -15 48 3 0 8 -7 15
-15 15 -12 0 -15 14 -15 70 0 56 3 70 15 70 8 0 15 7 15 15 0 8 -6 15 -14 15
-8 0 -16 10 -18 22 -5 32 -28 35 -28 4z"/>
<path d="M3594 4297 c-3 -8 -4 -51 -2 -98 3 -70 6 -84 21 -87 15 -3 17 7 17
97 0 84 -3 101 -15 101 -9 0 -18 -6 -21 -13z"/>
<path d="M3710 4297 c-28 -14 -38 -58 -17 -75 7 -6 31 -17 53 -24 28 -9 39
-19 39 -33 0 -26 -55 -34 -75 -11 -14 17 -40 22 -40 7 0 -17 52 -51 79 -51 37
0 71 26 71 54 0 29 -14 41 -66 58 -28 9 -39 19 -39 33 0 25 46 33 65 11 14
-17 40 -22 40 -7 0 14 -50 51 -69 51 -9 0 -27 -6 -41 -13z"/>
<path d="M4180 4282 c-40 -40 -42 -97 -4 -141 35 -42 75 -42 116 -1 27 28 30
36 25 77 -6 52 -29 80 -74 89 -27 5 -37 1 -63 -24z m89 -15 c39 -48 15 -127
-39 -127 -34 0 -50 23 -50 71 0 56 58 92 89 56z"/>
<path d="M4405 4298 c-34 -18 -45 -40 -45 -90 0 -77 53 -118 113 -87 35 19 49
49 23 49 -8 0 -16 -7 -20 -15 -7 -19 -60 -20 -75 -1 -17 21 -10 107 10 119 21
13 69 1 69 -18 0 -8 7 -15 15 -15 24 0 18 27 -11 49 -30 23 -49 26 -79 9z"/>
<path d="M4550 4230 c0 -103 13 -119 94 -117 l56 1 0 98 c0 80 -3 98 -15 98
-12 0 -15 -14 -15 -66 0 -80 -11 -104 -49 -104 -36 0 -41 13 -41 101 0 55 -3
69 -15 69 -12 0 -15 -16 -15 -80z"/>
<path d="M4750 4210 c0 -82 3 -100 15 -100 12 0 15 15 15 73 0 78 9 97 47 97
31 0 43 -28 43 -104 0 -52 3 -66 15 -66 12 0 15 15 15 74 0 80 11 100 52 94
18 -2 24 -12 31 -48 4 -25 6 -62 5 -82 -3 -26 1 -38 10 -38 10 0 12 20 10 87
-3 84 -4 88 -31 103 -25 14 -30 13 -58 -2 -27 -16 -32 -16 -45 -3 -18 18 -38
19 -67 4 -16 -9 -22 -9 -25 0 -2 6 -10 11 -18 11 -11 0 -14 -20 -14 -100z"/>
<path d="M5089 4281 c-22 -23 -29 -39 -29 -69 0 -22 3 -48 6 -57 7 -18 55 -45
81 -45 25 0 65 29 57 42 -4 6 -10 6 -17 -1 -27 -27 -97 -2 -97 35 0 11 15 14
66 14 l66 0 -7 33 c-7 37 -47 77 -76 77 -11 0 -34 -13 -50 -29z m79 -13 c25
-25 13 -38 -33 -38 -48 0 -55 9 -29 34 18 19 45 21 62 4z"/>
<path d="M5260 4210 c0 -82 3 -100 15 -100 12 0 15 15 15 74 0 80 11 100 52
94 22 -3 23 -8 26 -85 2 -65 6 -83 17 -83 16 0 17 5 18 55 2 92 -3 114 -28
131 -22 14 -29 15 -57 3 -24 -10 -33 -10 -36 -1 -2 7 -8 12 -13 12 -5 0 -9
-45 -9 -100z"/>
<path d="M5702 4300 c-31 -13 -54 -72 -46 -116 7 -39 45 -74 79 -74 23 0 75
35 75 51 0 15 -27 10 -34 -6 -7 -19 -60 -20 -76 0 -16 19 -15 92 1 111 17 20
57 17 71 -6 15 -23 38 -27 38 -6 0 18 -47 56 -69 55 -9 0 -26 -4 -39 -9z"/>
<path d="M5892 4300 c-56 -23 -66 -129 -15 -170 40 -31 113 -21 113 16 0 11
-4 12 -19 4 -43 -23 -91 -6 -91 32 0 15 9 18 60 18 l60 0 0 30 c0 19 -9 40
-25 55 -25 26 -45 30 -83 15z m66 -32 c25 -25 13 -38 -33 -38 -30 0 -45 4 -45
13 0 19 21 37 45 37 12 0 26 -5 33 -12z"/>
<path d="M6040 4210 c0 -82 3 -100 15 -100 12 0 15 14 15 68 0 74 5 86 38 96
12 4 22 14 22 22 0 17 -14 18 -41 4 -13 -7 -19 -7 -19 0 0 5 -7 10 -15 10 -12
0 -15 -18 -15 -100z"/>
<path d="M6290 4210 c0 -82 3 -100 15 -100 12 0 15 18 15 100 0 82 -3 100 -15
100 -12 0 -15 -18 -15 -100z"/>
<path d="M6490 4210 c0 -82 3 -100 15 -100 12 0 15 18 15 100 0 82 -3 100 -15
100 -12 0 -15 -18 -15 -100z"/>
<path d="M6624 4300 c-60 -24 -73 -112 -25 -161 16 -16 39 -29 50 -29 30 0 71
21 71 37 0 15 -16 17 -25 3 -12 -19 -63 -11 -79 12 -9 12 -16 26 -16 30 0 5
29 8 65 8 59 0 65 2 65 20 0 33 -27 77 -52 84 -28 7 -27 7 -54 -4z m66 -41
c15 -28 10 -31 -44 -27 -46 3 -46 3 -31 26 20 28 61 29 75 1z"/>
<path d="M6800 4297 c-28 -14 -38 -58 -17 -75 7 -6 31 -17 53 -24 28 -9 39
-19 39 -33 0 -26 -55 -34 -75 -11 -14 17 -40 22 -40 7 0 -17 52 -51 79 -51 37
0 71 26 71 54 0 29 -14 41 -66 58 -28 9 -39 19 -39 33 0 27 40 32 66 9 14 -12
23 -14 30 -7 7 7 2 17 -17 32 -31 24 -49 26 -84 8z"/>
<path d="M7392 4300 c-23 -10 -39 -36 -28 -47 3 -3 15 2 25 11 27 25 75 18 79
-11 3 -21 -1 -23 -35 -23 -71 0 -106 -57 -62 -101 16 -16 28 -20 52 -15 44 9
50 9 64 5 13 -5 13 -6 13 79 0 39 -5 75 -12 85 -16 21 -65 30 -96 17z m78
-113 c0 -13 -5 -28 -12 -35 -18 -18 -56 -14 -68 7 -13 26 11 51 51 51 24 0 29
-4 29 -23z"/>
<path d="M1728 3880 c-44 -8 -102 -50 -123 -90 -32 -62 -13 -156 40 -198 14
-11 25 -23 25 -28 0 -4 -18 -36 -41 -70 -41 -63 -49 -109 -19 -109 11 0 14 9
12 33 -3 24 1 32 13 32 19 0 93 -36 117 -57 15 -13 22 -10 75 31 32 25 61 46
66 46 4 0 7 -13 7 -28 0 -16 9 -37 20 -47 20 -19 21 -18 58 19 20 21 29 36 20
33 -9 -3 -21 0 -26 6 -6 7 -14 91 -18 187 l-7 175 28 33 c32 38 24 41 -21 7
l-33 -25 -34 20 c-42 25 -111 38 -159 30z m94 -66 c32 -9 8 -35 -31 -33 -48 3
-79 -8 -92 -33 -13 -23 -4 -37 13 -20 14 14 54 16 63 2 7 -11 -76 -140 -91
-140 -28 0 -74 76 -74 125 0 32 54 93 94 104 29 9 77 7 118 -5z m59 -115 c4
-46 5 -87 2 -91 -5 -10 -153 -11 -153 -2 0 25 119 186 133 181 7 -2 15 -37 18
-88z m9 -178 c0 -22 -9 -37 -34 -56 -37 -28 -32 -29 -139 19 -52 23 -57 28
-47 46 10 18 21 20 115 20 l105 0 0 -29z"/>
<path d="M2451 3869 c-28 -23 -74 -24 -156 -4 -143 34 -226 10 -270 -79 -14
-27 -22 -52 -19 -55 4 -3 9 1 12 9 3 8 20 30 39 48 27 25 43 32 73 32 l39 0
-49 -49 c-113 -113 -99 -283 28 -358 64 -38 156 -39 221 -2 48 26 95 79 106
119 6 22 3 21 -27 -12 -28 -31 -84 -68 -103 -68 -3 0 -5 77 -5 170 l0 170 30
0 c45 0 85 24 100 60 16 39 11 43 -19 19z m-251 -202 c0 -145 -10 -190 -39
-173 -46 29 -66 161 -36 234 16 38 52 82 67 82 4 0 8 -64 8 -143z m120 -47 l0
-180 -30 0 c-17 0 -47 7 -67 15 l-36 15 40 43 c44 48 51 74 52 202 0 44 0 81
1 83 0 1 9 2 20 2 19 0 20 -7 20 -180z"/>
<path d="M2698 3832 l-68 -56 0 -97 c0 -54 -3 -104 -6 -113 -10 -27 -32 -18
-43 17 -31 100 -21 156 41 223 22 24 37 44 32 44 -25 0 -87 -57 -114 -103 -54
-94 -38 -212 37 -289 46 -47 118 -73 181 -64 56 7 123 46 152 86 25 35 22 37
-30 10 -22 -11 -60 -23 -85 -27 l-45 -6 0 107 0 106 60 0 c56 0 60 2 75 30
l16 30 -36 0 c-19 0 -35 3 -35 7 0 4 21 29 47 55 26 26 45 49 42 51 -2 2 -31
11 -64 19 -33 9 -67 18 -75 21 -9 3 -42 -17 -82 -51z m42 -187 c0 -121 -4
-185 -10 -185 -22 0 -76 28 -94 49 -20 21 -19 22 20 62 l39 40 3 97 c4 91 12
122 33 122 5 0 9 -83 9 -185z m62 162 c21 -7 40 -16 43 -18 2 -3 -18 -27 -45
-54 l-50 -49 0 67 c0 37 3 67 8 67 4 0 24 -6 44 -13z"/>
<path d="M5237 3878 c-21 -17 -37 -61 -36 -101 l1 -32 10 30 c18 51 26 55 102
55 l71 0 -58 -51 c-75 -66 -100 -116 -100 -194 0 -181 172 -262 328 -155 41
28 46 29 51 13 19 -61 43 -73 82 -42 36 28 39 39 12 39 -27 0 -33 40 -28 212
2 116 6 149 21 171 23 35 22 44 -3 22 -19 -17 -21 -17 -53 8 l-34 26 -38 -39
c-21 -22 -36 -42 -33 -45 3 -3 11 1 18 10 16 19 25 19 44 -1 18 -18 21 -76 6
-105 -12 -21 -59 -26 -91 -9 -17 9 -19 22 -19 106 l0 95 -31 -17 c-29 -14 -37
-14 -95 0 -76 19 -105 20 -127 4z m240 -220 c2 -235 4 -227 -50 -218 -69 10
-73 17 -27 61 27 26 40 48 41 66 0 16 2 73 3 128 3 98 10 145 25 145 3 0 7
-82 8 -182z m-69 132 c-20 -27 -24 -47 -29 -149 -3 -64 -11 -127 -18 -140 -12
-22 -13 -22 -32 -5 -21 19 -39 73 -39 119 0 63 22 109 76 164 57 58 81 64 42
11z m156 -124 c38 -1 41 -3 41 -28 0 -16 -3 -28 -7 -28 -5 0 -30 0 -58 0 l-50
0 0 35 c0 28 3 33 16 28 9 -3 35 -7 58 -7z m38 -88 c12 -19 3 -89 -13 -100
-20 -14 -77 -38 -89 -38 -6 0 -10 30 -10 74 0 62 3 75 18 80 27 7 85 -2 94
-16z"/>
<path d="M5751 3864 c-12 -15 -21 -30 -21 -35 0 -4 -3 -14 -6 -23 -3 -9 -2
-16 4 -16 5 0 12 9 15 20 3 13 14 20 30 20 43 0 74 -56 84 -151 l6 -58 -32 12
c-35 13 -64 2 -69 -27 -3 -15 -1 -16 17 -4 17 11 24 9 46 -12 31 -30 33 -86 5
-149 -11 -24 -18 -46 -16 -48 3 -3 20 1 40 8 29 10 42 10 77 -1 l42 -14 50 54
c98 109 137 187 137 276 0 52 -36 164 -53 164 -4 0 -48 -20 -97 -45 -97 -49
-110 -52 -110 -31 0 8 -15 31 -34 50 -42 45 -85 49 -115 10z m323 -74 c36 -90
21 -110 -80 -110 -57 0 -71 10 -76 55 -3 28 2 33 57 62 33 18 65 32 71 33 7 0
19 -18 28 -40z m8 -181 c-7 -28 -13 -34 -33 -31 -13 1 -48 4 -76 5 -56 1 -57
3 -47 55 6 30 7 31 53 26 25 -3 60 -1 76 4 35 10 42 -4 27 -59z m-30 -57 c8
-8 3 -23 -18 -56 -27 -43 -31 -45 -64 -40 -32 5 -62 -3 -123 -34 -11 -5 64
131 77 141 15 11 114 3 128 -11z"/>
<path d="M6727 3878 c-21 -17 -37 -61 -36 -101 l1 -32 10 30 c18 51 26 55 100
55 l70 0 -70 -67 c-62 -60 -71 -74 -82 -124 -18 -80 0 -149 51 -200 70 -70
161 -76 262 -15 l55 33 15 -38 c19 -48 42 -50 82 -9 27 28 27 30 8 30 -11 0
-24 7 -27 16 -3 9 -6 84 -6 168 0 132 3 157 20 191 25 49 25 53 0 30 -18 -16
-20 -16 -46 4 -36 28 -45 27 -82 -12 -34 -35 -45 -62 -13 -33 33 30 51 11 51
-55 0 -55 -2 -59 -26 -65 -15 -4 -39 -3 -53 2 -25 9 -26 12 -29 102 -1 50 -6
92 -11 92 -4 0 -22 -5 -39 -11 -24 -8 -43 -7 -86 5 -65 19 -97 20 -119 4z
m240 -235 l-2 -198 -37 -3 c-20 -2 -47 2 -58 8 -20 11 -20 13 19 51 l41 39 0
112 c0 112 12 188 30 188 6 0 9 -82 7 -197z m-59 166 c-7 -12 -19 -31 -25 -43
-8 -12 -13 -60 -13 -116 -1 -93 -15 -160 -35 -167 -24 -8 -50 61 -50 132 0 82
25 134 89 184 46 37 51 38 34 10z m138 -141 c43 1 44 1 44 -31 l0 -32 -55 3
-55 4 0 35 c0 22 4 32 11 27 6 -3 31 -6 55 -6z m22 -74 c19 -6 22 -13 22 -58
0 -50 -1 -53 -39 -74 -65 -37 -71 -33 -71 52 0 50 4 76 13 79 17 8 48 8 75 1z"/>
<path d="M9394 3869 c-27 -10 -65 -32 -84 -48 l-34 -28 -6 -129 c-7 -136 -14
-161 -55 -188 -29 -19 -31 -15 -9 20 16 23 24 107 24 248 0 39 31 79 88 116
21 14 12 15 -101 15 -69 0 -127 -2 -129 -5 -18 -21 -38 -57 -38 -67 0 -21 17
-15 23 8 5 19 11 21 44 16 21 -4 53 -7 72 -7 l35 0 -28 -28 c-14 -16 -29 -45
-33 -65 -5 -33 -9 -37 -35 -37 -28 0 -78 -38 -78 -60 0 -13 17 -13 25 0 11 18
64 11 75 -9 16 -31 12 -49 -11 -53 -24 -3 -67 -53 -56 -65 4 -3 13 1 20 11 19
25 51 17 55 -14 2 -18 -10 -38 -43 -73 -36 -37 -46 -54 -43 -75 5 -41 34 -36
30 5 -6 63 83 88 186 54 l62 -21 39 24 c21 14 64 32 95 41 l56 16 0 72 c0 40
3 81 6 93 4 16 -2 24 -37 39 l-41 19 37 32 38 31 -50 65 -49 65 -50 -18z m39
-69 c21 -28 40 -56 43 -63 4 -11 -73 -77 -90 -77 -2 0 -7 19 -9 43 -2 23 -4
-20 -5 -95 l-2 -137 -60 1 -60 1 36 31 c43 37 53 78 54 214 0 78 3 95 20 112
11 11 24 20 28 20 4 0 25 -23 45 -50z m7 -165 c43 -22 37 -35 -15 -35 -38 0
-45 3 -45 19 0 16 8 25 28 30 2 1 16 -6 32 -14z m30 -72 c0 -21 -5 -23 -45
-23 -40 0 -45 2 -45 23 0 21 5 24 45 24 40 0 45 -3 45 -24z m-12 -42 c23 -14
10 -53 -21 -64 -15 -5 -34 -6 -42 -3 -18 7 -20 62 -2 69 19 8 51 7 65 -2z"/>
<path d="M1093 3855 l-28 -25 45 6 c53 7 68 -4 76 -58 6 -32 3 -36 -55 -77
-34 -23 -61 -44 -61 -46 0 -3 18 -14 40 -25 46 -23 69 -54 76 -101 5 -32 3
-35 -43 -56 -50 -24 -109 -70 -100 -79 3 -3 19 1 35 10 16 8 48 18 71 22 l41
7 0 -67 0 -66 60 0 60 0 0 60 c0 68 5 71 78 46 l41 -15 51 46 50 45 0 126 c0
152 -15 194 -87 244 -49 33 -44 34 -110 -10 -21 -13 -23 -13 -23 7 0 11 -5 21
-11 21 -6 0 -9 -6 -6 -12 6 -17 -10 -58 -23 -58 -6 0 -15 11 -19 23 -16 41
-40 57 -86 57 -32 0 -51 -6 -72 -25z m305 -55 c70 -51 83 -101 31 -119 -41
-14 -62 -14 -94 1 -22 10 -25 17 -25 68 0 86 22 98 88 50z m-105 -207 c-1 -98
-2 -199 -2 -225 -1 -36 -5 -48 -16 -48 -13 0 -15 32 -15 229 0 175 3 230 13
234 6 2 14 1 17 -4 3 -4 4 -87 3 -186z m-103 82 l0 -46 -30 23 c-16 12 -30 24
-30 28 0 4 49 39 58 40 1 0 2 -20 2 -45z m270 -39 l0 -45 -53 6 c-32 3 -62 1
-75 -6 -21 -11 -22 -10 -22 35 0 40 2 45 18 39 38 -14 68 -15 92 -1 38 21 40
20 40 -28z m-31 -57 c30 -11 31 -13 31 -69 l0 -58 -55 19 c-30 10 -64 19 -75
19 -17 0 -20 7 -20 39 0 34 4 41 28 49 36 14 53 14 91 1z"/>
<path d="M2971 3856 c-12 -12 -21 -35 -21 -52 l1 -29 15 29 c15 27 19 28 61
22 25 -3 57 -6 70 -6 l24 0 -20 -26 c-11 -14 -23 -45 -27 -70 -5 -33 -11 -44
-24 -44 -10 0 -28 -9 -41 -20 l-24 -20 28 6 c19 4 34 1 47 -11 26 -24 26 -49
0 -42 -10 3 -27 -1 -37 -9 -17 -13 -17 -13 4 -14 13 0 30 -11 38 -24 21 -32 6
-71 -48 -119 -23 -22 -35 -37 -27 -34 149 54 207 57 281 15 l39 -22 35 34 c34
33 50 65 20 40 -12 -10 -25 -8 -67 10 -42 18 -63 21 -107 16 l-54 -7 42 46
c55 60 61 79 61 198 0 56 4 107 8 113 4 6 21 18 37 27 l30 16 -30 0 c-44 1
-78 -20 -97 -59 -14 -28 -16 -50 -11 -122 7 -100 -9 -158 -54 -199 -23 -21
-25 -22 -18 -4 32 82 35 102 33 210 -3 111 -2 114 24 142 l27 28 -98 2 c-91 2
-100 0 -120 -21z"/>
<path d="M4400 3869 c-15 -6 -56 -8 -100 -4 -73 6 -77 6 -103 -21 -26 -26 -36
-54 -18 -54 5 0 12 7 15 16 5 14 16 16 63 10 31 -4 59 -9 61 -11 2 -2 -5 -16
-16 -30 -11 -14 -23 -43 -27 -65 -5 -32 -11 -40 -35 -45 -30 -7 -67 -41 -56
-52 3 -4 12 -1 18 5 17 17 42 15 61 -6 22 -24 22 -51 0 -59 -22 -8 -42 -33
-43 -52 0 -12 3 -11 18 1 9 9 23 13 30 11 25 -9 12 -54 -29 -97 -44 -49 -57
-98 -26 -104 15 -3 18 2 15 34 -3 34 1 40 26 52 38 19 119 17 175 -2 24 -9 45
-15 46 -14 43 62 64 98 57 98 -4 0 -12 -4 -17 -9 -18 -17 -145 -18 -145 -1 0
17 89 68 128 74 20 4 51 2 67 -2 41 -12 36 -40 -20 -123 -25 -36 -45 -75 -45
-86 0 -26 25 -47 45 -39 22 8 18 36 -5 36 -33 0 -24 16 48 84 l67 65 3 94 c4
108 -10 153 -60 188 l-29 21 -53 -46 c-30 -25 -57 -46 -60 -46 -3 0 -6 24 -6
53 0 61 18 93 63 112 16 7 25 15 20 18 -16 10 -110 -40 -128 -66 -12 -19 -16
-48 -16 -104 1 -141 -8 -182 -46 -222 l-34 -36 16 39 c10 27 15 74 15 158 0
136 12 178 59 203 17 8 31 20 31 25 0 6 -1 10 -2 9 -2 0 -14 -5 -28 -10z m174
-170 c34 -40 33 -54 -4 -69 -47 -20 -127 2 -115 31 6 14 74 68 87 69 3 0 18
-14 32 -31z m26 -114 l0 -31 -75 0 -75 0 0 31 0 30 75 0 75 0 0 -30z"/>
<path d="M4739 3860 l-24 -21 32 6 c26 5 37 2 58 -19 43 -43 34 -75 -35 -121
-65 -43 -73 -60 -36 -69 39 -10 96 -81 96 -120 0 -30 -4 -35 -29 -41 -33 -7
-111 -60 -111 -75 0 -5 16 -2 35 6 46 19 155 18 204 -2 l40 -16 40 33 c40 34
47 49 15 31 -13 -7 -26 -6 -46 4 -26 14 -28 18 -28 83 0 37 3 70 6 74 12 11
65 -16 84 -44 12 -15 29 -52 39 -82 22 -62 42 -97 55 -97 13 0 66 51 66 63 0
5 -6 4 -14 -2 -12 -10 -18 -8 -30 11 -8 13 -18 37 -22 53 -11 49 -41 102 -71
125 l-28 22 21 16 c12 10 34 26 50 38 l28 21 -47 66 c-26 36 -51 69 -56 72 -6
3 -36 -13 -68 -35 l-58 -41 -12 30 c-7 17 -21 35 -32 41 -33 17 -96 12 -122
-10z m289 -90 l41 -60 -53 -40 c-29 -22 -56 -40 -59 -40 -4 0 -7 40 -7 88 0
80 9 112 30 112 3 0 25 -27 48 -60z m-88 -130 c0 -153 -1 -160 -20 -160 -19 0
-20 7 -20 148 0 142 6 172 32 172 4 0 8 -72 8 -160z m-110 35 c0 -25 -3 -45
-6 -45 -3 0 -19 11 -35 24 l-29 25 28 20 c38 29 42 27 42 -24z"/>
<path d="M6227 3869 c-18 -11 -47 -60 -47 -81 0 -7 9 -2 19 11 16 22 28 25 87
26 38 1 78 6 89 10 15 7 12 0 -12 -28 -18 -20 -35 -52 -38 -71 -7 -33 -9 -34
-41 -29 -20 3 -40 1 -49 -7 -24 -20 -18 -30 14 -24 35 7 71 -23 71 -61 0 -21
-3 -23 -22 -16 -25 9 -49 4 -60 -13 -13 -19 -9 -23 16 -19 17 4 27 -1 36 -16
16 -31 6 -53 -52 -110 -56 -56 -56 -58 16 -36 63 19 114 19 172 -1 l47 -16 40
40 40 41 29 -40 c15 -21 32 -39 36 -39 4 0 24 16 43 36 28 30 30 35 12 30 -19
-6 -28 3 -68 63 -26 39 -58 80 -71 90 l-25 20 61 42 c33 24 60 45 60 48 0 4
-15 24 -34 46 -32 38 -34 39 -57 23 -13 -8 -37 -27 -52 -42 -15 -14 -33 -26
-39 -26 -14 0 -1 64 23 114 22 45 18 60 -6 23 -26 -41 -36 -87 -42 -207 l-6
-115 -36 -35 c-21 -19 -53 -41 -72 -47 l-34 -13 37 35 c65 60 71 77 79 200 5
77 13 126 26 156 l20 44 -96 2 c-53 1 -104 -2 -114 -8z m321 -149 l22 -29 -56
-40 c-32 -23 -61 -41 -66 -41 -4 0 -8 18 -8 39 0 33 6 44 38 70 20 17 39 30
42 30 3 0 15 -13 28 -29z m-45 -177 c41 -40 44 -50 24 -77 -13 -17 -19 -18
-80 -6 l-67 14 20 21 c11 11 25 35 31 53 6 18 17 32 23 32 7 0 29 -16 49 -37z"/>
<path d="M7466 3851 c-105 -58 -156 -120 -156 -189 0 -23 -6 -30 -35 -41 -19
-7 -40 -21 -45 -32 -12 -21 -1 -26 17 -8 20 20 60 1 77 -35 34 -71 17 -112
-57 -136 -37 -12 -57 -34 -57 -66 0 -16 1 -16 19 0 14 13 28 16 53 11 22 -4
48 -1 72 9 49 20 66 63 66 166 0 69 2 80 18 82 19 1 53 1 65 -1 11 -2 8 -110
-4 -133 -9 -17 -6 -25 22 -54 18 -19 36 -34 40 -34 4 0 32 23 61 51 29 28 45
48 36 45 -16 -5 -18 2 -18 60 0 43 5 73 16 89 15 23 15 25 0 25 -13 0 -16 13
-16 85 0 76 2 85 18 85 11 0 26 -8 35 -18 15 -16 17 -45 17 -204 0 -166 2
-187 18 -201 24 -22 27 -22 69 10 35 27 36 28 12 33 l-24 6 -3 168 c-2 141 0
173 14 193 18 28 12 42 -11 23 -12 -10 -21 -8 -49 14 -19 14 -37 26 -41 26 -3
0 -29 -18 -58 -39 -53 -41 -67 -43 -67 -11 0 17 -36 52 -50 49 -3 -1 -27 -13
-54 -28z m34 -40 c5 -11 10 -47 10 -80 0 -59 -1 -61 -27 -61 -14 0 -35 -7 -45
-17 -17 -15 -18 -13 -18 59 0 61 4 78 20 96 26 27 46 28 60 3z m130 -77 c0
-62 -1 -64 -25 -64 -24 0 -25 3 -25 56 0 42 4 60 17 70 27 19 33 8 33 -62z
m-228 -121 c-2 -100 -9 -184 -14 -190 -6 -7 -19 -13 -29 -13 -18 0 -18 2 -5
23 10 16 15 65 18 174 3 106 8 156 17 167 7 9 14 16 15 16 1 0 0 -80 -2 -177z
m212 1 c12 -5 16 -21 16 -73 0 -71 -13 -99 -37 -80 -20 17 -18 159 3 159 1 0
9 -3 18 -6z"/>
<path d="M7939 3857 c-52 -35 -79 -82 -79 -139 0 -56 10 -80 52 -125 l31 -32
-42 -63 c-42 -64 -51 -113 -21 -113 14 0 17 12 9 45 -6 25 49 14 103 -19 l49
-31 57 45 57 45 10 -30 c5 -16 18 -37 28 -47 16 -17 19 -16 55 21 20 21 29 36
20 33 -9 -3 -21 0 -26 6 -6 7 -13 92 -17 190 l-8 178 29 30 c34 36 23 38 -22
4 l-33 -25 -49 25 c-67 34 -155 35 -203 2z m154 -43 c34 -10 -1 -33 -49 -32
-46 1 -84 -21 -84 -49 0 -15 16 -17 25 -3 8 13 52 13 60 0 7 -11 -75 -139 -91
-139 -6 -1 -20 9 -31 22 -53 58 -57 110 -12 162 44 50 101 62 182 39z m55
-122 l3 -92 -82 0 -81 0 19 29 c74 114 110 160 123 158 12 -2 16 -22 18 -95z
m12 -171 c0 -21 -9 -36 -35 -55 l-35 -27 -75 32 c-82 34 -93 43 -75 64 10 11
38 15 116 15 l104 0 0 -29z"/>
<path d="M8332 3864 c-28 -19 -30 -39 -2 -24 25 14 68 3 80 -20 6 -10 10 -32
10 -48 0 -25 -8 -35 -49 -62 -76 -48 -79 -54 -31 -81 46 -26 77 -69 82 -113 3
-26 -1 -31 -30 -39 -17 -6 -49 -25 -70 -44 -32 -29 -34 -33 -12 -26 42 13 192
9 227 -7 32 -14 34 -13 68 20 39 38 47 60 13 36 -16 -12 -26 -13 -42 -4 -31
16 -36 28 -36 89 0 71 14 86 58 59 32 -20 60 -65 82 -135 12 -38 36 -75 49
-75 9 0 71 57 71 64 0 4 -9 2 -20 -4 -16 -9 -22 -6 -34 17 -7 16 -20 48 -27
72 -7 25 -30 63 -51 84 -21 22 -38 41 -38 43 0 1 22 16 50 34 32 21 47 36 42
44 -25 41 -97 136 -102 136 -4 0 -32 -18 -63 -40 -61 -44 -67 -46 -67 -26 0 7
-9 25 -21 40 -17 21 -29 26 -68 26 -26 0 -56 -7 -69 -16z m288 -93 c22 -33 40
-62 40 -64 0 -9 -108 -75 -114 -70 -3 4 -6 40 -6 80 0 72 11 113 30 113 5 0
27 -27 50 -59z m-90 -131 c0 -153 -1 -160 -20 -160 -19 0 -20 7 -20 150 0 131
2 150 18 159 9 6 18 11 20 11 1 0 2 -72 2 -160z m-110 34 l0 -45 -30 21 c-16
12 -30 25 -30 28 0 6 48 41 58 42 1 0 2 -21 2 -46z"/>
<path d="M3640 3866 c0 -1 5 -17 10 -33 14 -38 46 -53 117 -53 l55 0 -35 -40
c-27 -29 -38 -51 -43 -88 -6 -45 -8 -49 -35 -49 -26 0 -69 -26 -69 -43 0 -4
14 -4 32 -2 22 3 35 0 45 -14 23 -31 15 -62 -28 -109 -54 -59 -38 -57 36 3 72
57 84 86 84 200 1 89 9 115 43 133 19 10 20 9 13 -7 -4 -11 -11 -71 -14 -134
-8 -136 -14 -148 -113 -211 -77 -48 -89 -67 -25 -39 62 28 143 35 235 20 l79
-12 46 33 47 33 0 96 c0 102 -19 197 -48 235 -34 46 -49 49 -224 55 -114 3
-171 9 -180 18 -11 11 -28 16 -28 8z m270 -240 l0 -154 -40 -4 c-22 -2 -40 -2
-40 0 0 1 7 14 16 27 12 18 18 60 23 143 4 64 10 123 14 130 21 33 27 2 27
-142z m79 139 c28 -14 36 -25 51 -77 7 -23 5 -31 -13 -43 -26 -18 -47 -19 -82
-3 -23 10 -25 16 -25 75 0 57 2 63 20 63 12 0 34 -7 49 -15z m61 -177 c0 -37
0 -37 -30 -26 -29 10 -45 9 -82 -7 -15 -6 -18 -1 -18 31 l0 39 65 0 65 0 0
-37z m-12 -54 c16 -11 22 -25 22 -51 0 -35 -1 -35 -32 -29 -18 4 -50 9 -70 13
-34 5 -38 9 -38 34 0 16 7 32 18 38 26 15 75 13 100 -5z"/>
<path d="M9637 3462 c-22 -24 -21 -35 3 -57 20 -18 21 -18 45 5 l25 24 -22 23
c-26 28 -30 28 -51 5z"/>
<path d="M1010 3255 l0 -25 4390 0 4390 0 0 25 0 25 -4390 0 -4390 0 0 -25z"/>
<path d="M2902 2945 c3 -146 21 -192 26 -67 2 63 6 74 26 87 47 31 64 7 68
-98 4 -84 22 -76 26 12 4 100 -12 126 -74 117 l-44 -6 0 45 c0 34 -4 45 -15
45 -13 0 -15 -19 -13 -135z"/>
<path d="M4926 3064 c-9 -8 -16 -26 -16 -40 0 -15 -6 -24 -15 -24 -8 0 -15 -4
-15 -10 0 -5 7 -10 15 -10 11 0 15 -18 17 -85 2 -48 7 -85 13 -85 6 0 11 37
13 85 2 77 5 85 22 85 11 0 20 5 20 10 0 6 -9 10 -21 10 -28 0 -22 42 9 55 12
5 22 13 22 17 0 14 -48 8 -64 -8z"/>
<path d="M5222 2945 c2 -82 7 -135 13 -135 6 0 11 53 13 135 2 117 0 135 -13
135 -13 0 -15 -18 -13 -135z"/>
<path d="M5312 2945 c2 -82 7 -135 13 -135 6 0 11 53 13 135 2 117 0 135 -13
135 -13 0 -15 -18 -13 -135z"/>
<path d="M6572 2945 c2 -82 7 -135 13 -135 6 0 11 53 13 135 2 117 0 135 -13
135 -13 0 -15 -18 -13 -135z"/>
<path d="M7270 3036 l0 -44 -39 5 c-30 4 -43 1 -58 -14 -31 -31 -38 -87 -16
-131 17 -35 21 -37 65 -37 25 0 50 -3 54 -7 18 -19 24 14 24 138 0 112 -2 134
-15 134 -11 0 -15 -12 -15 -44z m-19 -66 c15 -9 19 -22 19 -66 0 -48 -3 -56
-24 -65 -32 -15 -63 3 -71 42 -8 36 10 86 33 92 10 3 18 5 20 6 2 0 12 -4 23
-9z"/>
<path d="M7562 2945 c2 -81 7 -135 13 -135 6 0 11 30 13 67 2 55 7 71 23 86
26 21 33 21 53 1 12 -11 16 -35 16 -85 0 -55 3 -69 15 -69 22 0 21 137 -1 169
-15 20 -22 23 -60 17 l-44 -6 0 45 c0 34 -4 45 -15 45 -13 0 -15 -19 -13 -135z"/>
<path d="M6860 3029 c0 -12 -8 -23 -20 -26 -25 -7 -26 -19 0 -26 17 -4 20 -15
22 -83 3 -78 3 -79 31 -82 29 -4 37 12 12 22 -11 4 -15 22 -15 76 0 56 3 70
15 70 8 0 15 5 15 10 0 6 -7 10 -15 10 -9 0 -15 9 -15 25 0 16 -6 25 -15 25
-9 0 -15 -9 -15 -21z"/>
<path d="M7460 3029 c0 -12 -8 -23 -20 -26 -26 -7 -26 -19 0 -26 18 -5 20 -13
19 -75 -1 -81 3 -92 37 -92 27 0 32 15 9 24 -11 4 -15 22 -15 76 0 56 3 70 15
70 8 0 15 5 15 10 0 6 -7 10 -15 10 -9 0 -15 9 -15 25 0 16 -6 25 -15 25 -9 0
-15 -9 -15 -21z"/>
<path d="M3119 2981 c-27 -21 -18 -42 9 -23 31 22 44 25 61 15 33 -21 24 -39
-26 -49 -38 -7 -51 -15 -61 -37 -12 -24 -11 -31 2 -52 14 -22 23 -24 79 -23
l62 1 -3 76 c-3 50 -9 82 -20 94 -20 23 -74 22 -103 -2z m91 -100 c0 -23 -25
-51 -45 -51 -14 0 -45 26 -45 39 0 17 26 31 57 31 26 0 33 -4 33 -19z"/>
<path d="M3310 2980 c-11 -11 -20 -26 -20 -33 0 -21 31 -44 70 -54 28 -7 35
-14 35 -34 0 -33 -48 -40 -67 -10 -14 24 -38 28 -38 8 0 -26 36 -47 78 -47 33
0 45 5 57 24 27 40 7 63 -77 90 -25 8 -23 43 3 51 14 5 28 0 43 -14 26 -24 36
-26 36 -8 0 44 -84 63 -120 27z"/>
<path d="M3586 2981 c-31 -35 -17 -64 42 -85 52 -19 62 -32 40 -54 -18 -18
-45 -15 -68 8 -22 22 -40 26 -40 10 0 -24 41 -50 79 -50 47 0 73 22 69 59 -2
21 -12 29 -55 45 -53 19 -63 32 -41 54 18 18 35 15 58 -10 16 -18 23 -19 33
-9 10 10 7 16 -12 32 -30 25 -83 25 -105 0z"/>
<path d="M3753 2984 c-9 -24 3 -143 17 -159 9 -11 30 -15 71 -14 l59 2 0 93
c0 77 -3 94 -15 94 -12 0 -15 -15 -15 -75 0 -65 -3 -76 -20 -85 -12 -6 -30 -8
-40 -5 -18 6 -20 16 -20 86 0 64 -3 79 -15 79 -9 0 -18 -7 -22 -16z"/>
<path d="M3971 2974 c-30 -38 -29 -113 2 -142 41 -39 127 -21 127 26 0 18 -15
14 -35 -8 -39 -43 -85 -14 -85 55 0 36 5 48 24 60 27 18 59 9 70 -20 8 -21 26
-19 26 4 0 51 -94 69 -129 25z"/>
<path d="M4161 2979 c-36 -39 -31 -138 9 -159 46 -25 120 -1 120 38 0 18 -15
14 -35 -8 -39 -43 -85 -14 -85 54 0 71 61 101 90 45 13 -23 30 -25 30 -4 0 50
-92 74 -129 34z"/>
<path d="M4357 2980 c-44 -35 -42 -136 3 -160 32 -17 85 -12 105 10 16 17 16
20 2 20 -9 0 -19 -4 -22 -10 -18 -29 -89 4 -83 39 3 13 15 16 61 15 l57 -1 0
31 c0 66 -69 98 -123 56z m77 -16 c30 -29 20 -44 -29 -44 -49 0 -56 11 -28 42
20 22 37 23 57 2z"/>
<path d="M4540 2980 c-11 -11 -20 -26 -20 -33 0 -21 31 -44 70 -54 28 -7 35
-14 35 -34 0 -32 -43 -39 -70 -9 -21 23 -35 26 -35 7 0 -25 36 -47 76 -47 47
0 64 14 64 52 0 20 -8 31 -30 43 -16 8 -35 15 -43 15 -8 0 -20 6 -26 14 -9 11
-8 18 4 30 22 21 38 20 60 -4 12 -14 22 -17 29 -10 6 6 3 16 -9 30 -24 26 -78
27 -105 0z"/>
<path d="M4725 2984 c-9 -9 -15 -28 -13 -43 2 -20 12 -29 45 -41 57 -21 70
-35 53 -55 -17 -21 -46 -19 -70 5 -36 36 -53 23 -24 -18 31 -44 134 -21 134
30 0 21 -29 45 -70 55 -37 10 -52 39 -28 54 21 14 37 11 55 -11 22 -25 33 -25
33 0 0 38 -83 56 -115 24z"/>
<path d="M5020 2924 c0 -107 6 -114 85 -112 l65 2 0 94 c0 84 -2 93 -17 90
-15 -3 -17 -12 -15 -53 4 -61 -10 -101 -38 -110 -38 -12 -50 11 -50 91 0 59
-3 74 -15 74 -12 0 -15 -15 -15 -76z"/>
<path d="M5399 2923 c16 -43 32 -86 36 -96 9 -21 -19 -67 -40 -67 -17 0 -20
-16 -5 -25 28 -17 58 26 99 141 23 64 39 119 37 122 -15 14 -35 -13 -50 -68
-10 -34 -21 -58 -25 -54 -4 5 -15 35 -26 67 -13 41 -23 57 -36 57 -17 0 -16
-7 10 -77z"/>
<path d="M5673 2978 c-27 -31 -35 -67 -22 -111 11 -42 33 -57 82 -57 33 0 67
24 67 48 0 19 -24 14 -38 -8 -29 -47 -82 -12 -82 55 0 72 41 96 84 50 13 -13
26 -22 29 -18 11 11 8 22 -13 43 -28 28 -81 26 -107 -2z"/>
<path d="M5874 2992 c-42 -29 -55 -92 -29 -141 16 -33 33 -41 80 -41 46 0 75
38 75 97 0 56 -33 93 -82 93 -18 0 -38 -4 -44 -8z m76 -32 c27 -27 27 -90 0
-115 -60 -54 -122 61 -64 119 21 21 40 20 64 -4z"/>
<path d="M6050 2904 c0 -77 3 -94 15 -94 12 0 15 15 15 75 0 64 3 76 20 85 14
8 26 8 40 0 17 -9 20 -21 20 -85 0 -60 3 -75 15 -75 12 0 15 14 15 65 0 52 4
69 20 85 23 23 30 24 53 8 12 -10 17 -32 19 -88 4 -99 22 -97 26 4 4 97 -11
121 -68 112 -39 -7 -38 -7 -127 -2 l-63 4 0 -94z"/>
<path d="M6360 2865 c0 -113 2 -135 15 -135 11 0 15 12 15 44 l0 44 43 -5 c39
-5 46 -2 65 22 15 19 22 42 22 70 0 74 -53 115 -111 85 -13 -7 -19 -7 -19 0 0
5 -7 10 -15 10 -13 0 -15 -22 -15 -135z m110 95 c37 -37 16 -130 -30 -130 -31
0 -50 28 -50 75 0 34 5 47 22 59 29 20 34 20 58 -4z"/>
<path d="M6677 2980 c-14 -11 -28 -34 -32 -50 -8 -38 11 -97 35 -110 27 -14
82 -12 104 5 26 20 12 32 -18 15 -31 -16 -73 -6 -81 20 -10 31 0 37 60 35 l55
-1 0 31 c0 66 -70 97 -123 55z m77 -16 c30 -29 20 -44 -29 -44 -49 0 -56 11
-28 42 20 22 37 23 57 2z"/>
<path d="M6982 2978 c-11 -13 -24 -35 -27 -50 -9 -34 11 -95 35 -108 28 -15
86 -12 100 5 17 21 6 29 -20 15 -29 -16 -69 -4 -79 23 -11 29 -1 34 65 32 53
-2 54 -2 54 25 0 69 -82 106 -128 58z m82 -14 c30 -29 20 -44 -29 -44 -38 0
-45 3 -45 20 0 35 48 51 74 24z"/>
<path d="M7775 2968 c-23 -27 -26 -39 -22 -77 3 -30 12 -51 27 -63 27 -22 93
-24 110 -3 17 21 6 29 -20 15 -29 -15 -67 -5 -81 21 -15 30 2 39 69 35 l54 -3
-5 35 c-13 77 -83 98 -132 40z m89 -10 c24 -33 20 -38 -29 -38 -38 0 -45 3
-45 20 0 19 24 39 47 40 6 0 19 -10 27 -22z"/>
<path d="M4267 2603 c-4 -3 -7 -82 -7 -175 0 -155 -2 -170 -20 -188 -40 -40
-130 -17 -130 33 0 12 -9 17 -30 17 -34 0 -36 -7 -16 -54 26 -62 137 -84 203
-41 44 30 53 70 53 250 l0 165 -23 0 c-13 0 -27 -3 -30 -7z"/>
<path d="M4470 2592 c-46 -23 -74 -78 -62 -124 10 -40 62 -78 140 -103 65 -20
92 -45 92 -84 0 -40 -32 -61 -91 -61 -52 0 -99 29 -99 61 0 14 -7 19 -30 19
-40 0 -40 -28 0 -73 61 -69 184 -75 248 -11 31 31 34 39 29 76 -7 56 -46 92
-131 122 -82 30 -106 50 -106 87 0 59 106 85 155 39 14 -13 25 -32 25 -42 0
-13 8 -18 31 -18 27 0 30 3 24 23 -28 92 -134 135 -225 89z"/>
<path d="M5020 2603 c-35 -13 -72 -47 -90 -83 -27 -54 -28 -197 -1 -256 51
-112 211 -126 278 -25 31 46 30 71 -2 71 -19 0 -28 -8 -39 -34 -17 -42 -42
-56 -96 -56 -76 0 -117 75 -107 195 8 105 43 148 120 147 44 -1 81 -28 91 -68
8 -30 56 -35 56 -6 0 28 -37 81 -72 102 -32 19 -103 26 -138 13z"/>
<path d="M5358 2474 c-61 -33 -87 -151 -50 -223 51 -100 192 -106 244 -10 27
50 25 146 -5 190 -12 18 -34 39 -47 46 -34 17 -109 16 -142 -3z m133 -53 c24
-25 29 -37 29 -81 0 -64 -21 -105 -60 -119 -57 -19 -105 18 -117 92 -17 108
78 178 148 108z"/>
<path d="M5642 2361 c3 -121 5 -131 27 -155 32 -34 82 -43 130 -24 34 14 39
14 48 0 5 -9 16 -13 26 -9 15 6 17 25 17 162 l0 155 -25 0 -25 0 0 -115 c0
-102 -2 -117 -20 -135 -23 -23 -88 -28 -108 -8 -8 8 -12 53 -12 135 l0 123
-31 0 -31 0 4 -129z"/>
<path d="M5980 2329 l0 -160 23 3 c21 3 22 7 25 118 3 127 11 147 66 152 23 2
32 8 34 26 3 19 -1 22 -29 22 -18 0 -41 -7 -51 -17 -17 -15 -18 -15 -18 0 0
11 -8 17 -25 17 l-25 0 0 -161z"/>
<path d="M6211 2464 c-23 -19 -31 -34 -31 -58 0 -43 24 -64 107 -91 63 -20 68
-24 71 -52 3 -28 -1 -32 -31 -42 -40 -14 -80 -2 -99 29 -14 22 -58 28 -58 7 0
-40 69 -87 129 -87 46 0 98 29 112 62 10 24 9 35 -4 63 -14 30 -25 37 -89 56
-89 26 -108 48 -72 83 24 24 71 20 100 -9 14 -14 34 -25 44 -25 31 0 24 34
-11 64 -24 21 -41 26 -84 26 -43 0 -60 -5 -84 -26z"/>
<path d="M6543 2470 c-44 -26 -66 -74 -66 -140 0 -95 42 -148 126 -157 65 -8
147 41 118 70 -9 9 -15 9 -29 -1 -57 -41 -121 -33 -147 18 -30 57 -25 60 90
60 l105 0 0 33 c-1 42 -33 113 -58 126 -33 17 -104 13 -139 -9z m116 -37 c11
-10 22 -29 23 -43 3 -24 1 -25 -66 -28 -38 -2 -73 1 -78 6 -11 11 15 67 34 75
27 11 67 6 87 -10z"/>
<path d="M3640 1861 c0 -87 4 -141 10 -141 6 0 10 4 10 9 0 5 24 8 53 7 51 -1
52 0 71 37 22 45 15 98 -16 129 -16 16 -29 19 -59 15 l-38 -5 -3 41 c-2 22 -9
42 -15 45 -10 3 -13 -29 -13 -137z m104 23 c33 -32 13 -134 -25 -134 -6 0 -19
5 -30 10 -15 9 -19 22 -19 66 0 47 3 56 23 64 31 12 34 12 51 -6z"/>
<path d="M3932 1863 c2 -98 6 -138 16 -141 9 -3 12 29 12 137 0 120 -2 141
-15 141 -13 0 -15 -20 -13 -137z"/>
<path d="M4900 1865 c0 -113 2 -135 15 -135 13 0 15 22 15 135 0 113 -2 135
-15 135 -13 0 -15 -22 -15 -135z"/>
<path d="M7177 1994 c-4 -4 -7 -24 -7 -45 l0 -37 -38 5 c-34 4 -42 1 -60 -22
-30 -37 -30 -112 -2 -143 17 -18 31 -21 81 -20 l60 2 -3 129 c-3 121 -10 152
-31 131z m-26 -104 c15 -9 19 -22 19 -66 0 -48 -3 -56 -25 -66 -21 -9 -28 -8
-45 7 -29 26 -28 98 2 119 27 19 24 19 49 6z"/>
<path d="M5580 1980 c-12 -7 -12 -12 -2 -22 9 -9 15 -9 24 0 16 16 -2 34 -22
22z"/>
<path d="M7354 1977 c-2 -7 -3 -67 -2 -133 l3 -119 55 1 c86 3 90 3 90 14 0 6
-27 10 -60 10 l-60 0 0 120 c0 76 -4 120 -10 120 -6 0 -13 -6 -16 -13z"/>
<path d="M8450 1887 c0 -88 -3 -106 -18 -120 -26 -24 -49 -21 -68 8 -18 28
-44 33 -44 10 0 -29 38 -55 80 -55 69 0 80 21 80 150 0 91 -3 110 -15 110 -12
0 -15 -18 -15 -103z"/>
<path d="M8591 1981 c-13 -4 -34 -19 -45 -34 -19 -26 -19 -30 -6 -55 10 -17
34 -33 68 -47 66 -25 81 -46 52 -75 -27 -27 -56 -25 -86 5 -27 27 -44 32 -44
13 1 -53 113 -80 158 -38 44 41 20 86 -63 120 -43 17 -55 27 -55 44 0 51 56
62 96 19 17 -18 28 -23 35 -16 7 7 3 18 -13 36 -25 28 -60 38 -97 28z"/>
<path d="M3840 1965 c0 -8 7 -15 15 -15 8 0 15 7 15 15 0 8 -7 15 -15 15 -8 0
-15 -7 -15 -15z"/>
<path d="M4985 1971 c-7 -12 12 -24 25 -16 11 7 4 25 -10 25 -5 0 -11 -4 -15
-9z"/>
<path d="M5460 1946 c0 -16 -6 -26 -15 -26 -8 0 -15 -4 -15 -10 0 -5 7 -10 15
-10 12 0 15 -13 15 -59 0 -80 13 -111 45 -111 29 0 32 8 8 26 -13 9 -18 27
-19 66 -1 63 3 78 22 78 8 0 14 5 14 10 0 6 -6 10 -14 10 -8 0 -16 10 -18 22
-5 34 -38 37 -38 4z"/>
<path d="M2030 1900 c-25 -25 -34 -61 -26 -105 17 -88 145 -88 162 0 13 72
-21 125 -81 125 -22 0 -43 -8 -55 -20z m83 -13 c26 -18 33 -81 13 -112 -20
-30 -49 -32 -76 -5 -35 35 -23 108 20 123 23 8 25 8 43 -6z"/>
<path d="M2210 1826 c0 -74 3 -95 15 -100 13 -4 15 7 15 69 0 68 2 76 24 90
19 13 29 14 45 6 17 -10 21 -23 23 -86 2 -42 7 -75 13 -75 6 0 11 34 13 76 2
61 -1 80 -14 95 -19 21 -55 25 -85 9 -13 -7 -19 -7 -19 0 0 5 -7 10 -15 10
-12 0 -15 -17 -15 -94z"/>
<path d="M2522 1897 c-42 -44 -37 -133 9 -157 36 -20 86 -12 108 16 31 39 29
107 -4 139 -32 33 -83 34 -113 2z m88 -17 c27 -27 27 -90 0 -115 -60 -54 -122
61 -64 119 21 21 40 20 64 -4z"/>
<path d="M2709 1913 c-5 -35 5 -161 14 -172 8 -9 25 -12 54 -8 24 2 46 1 49
-4 15 -25 24 11 24 97 0 77 -3 94 -15 94 -12 0 -15 -15 -15 -74 0 -82 -12
-103 -55 -92 -24 6 -25 9 -25 86 0 64 -3 80 -15 80 -8 0 -15 -3 -16 -7z"/>
<path d="M2902 1822 c2 -65 7 -97 16 -100 9 -3 12 14 12 63 0 75 12 105 40
105 11 0 20 6 20 14 0 10 -13 14 -45 14 l-46 -1 3 -95z"/>
<path d="M3110 1824 c0 -51 4 -95 9 -99 16 -9 29 27 29 83 0 28 1 56 1 62 2
18 40 31 61 20 16 -9 20 -23 22 -85 3 -88 22 -105 26 -25 1 30 4 65 7 77 7 31
39 47 65 33 17 -9 20 -21 20 -91 0 -60 3 -80 13 -77 19 7 22 144 2 174 -17 26
-71 34 -92 13 -7 -7 -17 -8 -30 -1 -10 6 -45 10 -76 9 l-57 -1 0 -92z"/>
<path d="M3467 1909 c-26 -15 -46 -68 -40 -104 13 -72 95 -102 141 -52 32 34
31 109 -3 142 -26 27 -67 32 -98 14z m71 -25 c17 -11 22 -25 22 -56 0 -66 -47
-100 -84 -62 -21 21 -21 92 1 116 20 22 32 23 61 2z"/>
<path d="M3842 1823 c2 -66 7 -98 16 -101 9 -3 12 21 12 97 0 84 -3 101 -15
101 -13 0 -15 -15 -13 -97z"/>
<path d="M4035 1895 c-35 -34 -35 -112 -2 -143 27 -26 83 -29 113 -8 24 18 10
34 -16 18 -28 -17 -54 -15 -75 8 -31 34 -13 51 50 46 30 -2 57 0 61 5 9 15
-16 78 -36 89 -32 17 -70 11 -95 -15z m76 -5 c10 -6 19 -20 19 -30 0 -17 -7
-20 -45 -20 -51 0 -60 18 -23 44 27 19 24 19 49 6z"/>
<path d="M4308 1898 c-26 -26 -9 -37 24 -14 28 20 42 20 62 0 24 -24 20 -31
-25 -37 -48 -6 -79 -31 -79 -63 0 -39 25 -54 91 -52 l59 2 0 73 c0 60 -4 77
-20 93 -27 27 -83 27 -112 -2z m102 -93 c0 -21 -38 -57 -57 -53 -22 4 -38 32
-30 52 9 22 87 23 87 1z"/>
<path d="M4490 1785 c0 -113 2 -135 15 -135 11 0 15 12 15 44 l0 44 43 -5 c59
-7 82 19 82 92 0 80 -46 117 -106 85 -13 -7 -19 -7 -19 0 0 5 -7 10 -15 10
-13 0 -15 -22 -15 -135z m106 101 c14 -11 19 -26 19 -60 0 -59 -23 -84 -62
-70 -26 9 -28 14 -31 67 -3 52 -1 58 20 67 31 12 31 12 54 -4z"/>
<path d="M4692 1786 c2 -93 7 -131 16 -134 8 -2 12 10 12 41 l0 45 43 -5 c39
-5 46 -2 65 22 29 37 30 103 2 138 -19 23 -27 26 -81 24 l-60 -1 3 -130z m108
94 c26 -26 26 -80 1 -111 -16 -20 -23 -22 -47 -14 -26 9 -29 15 -32 62 -3 44
0 53 20 67 29 20 34 20 58 -4z"/>
<path d="M4989 1916 c-2 -2 -3 -48 -1 -101 2 -68 7 -95 15 -92 17 5 18 197 2
197 -6 0 -14 -2 -16 -4z"/>
<path d="M5091 1901 c-31 -31 -36 -83 -15 -128 17 -34 24 -38 61 -41 32 -2 47
2 62 17 22 22 27 41 11 41 -5 0 -19 -9 -30 -20 -40 -40 -78 -19 -87 48 -4 32
-1 44 16 61 28 28 46 27 73 -4 12 -14 25 -25 30 -25 15 0 8 26 -12 48 -27 28
-82 30 -109 3z"/>
<path d="M5277 1902 c-21 -23 -21 -32 -2 -32 8 0 15 4 15 9 0 16 38 23 60 11
34 -18 24 -37 -25 -44 -66 -10 -97 -63 -57 -99 13 -12 35 -16 75 -15 l57 2 0
77 c0 69 -3 80 -22 93 -30 22 -81 20 -101 -2z m93 -102 c0 -23 -44 -55 -65
-46 -45 17 -22 66 31 66 27 0 34 -4 34 -20z"/>
<path d="M5570 1825 c0 -88 1 -95 20 -95 19 0 20 7 20 95 0 88 -1 95 -20 95
-19 0 -20 -7 -20 -95z"/>
<path d="M5676 1889 c-29 -35 -33 -76 -11 -118 16 -33 33 -41 80 -41 46 0 75
38 75 97 0 88 -90 127 -144 62z m94 -9 c44 -44 11 -140 -44 -126 -46 11 -60
76 -25 120 25 31 42 33 69 6z"/>
<path d="M5869 1913 c-6 -55 -5 -151 2 -170 16 -42 29 -14 29 63 0 71 1 75 26
84 41 16 53 -2 56 -86 4 -101 22 -100 26 2 2 65 -1 85 -13 98 -19 18 -66 21
-82 5 -8 -8 -13 -8 -17 0 -8 13 -26 15 -27 4z"/>
<path d="M6150 1825 c0 -78 3 -95 15 -95 12 0 15 14 15 70 0 62 3 71 24 85 47
31 64 7 68 -98 4 -84 22 -70 26 19 2 61 -1 80 -14 95 -19 21 -55 25 -85 9 -13
-7 -19 -7 -19 0 0 5 -7 10 -15 10 -12 0 -15 -17 -15 -95z"/>
<path d="M6369 1901 c-27 -21 -18 -42 9 -23 31 22 44 25 61 15 24 -15 26 -43
3 -43 -70 0 -117 -51 -87 -96 14 -21 22 -23 80 -22 51 2 64 5 60 16 -3 8 -5
42 -5 77 0 44 -5 68 -16 79 -21 22 -77 20 -105 -3z m91 -106 c0 -28 -31 -49
-60 -40 -12 4 -20 15 -20 29 0 30 7 36 47 36 28 0 33 -3 33 -25z"/>
<path d="M6549 1911 c-3 -37 1 -173 6 -181 15 -24 25 6 25 75 0 64 3 76 20 85
14 7 26 8 40 0 16 -9 20 -23 22 -85 3 -82 21 -107 26 -35 1 25 5 60 7 77 7 39
36 59 65 43 16 -9 20 -23 22 -88 4 -101 22 -100 26 2 4 97 -11 121 -68 112
-19 -4 -42 -6 -50 -6 -8 1 -43 2 -77 4 -35 1 -63 0 -64 -3z"/>
<path d="M6885 1895 c-35 -34 -35 -112 -2 -143 27 -26 83 -29 113 -8 24 18 10
34 -16 18 -28 -17 -54 -15 -75 8 -30 33 -13 50 47 47 53 -2 53 -2 56 30 7 67
-74 98 -123 48z m76 -5 c10 -6 19 -20 19 -30 0 -17 -7 -20 -45 -20 -51 0 -60
18 -23 44 27 19 24 19 49 6z"/>
<path d="M7562 1897 c-42 -44 -37 -133 9 -157 27 -15 85 -12 99 5 17 21 6 29
-20 15 -30 -16 -64 -5 -78 25 -13 28 -14 27 53 30 22 2 46 3 53 4 19 2 14 46
-9 75 -27 34 -77 36 -107 3z m82 -13 c30 -29 20 -44 -29 -44 -32 0 -45 4 -45
14 0 18 27 46 45 46 7 0 21 -7 29 -16z"/>
<path d="M7745 1900 c-21 -24 -12 -40 13 -22 31 22 44 25 61 15 24 -15 26 -43
3 -43 -71 0 -117 -51 -87 -97 14 -21 22 -23 77 -20 l61 3 -2 75 c-2 51 -7 79
-18 92 -23 24 -85 23 -108 -3z m95 -103 c0 -12 -9 -28 -21 -35 -28 -18 -59 -6
-59 22 0 30 7 36 47 36 28 0 33 -4 33 -23z"/>
<path d="M7930 1818 c0 -75 3 -99 13 -96 7 3 13 30 15 73 3 74 13 95 43 95 11
0 19 6 19 14 0 10 -13 14 -45 14 l-45 -1 0 -99z"/>
<path d="M8050 1825 c0 -78 3 -95 15 -95 12 0 15 14 15 70 0 62 3 71 24 85 46
31 63 5 68 -110 2 -27 8 -50 13 -50 15 0 17 136 2 165 -14 28 -54 38 -87 20
-13 -7 -20 -7 -20 0 0 5 -7 10 -15 10 -12 0 -15 -17 -15 -95z"/>
<path d="M8750 1745 c0 -10 7 -15 18 -13 21 4 19 22 -2 26 -10 2 -16 -3 -16
-13z"/>
<path d="M8300 1519 c0 -5 5 -7 10 -4 6 3 10 8 10 11 0 2 -4 4 -10 4 -5 0 -10
-5 -10 -11z"/>
<path d="M8687 1308 c-13 -18 -33 -46 -43 -63 -16 -26 -16 -28 -2 -16 18 13
82 111 73 111 -2 0 -15 -15 -28 -32z"/>
<path d="M8136 1225 c-9 -26 -7 -32 5 -12 6 10 9 21 6 23 -2 3 -7 -2 -11 -11z"/>
<path d="M8102 1155 c-6 -14 -7 -25 -2 -25 9 0 25 39 18 46 -3 2 -10 -7 -16
-21z"/>
<path d="M8476 1008 c-14 -18 -23 -34 -21 -36 5 -5 54 50 55 61 0 14 -9 7 -34
-25z"/>
<path d="M8721 944 c0 -11 3 -14 6 -6 3 7 2 16 -1 19 -3 4 -6 -2 -5 -13z"/>
<path d="M8021 904 c0 -11 3 -14 6 -6 3 7 2 16 -1 19 -3 4 -6 -2 -5 -13z"/>
<path d="M8377 871 c-35 -49 -67 -104 -67 -117 0 -5 71 101 104 154 19 31 -6
7 -37 -37z"/>
<path d="M8713 865 c0 -22 2 -30 4 -17 2 12 2 30 0 40 -3 9 -5 -1 -4 -23z"/>
<path d="M1900 761 c0 -63 4 -112 10 -116 6 -4 10 35 10 109 0 71 -4 116 -10
116 -6 0 -10 -43 -10 -109z"/>
<path d="M1411 838 c-21 -57 -50 -135 -60 -160 -7 -18 -7 -29 0 -34 5 -3 15 8
22 25 11 29 15 31 59 31 42 0 48 -3 54 -24 5 -22 34 -45 34 -28 0 4 -16 53
-37 110 -37 102 -56 123 -72 80z m42 -65 l17 -43 -36 0 c-38 0 -38 0 -12 69
10 28 10 28 31 -26z"/>
<path d="M1827 854 c-8 -8 1 -24 14 -24 5 0 9 7 9 15 0 15 -12 20 -23 9z"/>
<path d="M2082 845 c-38 -17 -44 -38 -7 -29 l25 6 0 -86 c0 -70 3 -86 15 -86
12 0 15 18 15 99 0 55 -3 102 -8 105 -4 2 -22 -2 -40 -9z"/>
<path d="M2225 840 c-23 -25 -12 -39 13 -17 23 21 46 22 62 2 18 -22 3 -55
-26 -55 -34 0 -31 -28 4 -32 23 -3 27 -8 27 -33 0 -26 -4 -30 -30 -33 -19 -3
-33 2 -42 14 -16 22 -31 9 -17 -14 7 -10 27 -18 52 -20 35 -3 43 1 58 24 17
24 17 29 2 54 -10 17 -12 33 -7 41 14 22 10 56 -7 73 -22 22 -67 20 -89 -4z"/>
<path d="M2532 844 c-12 -8 -22 -22 -22 -30 0 -20 13 -17 28 6 22 35 72 19 72
-23 0 -11 -23 -46 -51 -78 -28 -32 -48 -62 -46 -66 7 -11 121 -8 125 3 1 5
-18 11 -44 14 l-46 5 27 30 c35 39 65 87 65 103 0 20 -38 52 -63 52 -12 0 -33
-7 -45 -16z"/>
<path d="M2700 840 c-28 -28 -29 -149 -2 -173 29 -26 78 -22 98 8 23 36 16
152 -11 171 -27 20 -62 17 -85 -6z m69 -14 c7 -9 11 -41 9 -83 -3 -66 -4 -68
-30 -71 -23 -3 -30 2 -39 25 -14 36 -6 122 12 134 20 13 35 11 48 -5z"/>
<path d="M2860 833 c-14 -18 -17 -29 -10 -31 6 -2 18 5 26 17 17 23 44 27 62
9 22 -22 13 -46 -38 -104 -28 -32 -49 -62 -47 -68 2 -6 30 -10 63 -9 77 2 76
1 69 13 -3 6 -26 10 -51 10 -24 0 -44 3 -44 6 0 3 18 26 40 51 63 72 52 133
-24 133 -15 0 -33 -11 -46 -27z"/>
<path d="M3055 790 c-25 -39 -45 -75 -45 -80 0 -6 20 -10 45 -10 41 0 45 -2
45 -25 0 -16 6 -25 15 -25 9 0 15 9 15 25 0 16 6 25 15 25 8 0 15 5 15 10 0 6
-7 10 -15 10 -12 0 -15 14 -15 70 0 92 -15 92 -75 0z m42 -67 c-3 -2 -17 -3
-31 -1 l-26 3 28 45 27 45 3 -44 c2 -23 1 -45 -1 -48z"/>
<path d="M8908 853 c6 -2 18 -2 25 0 6 3 1 5 -13 5 -14 0 -19 -2 -12 -5z"/>
<path d="M8002 810 c0 -14 2 -19 5 -12 2 6 2 18 0 25 -3 6 -5 1 -5 -13z"/>
<path d="M1550 693 c0 -87 3 -114 13 -111 6 3 13 20 15 39 3 33 5 35 36 31 45
-5 66 18 66 72 0 61 -16 77 -78 80 l-52 3 0 -114z m102 62 c18 -41 0 -80 -37
-80 -28 0 -30 3 -33 39 -4 52 3 66 33 66 18 0 29 -8 37 -25z"/>
<path d="M1722 726 c4 -96 22 -109 26 -18 3 57 5 64 29 73 32 12 22 23 -23 25
l-35 1 3 -81z"/>
<path d="M1827 803 c-4 -3 -7 -39 -7 -80 0 -58 3 -73 15 -73 12 0 15 16 15 80
0 73 -6 91 -23 73z"/>
<path d="M7982 680 c0 -14 2 -19 5 -12 2 6 2 18 0 25 -3 6 -5 1 -5 -13z"/>
<path d="M2376 648 c-3 -17 -4 -34 -1 -37 9 -8 25 21 25 47 0 33 -17 27 -24
-10z"/>
<path d="M900 555 c0 -13 157 -15 1350 -15 1193 0 1350 2 1350 15 0 13 -157
15 -1350 15 -1193 0 -1350 -2 -1350 -15z"/>
<path d="M7200 555 c0 -13 157 -15 1350 -15 1193 0 1350 2 1350 15 0 13 -157
15 -1350 15 -1193 0 -1350 -2 -1350 -15z"/>
<path d="M2990 474 c0 -34 -2 -36 -25 -30 -59 15 -98 -52 -71 -119 15 -34 18
-36 54 -34 20 2 42 0 48 -4 20 -12 24 6 24 115 0 89 -3 108 -15 108 -11 0 -15
-11 -15 -36z m-2 -112 c-3 -40 -6 -47 -26 -50 -33 -5 -52 15 -52 54 0 41 33
69 62 53 15 -8 18 -19 16 -57z"/>
<path d="M8890 474 c0 -34 -2 -36 -26 -30 -61 16 -103 -59 -69 -124 14 -28 21
-31 53 -29 21 2 43 0 49 -4 6 -4 14 -4 16 0 7 13 9 187 1 206 -11 29 -24 19
-24 -19z m-5 -109 c0 -45 -2 -50 -23 -53 -31 -5 -52 15 -52 48 0 49 10 61 44
58 30 -3 31 -4 31 -53z"/>
<path d="M9120 400 c0 -91 3 -110 15 -110 12 0 15 19 15 110 0 91 -3 110 -15
110 -12 0 -15 -19 -15 -110z"/>
<path d="M9260 401 l0 -109 57 1 c53 2 59 4 71 30 30 63 -14 136 -72 121 -24
-6 -26 -4 -26 30 0 25 -4 36 -15 36 -12 0 -15 -19 -15 -109z m106 -5 c9 -35 1
-68 -18 -80 -26 -16 -52 4 -56 43 -5 48 4 61 37 61 24 0 32 -5 37 -24z"/>
<path d="M1492 393 l3 -108 35 2 c83 6 110 34 110 113 0 61 -41 100 -105 100
l-46 0 3 -107z m98 67 c14 -14 20 -33 20 -67 0 -57 -20 -83 -67 -83 l-33 0 0
78 c0 43 3 82 7 85 13 14 54 6 73 -13z"/>
<path d="M2180 395 c0 -87 3 -105 15 -105 12 0 15 18 15 105 0 87 -3 105 -15
105 -12 0 -15 -18 -15 -105z"/>
<path d="M7500 493 c-31 -11 -50 -47 -50 -99 0 -70 26 -104 81 -104 47 0 75
24 85 74 16 88 -44 155 -116 129z m70 -33 c25 -25 27 -95 4 -128 -15 -22 -48
-29 -71 -14 -38 24 -37 121 0 147 29 20 43 19 67 -5z"/>
<path d="M8464 488 c-47 -22 -60 -124 -23 -172 28 -35 100 -38 123 -4 9 12 16
26 16 30 0 16 -26 7 -38 -12 -15 -24 -54 -26 -76 -4 -23 23 -22 116 2 137 27
24 59 21 78 -8 18 -28 34 -33 34 -11 0 20 -48 56 -74 55 -11 0 -31 -5 -42 -11z"/>
<path d="M9197 494 c-8 -8 1 -24 14 -24 5 0 9 7 9 15 0 15 -12 20 -23 9z"/>
<path d="M1853 473 c-4 -10 -11 -22 -17 -26 -8 -6 -7 -10 2 -14 7 -3 12 -25
12 -62 0 -31 5 -62 12 -69 15 -15 48 -16 48 -2 0 6 -7 10 -15 10 -12 0 -15 13
-15 60 0 47 3 60 15 60 8 0 15 5 15 10 0 6 -7 10 -15 10 -8 0 -15 6 -15 14 0
23 -19 29 -27 9z"/>
<path d="M1699 431 c-30 -24 -19 -38 14 -17 29 19 57 12 57 -15 0 -15 -7 -19
-34 -19 -32 0 -66 -27 -66 -52 0 -22 35 -38 81 -37 l49 2 0 58 c0 89 -46 125
-101 80z m66 -92 c0 -20 -5 -24 -30 -24 -38 0 -47 31 -13 44 32 13 43 8 43
-20z"/>
<path d="M1966 428 c-73 -64 -11 -166 78 -132 30 12 16 25 -19 18 -37 -7 -65
7 -65 32 0 9 17 14 53 16 49 3 52 5 49 28 -2 26 -35 60 -58 60 -7 0 -24 -10
-38 -22z m71 -31 c-4 -14 -42 -21 -65 -12 -15 6 -14 9 6 26 19 15 28 16 44 8
10 -6 17 -16 15 -22z"/>
<path d="M2283 440 c-15 -6 -23 -18 -23 -34 0 -27 9 -36 55 -51 17 -5 30 -17
30 -25 0 -21 -43 -25 -65 -5 -12 11 -20 13 -25 5 -13 -21 17 -41 58 -38 73 5
77 59 7 83 -40 14 -48 30 -22 44 14 7 25 6 41 -5 31 -22 42 -7 12 17 -26 21
-35 22 -68 9z"/>
<path d="M2432 434 c-36 -25 -25 -56 26 -72 30 -10 42 -19 42 -33 0 -24 -46
-26 -72 -2 -16 14 -18 14 -18 1 0 -25 26 -40 66 -36 70 6 72 60 4 83 -37 13
-50 33 -29 46 9 5 23 2 37 -7 29 -19 47 -14 30 8 -20 26 -59 31 -86 12z"/>
<path d="M2567 443 c-2 -5 -5 -30 -6 -56 -4 -67 19 -99 64 -96 19 2 37 0 41
-4 17 -16 24 10 24 84 0 60 -3 80 -12 77 -8 -3 -15 -30 -18 -69 -5 -63 -5 -64
-35 -64 l-30 0 -3 68 c-3 59 -12 83 -25 60z"/>
<path d="M2754 426 c-34 -28 -38 -84 -9 -116 22 -24 77 -27 96 -4 11 14 9 15
-24 9 -39 -8 -67 5 -67 31 0 9 17 14 53 16 49 3 52 4 49 28 -3 27 -35 60 -58
60 -7 0 -25 -11 -40 -24z m73 -29 c-4 -14 -41 -21 -63 -13 -17 7 -8 34 14 39
23 5 54 -12 49 -26z"/>
<path d="M7647 444 c-3 -4 -2 -14 2 -23 5 -9 14 -42 21 -73 8 -33 19 -58 26
-58 7 0 21 26 32 58 l19 57 18 -57 c10 -32 24 -58 30 -58 12 0 60 148 51 157
-8 9 -26 -8 -27 -25 0 -9 -6 -35 -13 -57 l-13 -40 -18 63 c-10 34 -23 61 -28
59 -6 -2 -18 -24 -26 -49 -9 -26 -19 -49 -22 -52 -3 -4 -11 19 -18 49 -12 52
-19 63 -34 49z"/>
<path d="M7882 368 c4 -98 21 -107 28 -16 5 62 5 63 35 63 30 0 30 -1 33 -60
5 -92 22 -93 22 -2 0 74 -1 78 -26 87 -17 7 -32 7 -44 0 -13 -7 -21 -7 -25 0
-18 29 -26 3 -23 -72z"/>
<path d="M8082 440 c-45 -18 -54 -118 -12 -140 28 -15 76 -12 91 6 11 14 9 15
-24 9 -39 -8 -67 6 -67 31 0 10 14 14 50 14 46 0 50 2 50 23 0 46 -44 74 -88
57z m42 -16 c9 -3 16 -15 16 -25 0 -15 -7 -19 -35 -19 -39 0 -48 21 -17 39 21
13 17 12 36 5z"/>
<path d="M8210 368 c0 -90 18 -106 22 -20 3 48 7 59 26 67 33 15 27 31 -13 31
l-35 0 0 -78z"/>
<path d="M8653 440 c-73 -30 -48 -150 31 -150 44 0 66 26 66 78 0 32 -6 45
-26 61 -29 23 -38 24 -71 11z m69 -45 c24 -53 -26 -109 -68 -75 -17 15 -19 71
-2 88 21 21 57 14 70 -13z"/>
<path d="M8992 440 c-42 -18 -56 -96 -22 -130 24 -24 82 -27 101 -4 11 14 9
15 -24 9 -39 -8 -67 6 -67 31 0 10 14 14 50 14 47 0 50 2 50 25 0 27 -32 65
-52 64 -7 0 -23 -4 -36 -9z m61 -34 c8 -20 -2 -26 -40 -26 -31 0 -44 16 -26
33 12 13 61 7 66 -7z"/>
<path d="M9196 443 c-3 -3 -6 -39 -6 -80 0 -58 3 -73 15 -73 12 0 15 15 15 74
0 69 -8 95 -24 79z"/>
<path d="M9456 429 c-21 -16 -26 -29 -26 -63 0 -63 45 -93 104 -70 30 11 16
23 -20 17 -29 -5 -40 -2 -50 12 -22 30 -17 35 41 35 49 0 55 2 55 20 0 24 -42
70 -63 70 -8 0 -26 -9 -41 -21z m74 -34 c0 -10 -11 -15 -35 -15 -38 0 -48 22
-18 39 21 11 53 -3 53 -24z"/>
<path d="M9590 368 c0 -59 3 -78 13 -78 10 0 14 17 16 56 2 66 5 74 32 74 36
0 14 22 -24 25 l-37 2 0 -79z"/>
<path d="M8286 288 c-3 -17 -4 -34 -1 -37 9 -8 25 21 25 47 0 33 -17 27 -24
-10z"/>
<path d="M0 30 l0 -30 5400 0 5400 0 0 30 0 30 -5400 0 -5400 0 0 -30z"/>
</g>
</svg>
