<?xml version="1.0" standalone="no"?>
<!DOCTYPE svg PUBLIC "-//W3C//DTD SVG 20010904//EN"
 "http://www.w3.org/TR/2001/REC-SVG-20010904/DTD/svg10.dtd">
<svg version="1.0" xmlns="http://www.w3.org/2000/svg"
 width="1080.000000pt" height="708.000000pt" viewBox="0 0 1080.000000 708.000000"
 preserveAspectRatio="xMidYMid meet">

<g transform="translate(0.000000,708.000000) scale(0.100000,-0.100000)"
fill="#000000" stroke="none">
<path d="M10770 3540 c0 -3140 2 -3540 15 -3540 13 0 15 400 15 3540 0 3140
-2 3540 -15 3540 -13 0 -15 -400 -15 -3540z"/>
<path d="M3405 6926 c-213 -50 -408 -179 -524 -349 -48 -70 -98 -182 -122
-272 -30 -113 -31 -288 -1 -405 82 -319 330 -554 656 -621 110 -23 186 -24
298 -4 313 54 558 269 664 580 23 67 28 102 31 215 6 157 -8 240 -59 358 -103
238 -287 401 -547 483 -86 27 -307 36 -396 15z m415 -270 l0 -45 -47 -3 -48
-3 -3 -358 -2 -358 132 3 133 3 3 68 3 67 44 0 45 0 0 -115 0 -115 -227 -2
-228 -3 -5 -77 -5 -77 -58 -65 -58 -66 -152 0 -151 0 -63 62 -63 62 0 326 0
325 61 68 61 67 151 0 151 0 58 -57 59 -58 -3 150 -3 150 -37 -1 -38 -1 0 48
0 49 145 0 145 0 0 -44z"/>
<path d="M3215 6289 l-35 -31 0 -293 0 -293 35 -31 c35 -30 38 -31 133 -31
l98 0 42 43 42 43 0 97 0 97 40 0 40 0 0 120 0 120 -40 0 -40 0 0 51 c0 48 -3
55 -44 95 l-43 44 -96 0 c-93 0 -97 -1 -132 -31z"/>
<path d="M4704 6273 l-34 -37 0 -166 0 -166 38 -37 c36 -36 40 -37 109 -37 71
0 72 0 113 42 36 37 41 47 38 83 -3 37 -5 40 -35 43 -30 3 -33 1 -33 -26 0
-42 -28 -62 -86 -62 -28 0 -55 5 -62 12 -8 8 -12 56 -12 148 0 158 6 170 78
170 49 0 82 -26 82 -65 0 -22 4 -25 35 -25 35 0 35 1 35 43 0 37 -6 48 -38 80
-37 36 -39 37 -116 37 -77 0 -79 0 -112 -37z"/>
<path d="M5110 6243 c-8 -3 -30 -19 -47 -36 l-33 -31 0 -137 0 -137 40 -36
c39 -35 42 -36 120 -36 l79 0 41 42 40 42 0 126 0 125 -36 43 -36 42 -77 -1
c-42 0 -83 -3 -91 -6z m144 -82 c13 -11 16 -35 16 -120 0 -70 -4 -111 -12
-119 -15 -15 -134 -16 -144 -1 -3 6 -8 58 -9 116 -4 127 3 138 82 137 28 0 59
-6 67 -13z"/>
<path d="M5427 6243 c-4 -3 -7 -19 -7 -34 0 -21 5 -28 23 -31 22 -3 22 -6 22
-133 0 -126 -1 -130 -23 -140 -18 -8 -22 -17 -20 -40 l3 -30 129 -3 130 -3 38
38 38 37 0 137 0 137 -40 36 -40 36 -123 0 c-68 0 -127 -3 -130 -7z m246 -82
c10 -10 13 -224 3 -240 -4 -6 -35 -11 -72 -11 l-64 0 0 128 c0 71 3 132 6 135
9 9 116 -1 127 -12z"/>
<path d="M5840 6216 c0 -29 4 -36 20 -36 19 0 20 -7 20 -136 0 -127 -1 -136
-20 -141 -15 -4 -20 -14 -20 -39 l0 -35 153 3 152 3 3 68 3 67 -35 0 c-32 0
-35 -3 -38 -32 -3 -33 -3 -33 -58 -33 l-55 0 0 50 0 50 68 3 c67 3 67 3 67 32
l0 30 -70 0 -70 0 0 55 0 56 58 -3 c56 -3 57 -3 60 -35 3 -30 6 -33 38 -33
l35 0 -3 68 -3 67 -152 3 -153 3 0 -35z"/>
<path d="M6227 6244 c-4 -4 -7 -20 -7 -36 0 -21 5 -28 20 -28 19 0 20 -7 20
-140 0 -135 -1 -140 -21 -140 -17 0 -20 -5 -17 -32 l3 -33 145 0 145 0 3 68 3
67 -35 0 c-32 0 -35 -3 -38 -32 -3 -32 -4 -33 -53 -33 l-50 0 0 135 c0 133 0
135 23 138 19 3 23 9 20 35 l-3 32 -75 3 c-42 1 -79 0 -83 -4z"/>
<path d="M6557 6243 c-4 -3 -7 -19 -7 -35 0 -23 4 -28 25 -28 l26 0 -3 -137
c-3 -136 -3 -138 -26 -141 -19 -3 -23 -9 -20 -35 l3 -32 83 -3 c45 -2 83 1 83
5 7 44 3 58 -18 61 -23 3 -23 6 -23 142 0 132 1 139 20 142 12 2 21 6 20 11 0
4 0 18 0 32 0 25 -1 25 -78 25 -43 0 -82 -3 -85 -7z"/>
<path d="M6800 6216 c0 -25 5 -35 20 -39 19 -5 20 -14 20 -137 0 -123 -1 -132
-20 -137 -15 -4 -20 -14 -20 -39 l0 -34 128 0 128 0 37 38 c33 34 37 43 37 92
0 36 -5 59 -17 72 -14 16 -15 23 -5 38 7 11 12 39 12 63 0 37 -6 48 -38 80
l-38 37 -122 0 -122 0 0 -34z m238 -58 c37 -37 -6 -80 -74 -76 -47 3 -49 4
-51 33 -1 17 0 36 2 43 6 16 107 16 123 0z m10 -160 c16 -16 15 -63 -2 -77 -9
-7 -38 -11 -73 -9 l-58 3 -3 48 -3 47 63 0 c37 0 69 -5 76 -12z"/>
<path d="M7216 6243 c-3 -4 -6 -19 -6 -35 0 -21 5 -28 20 -28 19 0 20 -7 20
-134 0 -127 -1 -135 -21 -141 -16 -5 -19 -14 -17 -38 l3 -32 130 -3 c178 -4
171 -6 174 73 l2 65 -35 0 c-32 0 -35 -3 -38 -32 -3 -33 -4 -33 -61 -36 l-58
-3 3 53 3 53 68 3 c67 3 67 3 67 32 l0 30 -70 0 -70 0 0 55 0 56 58 -3 c56 -3
57 -3 60 -35 3 -30 6 -33 38 -33 l34 0 0 64 c0 46 -4 65 -14 69 -20 8 -282 7
-290 0z"/>
<path d="M7596 6234 c-11 -30 -6 -44 19 -54 l26 -10 -3 -132 c-3 -129 -4 -133
-25 -136 -16 -2 -23 -10 -23 -25 0 -42 13 -48 86 -45 l69 3 3 31 c2 25 -1 33
-18 37 -17 4 -21 12 -18 39 3 31 5 33 38 30 45 -4 68 -34 72 -92 3 -45 3 -45
42 -48 65 -5 86 4 86 38 0 23 -5 30 -19 30 -13 0 -29 16 -45 42 l-25 43 29 30
c27 28 30 37 30 97 0 64 -1 67 -40 102 l-40 36 -119 0 c-99 0 -120 -3 -125
-16z m241 -81 c16 -20 17 -57 3 -84 -9 -15 -22 -19 -70 -19 l-60 0 0 59 c0 37
5 61 12 63 29 10 103 -2 115 -19z"/>
<path d="M1955 4960 c-22 -24 -76 -26 -155 -5 -30 8 -73 15 -96 15 -63 0 -130
-54 -149 -119 -6 -19 2 -14 37 23 36 37 51 46 78 46 l34 0 -41 -42 c-73 -75
-92 -161 -54 -245 63 -137 284 -131 357 9 19 38 12 46 -12 16 -26 -32 -74 -68
-90 -68 -11 0 -14 29 -14 144 l0 143 39 7 c40 6 91 52 91 82 0 19 -3 18 -25
-6z m-225 -174 c0 -68 -3 -131 -6 -140 -16 -41 -68 8 -79 73 -3 21 -1 58 5 82
12 45 54 109 71 109 5 0 9 -52 9 -124z m94 108 c14 -5 16 -29 16 -155 0 -165
-1 -167 -63 -155 -61 12 -65 21 -24 61 l37 36 0 103 c0 114 3 122 34 110z"/>
<path d="M4232 4960 c-15 -25 -72 -26 -152 -5 -63 17 -118 19 -153 6 -32 -12
-74 -58 -86 -93 -12 -35 1 -37 19 -2 17 30 58 54 96 54 25 0 25 -2 -25 -55
-55 -61 -66 -95 -59 -175 6 -56 42 -111 88 -135 97 -50 229 -14 275 76 25 47
17 48 -29 3 -72 -73 -76 -67 -76 101 0 144 0 145 23 145 34 0 86 36 93 65 8
33 2 40 -14 15z m-222 -169 c0 -112 -9 -171 -27 -171 -16 0 -52 66 -58 105 -4
23 -2 60 4 82 11 42 54 103 72 103 5 0 9 -54 9 -119z m94 103 c23 -9 24 -302
1 -310 -18 -7 -74 2 -95 16 -13 9 -11 14 11 33 42 35 49 59 49 166 0 99 3 107
34 95z"/>
<path d="M9025 4960 c-22 -24 -67 -26 -145 -5 -73 20 -127 19 -170 -3 -39 -19
-80 -74 -80 -106 0 -18 3 -17 18 9 26 42 45 55 89 62 l38 6 -46 -50 c-107
-120 -87 -262 46 -324 103 -48 240 9 269 111 7 23 5 22 -19 -8 -30 -36 -80
-66 -95 -57 -6 4 -10 66 -10 146 0 129 1 139 19 139 40 0 79 22 97 55 21 40
15 54 -11 25z m-224 -77 c5 -229 -4 -282 -42 -247 -48 43 -51 165 -6 233 32
48 47 52 48 14z m93 11 c14 -5 16 -29 16 -160 l0 -154 -27 1 c-16 0 -43 6 -62
13 l-35 12 32 29 c40 35 52 77 52 183 0 45 2 82 4 82 2 0 11 -3 20 -6z"/>
<path d="M898 4923 l-58 -46 0 -83 c0 -119 -17 -148 -46 -79 -30 73 -18 129
45 199 l26 30 -35 -21 c-80 -48 -116 -145 -91 -240 32 -117 166 -176 278 -122
36 17 83 64 83 82 0 2 -21 -6 -47 -19 -25 -13 -59 -24 -75 -24 l-28 0 0 90 0
90 50 0 c45 0 51 3 65 30 l16 30 -31 0 c-39 0 -38 8 5 50 19 19 35 36 35 40 0
3 -21 11 -47 17 -27 7 -57 15 -68 17 -14 4 -38 -9 -77 -41z m33 -164 c0 -83
-3 -154 -5 -157 -8 -8 -63 18 -82 39 -17 19 -16 21 17 55 33 34 34 39 38 122
3 74 14 112 29 97 2 -2 3 -72 3 -156z m97 127 c1 -2 -16 -22 -38 -46 l-40 -43
0 61 0 61 38 -16 c20 -8 38 -16 40 -17z"/>
<path d="M1159 4950 l-24 -20 31 6 c24 5 37 1 53 -15 36 -36 27 -67 -29 -103
-53 -35 -62 -53 -31 -63 32 -10 81 -73 81 -104 0 -23 -5 -30 -27 -34 -16 -3
-44 -20 -63 -37 -22 -20 -28 -29 -15 -24 44 15 144 16 188 1 45 -15 45 -15 81
15 21 17 35 33 32 36 -3 2 -13 -1 -21 -8 -12 -10 -21 -10 -41 -1 -23 10 -25
15 -22 73 2 34 8 63 14 65 24 8 74 -49 95 -107 12 -33 29 -66 38 -74 14 -13
20 -11 51 15 27 24 30 29 13 24 -23 -6 -43 20 -57 78 -4 15 -23 46 -44 69
l-37 41 25 16 c66 44 66 40 15 108 -28 38 -52 60 -58 56 -7 -3 -31 -19 -54
-35 -48 -32 -53 -34 -53 -13 0 50 -95 74 -141 35z m261 -81 l34 -51 -24 -18
c-13 -10 -36 -25 -52 -34 l-28 -17 0 79 c0 112 15 121 70 41z m-80 -114 c0
-128 -1 -135 -20 -135 -19 0 -20 7 -20 128 0 130 2 142 27 142 10 0 13 -29 13
-135z m-100 34 l0 -40 -30 21 -30 22 22 18 c33 28 38 25 38 -21z"/>
<path d="M2031 4945 c-21 -28 -21 -49 1 -27 14 14 128 16 128 3 0 -6 -4 -13
-10 -16 -5 -3 -17 -31 -26 -61 -11 -40 -20 -54 -34 -54 -10 0 -28 -9 -41 -21
l-24 -20 28 6 c40 8 77 -31 77 -83 0 -46 -11 -57 -64 -66 -21 -4 -49 -19 -63
-32 -26 -26 -25 -46 2 -24 16 13 54 10 127 -11 56 -16 92 -6 120 32 28 37 33
96 18 227 l-13 116 27 23 c24 20 25 23 8 23 -32 0 -70 -47 -78 -95 -3 -24 -1
-81 5 -126 20 -149 13 -189 -32 -189 -10 0 -32 9 -48 21 l-30 21 33 17 33 16
0 141 c0 125 2 144 19 163 11 12 17 23 15 25 -2 2 -38 7 -80 11 -75 7 -76 7
-98 -20z"/>
<path d="M2710 4955 c-15 -18 -33 -19 -78 -2 -29 10 -36 10 -40 -2 -5 -15 -98
-61 -124 -61 -12 0 -18 -8 -18 -25 0 -20 -6 -25 -35 -31 -21 -4 -45 -18 -60
-36 -30 -35 -26 -47 7 -24 12 9 37 16 55 16 l33 0 0 -130 c0 -144 -4 -152 -56
-125 -16 8 -34 15 -40 15 -19 0 -64 -40 -64 -57 0 -13 3 -13 15 -3 13 11 23
11 54 0 36 -12 43 -10 123 28 47 21 92 50 101 63 13 18 17 46 17 121 l0 98 34
0 c22 0 36 6 40 16 9 24 -2 34 -40 34 -30 0 -34 3 -34 26 0 24 2 25 40 19 34
-6 43 -3 65 19 14 14 25 32 25 41 0 19 -4 19 -20 0z m-160 -190 c0 -138 -14
-192 -56 -220 l-25 -16 17 33 c13 25 18 66 21 168 5 152 6 160 28 160 13 0 15
-19 15 -125z"/>
<path d="M2766 4947 c-30 -30 -37 -60 -8 -34 13 12 37 17 76 17 l57 0 -18 -32
c-9 -18 -19 -48 -22 -67 -5 -28 -12 -36 -37 -43 -17 -4 -38 -15 -45 -25 -13
-15 -11 -16 14 -9 43 10 79 -31 75 -86 -3 -44 -9 -50 -77 -70 -24 -7 -50 -23
-58 -35 -14 -22 -14 -22 16 -10 24 9 41 8 78 -2 80 -23 111 -25 139 -6 53 34
63 98 42 255 -13 99 -7 137 25 150 18 7 19 9 4 9 -33 2 -55 -18 -72 -64 -16
-40 -16 -56 -5 -157 16 -144 13 -170 -21 -182 -21 -7 -33 -4 -58 14 l-32 22
33 17 33 16 0 142 c0 136 1 142 24 167 l24 26 -35 0 c-19 0 -56 3 -81 6 -40 6
-49 3 -71 -19z"/>
<path d="M3559 4962 c-56 -25 -99 -85 -99 -140 0 -40 13 -66 50 -107 l28 -30
-39 -60 c-40 -60 -46 -90 -19 -90 10 0 14 8 12 28 -4 35 9 34 77 -3 52 -29 55
-29 80 -14 14 9 36 26 48 36 24 22 43 17 43 -11 0 -10 7 -24 15 -31 12 -10 21
-8 50 14 36 28 45 42 21 33 -27 -11 -33 18 -41 172 -6 150 -6 154 16 177 26
27 15 32 -19 8 -22 -15 -27 -14 -72 5 -47 20 -119 27 -151 13z m105 -48 c9 -3
16 -12 16 -20 0 -10 -13 -14 -45 -14 -45 0 -85 -24 -85 -52 0 -9 3 -9 12 0 15
15 68 16 68 2 0 -19 -73 -120 -86 -120 -18 0 -51 46 -59 81 -15 67 44 129 122
129 23 0 48 -3 57 -6z m51 -36 c2 -7 6 -46 10 -85 l6 -73 -75 0 -76 0 56 85
c56 84 71 97 79 73z m15 -232 c0 -16 -11 -32 -31 -47 l-30 -21 -67 27 c-81 34
-76 31 -69 50 5 12 25 15 102 15 94 0 95 0 95 -24z"/>
<path d="M4448 4923 l-58 -46 0 -86 c0 -47 -5 -93 -10 -101 -26 -41 -63 76
-46 145 4 14 23 44 44 67 l37 42 -35 -21 c-115 -70 -135 -240 -38 -330 53 -50
145 -67 211 -39 33 14 97 71 97 86 0 5 -21 -2 -47 -16 -28 -15 -60 -24 -78
-22 l-30 3 -3 88 -4 87 56 0 c44 0 57 4 66 19 16 31 12 41 -15 41 -33 0 -32
10 10 50 19 19 35 37 35 40 0 4 -21 12 -47 18 -27 6 -57 14 -68 17 -14 3 -38
-10 -77 -42z m32 -163 c0 -105 -4 -160 -10 -160 -17 0 -65 27 -80 45 -11 14
-9 21 20 50 31 32 34 39 37 117 5 93 8 108 23 108 6 0 10 -57 10 -160z m83
106 c-22 -25 -56 -55 -63 -56 -7 0 -11 91 -4 101 2 4 22 0 44 -8 39 -16 40
-17 23 -37z"/>
<path d="M7443 4958 c-32 -16 -28 -29 6 -22 22 5 32 1 45 -17 27 -39 21 -75
-17 -98 -45 -27 -75 -61 -56 -61 8 0 30 -12 48 -27 24 -21 34 -39 38 -70 4
-33 2 -43 -9 -43 -19 0 -108 -57 -108 -69 0 -6 18 -4 41 4 71 25 78 22 81 -37
l3 -53 53 -3 52 -3 0 55 c0 31 1 56 3 56 2 0 27 -7 56 -16 l53 -16 37 34 c52
48 51 44 51 157 0 124 -17 170 -80 214 l-40 28 -34 -20 c-41 -25 -43 -26 -49
-3 -3 11 -5 8 -6 -9 0 -15 -8 -32 -16 -39 -13 -11 -17 -8 -26 19 -6 17 -19 36
-29 41 -24 13 -69 12 -97 -2z m265 -65 c39 -29 58 -69 42 -89 -17 -20 -68 -27
-101 -14 -27 12 -29 16 -29 66 0 40 4 55 17 63 19 10 23 9 71 -26z m-100 -210
c-2 -154 -6 -207 -15 -211 -10 -3 -13 42 -13 201 0 112 3 207 7 210 20 20 23
-12 21 -200z m-98 102 l0 -36 -24 18 c-22 17 -23 19 -9 36 24 26 33 21 33 -18z
m250 -36 l0 -40 -42 6 c-24 4 -55 2 -70 -4 -28 -10 -28 -10 -28 29 l0 40 44
-6 c25 -4 52 -2 62 5 30 17 34 13 34 -30z m-13 -60 c13 -11 19 -80 7 -92 -3
-3 -16 -2 -27 3 -12 5 -41 14 -64 20 -38 10 -43 14 -43 40 0 22 6 31 28 39 30
11 78 7 99 -10z"/>
<path d="M7877 4952 c-10 -10 -17 -29 -16 -43 l0 -24 9 23 c9 21 14 22 67 16
32 -4 59 -8 61 -10 2 -1 -3 -13 -11 -26 -9 -12 -19 -39 -22 -59 -6 -30 -12
-38 -36 -43 -34 -7 -39 -26 -6 -26 25 0 47 -17 47 -36 0 -8 -11 -12 -26 -11
-15 1 -29 -4 -31 -11 -3 -7 1 -10 9 -7 8 3 23 -4 33 -15 17 -19 18 -22 2 -55
-9 -19 -28 -42 -42 -51 -41 -27 -29 -33 25 -13 66 25 145 25 195 -1 l39 -20
33 32 c31 30 39 54 10 30 -10 -9 -23 -7 -53 9 -30 15 -51 19 -87 15 l-48 -5
36 41 c45 53 56 94 48 183 -6 75 -5 76 42 110 20 14 20 14 -3 15 -34 0 -80
-27 -88 -52 -4 -13 -8 -68 -8 -124 -1 -95 -3 -103 -30 -138 -32 -43 -45 -42
-22 3 12 22 16 60 16 144 0 101 2 116 20 132 27 25 25 36 -4 25 -15 -5 -37 -5
-58 1 -50 14 -83 11 -101 -9z"/>
<path d="M8418 4922 l-58 -47 0 -82 c0 -118 -17 -147 -46 -78 -28 68 -13 135
45 199 l26 30 -30 -19 c-140 -87 -137 -287 4 -362 75 -39 158 -28 229 31 49
42 41 58 -15 30 -25 -13 -59 -24 -75 -24 l-28 0 0 90 0 90 50 0 c45 0 51 3 65
30 l16 30 -31 0 c-16 0 -30 3 -30 8 1 4 18 25 40 46 l39 40 -67 17 c-37 10
-69 18 -72 18 -3 0 -31 -21 -62 -47z m37 -159 c0 -169 -2 -175 -53 -149 -56
29 -58 41 -18 86 35 39 36 42 36 124 0 79 4 91 30 95 3 1 6 -70 5 -156z m95
118 c0 -4 -18 -25 -40 -46 l-40 -39 0 61 0 61 40 -15 c22 -9 40 -19 40 -22z"/>
<path d="M9104 4945 c-28 -28 -34 -57 -6 -32 13 12 37 17 75 17 57 0 67 -6 46
-27 -7 -7 -17 -33 -24 -60 -10 -40 -17 -48 -42 -55 -17 -4 -37 -15 -44 -25
-13 -15 -11 -16 15 -11 42 8 76 -28 76 -80 0 -46 -11 -58 -64 -68 -22 -4 -51
-18 -64 -31 -25 -26 -23 -45 3 -23 16 13 54 10 127 -11 56 -16 92 -6 120 32
28 37 33 96 18 227 l-13 116 27 23 c24 20 25 23 7 23 -26 0 -67 -51 -75 -94
-4 -20 -2 -71 4 -114 21 -157 14 -202 -32 -202 -11 0 -33 9 -49 21 l-30 21 33
17 33 16 -3 130 c-3 126 -2 132 22 168 14 21 26 39 26 40 0 1 -36 3 -81 4 -73
3 -82 1 -105 -22z"/>
<path d="M10073 4925 c-81 -38 -93 -47 -93 -69 0 -23 -4 -25 -40 -23 -22 1
-45 -4 -52 -11 -9 -9 -6 -12 18 -12 35 0 47 -8 63 -37 16 -31 16 -31 -33 -26
-26 3 -46 1 -50 -6 -5 -7 3 -11 21 -11 32 0 73 -25 73 -44 0 -8 -9 -12 -22 -9
-13 2 -32 -3 -43 -12 -20 -16 -19 -16 6 -11 32 7 79 -26 79 -54 0 -37 -25 -48
-92 -43 -58 5 -65 3 -87 -21 l-25 -26 32 6 c18 4 59 1 91 -6 53 -11 63 -10 98
6 48 24 63 54 63 127 0 57 1 58 35 73 44 18 69 18 106 -1 l30 -16 -52 -95
c-28 -52 -49 -98 -46 -100 3 -3 17 7 31 21 23 23 34 26 77 23 49 -3 50 -2 75
40 14 23 21 42 15 42 -5 0 -14 -6 -18 -14 -7 -12 -113 -30 -113 -18 0 2 13 21
29 41 73 92 96 194 58 252 -18 26 -103 79 -128 79 -8 0 -56 -20 -106 -45z
m137 -32 c16 -9 34 -27 41 -40 11 -20 10 -25 -7 -38 -31 -23 -81 -29 -122 -13
-35 13 -37 17 -40 61 l-3 47 51 0 c31 0 64 -7 80 -17z m-140 -146 c0 -122 -3
-157 -16 -175 -8 -12 -22 -22 -30 -22 -13 0 -13 3 0 22 13 18 16 53 16 169 0
80 3 149 7 152 19 20 23 -6 23 -146z m109 36 c25 2 56 8 69 12 19 6 22 4 22
-21 0 -47 -11 -56 -49 -43 -19 7 -55 9 -87 5 l-54 -6 0 28 c0 37 8 44 32 31
11 -6 41 -9 67 -6z"/>
<path d="M501 4910 l-61 -51 0 -88 c0 -63 -4 -92 -14 -100 -11 -9 -16 -6 -24
16 -32 80 -20 148 35 206 31 32 17 36 -21 6 -106 -83 -104 -264 4 -335 80 -53
184 -39 254 34 20 20 36 39 36 43 0 3 -25 -7 -56 -23 -31 -15 -67 -28 -80 -28
l-24 0 0 160 0 159 45 -17 c44 -16 45 -16 70 8 l26 25 -58 17 c-32 10 -61 18
-65 18 -4 0 -34 -23 -67 -50z m39 -161 l0 -161 -27 7 c-23 5 -83 41 -83 49 0
2 16 20 35 40 34 37 35 39 35 120 0 76 9 106 32 106 4 0 8 -72 8 -161z"/>
<path d="M3228 4909 l-58 -51 0 -88 c0 -92 -11 -119 -36 -85 -38 52 -28 139
23 196 52 58 32 60 -26 3 -79 -80 -93 -183 -34 -268 74 -107 217 -113 312 -12
41 42 34 45 -33 11 -27 -14 -60 -25 -72 -25 -23 0 -23 2 -26 146 -2 80 0 150
3 156 4 6 21 5 48 -3 40 -12 43 -11 68 13 l25 26 -48 12 c-27 6 -58 13 -69 16
-14 3 -38 -11 -77 -47z m33 -160 c-1 -85 -3 -155 -5 -157 -7 -7 -71 25 -86 43
-13 15 -12 19 6 34 44 36 54 63 54 141 0 45 5 81 12 88 6 6 14 10 16 8 2 -3 3
-73 3 -157z"/>
<path d="M5030 4901 c-106 -67 -118 -85 -119 -181 -2 -143 125 -227 257 -170
61 26 144 111 162 166 16 47 7 119 -17 153 -31 42 -101 83 -147 88 -36 3 -52
-4 -136 -56z m78 -156 l2 -168 -32 7 c-18 4 -42 15 -52 26 -19 19 -19 19 7 40
35 27 47 75 47 183 0 67 3 88 13 85 9 -4 13 -49 15 -173z m88 143 c24 -12 51
-32 59 -45 14 -21 13 -23 -14 -38 -38 -19 -54 -19 -91 0 -26 14 -30 21 -30 60
0 53 10 56 76 23z m-176 -116 c0 -67 -4 -104 -14 -117 -13 -18 -14 -18 -26 5
-23 43 -30 93 -19 135 11 40 34 75 51 75 4 0 8 -44 8 -98z m180 14 c19 1 45 4
58 9 21 7 22 5 22 -40 0 -41 -2 -46 -17 -40 -62 25 -72 26 -107 11 l-36 -15 0
45 c0 43 1 45 23 37 12 -4 38 -7 57 -7z m50 -84 c19 -15 21 -22 12 -39 -21
-38 -81 -83 -112 -83 -29 0 -30 1 -30 52 0 34 6 58 17 70 21 24 84 24 113 0z"/>
<path d="M5629 4944 c-16 -20 -93 -54 -120 -54 -14 0 -19 -7 -19 -25 0 -20 -6
-25 -35 -31 -20 -3 -44 -17 -55 -31 -27 -35 -25 -49 5 -29 13 9 38 16 55 16
l30 0 0 -135 c0 -74 -3 -135 -7 -135 -4 0 -27 7 -50 16 -39 15 -44 15 -68 0
-14 -9 -25 -26 -25 -37 0 -18 2 -19 15 -9 13 11 23 11 54 0 35 -11 42 -10 117
28 113 57 118 63 122 183 l4 99 28 0 c16 0 30 7 34 16 9 24 -1 32 -34 30 -27
-2 -30 1 -30 26 0 27 2 29 33 23 25 -5 39 -1 60 15 36 29 37 54 2 38 -20 -9
-34 -9 -59 0 -41 15 -41 15 -57 -4z m-39 -193 c0 -127 -2 -141 -22 -171 -33
-48 -52 -51 -33 -6 11 25 15 74 15 169 0 74 3 137 7 140 3 4 12 7 20 7 10 0
13 -30 13 -139z"/>
<path d="M6168 4912 l-57 -47 0 -86 c-1 -57 -6 -91 -15 -105 -14 -18 -15 -17
-30 18 -32 75 -16 146 48 217 20 22 20 23 1 13 -11 -6 -34 -25 -52 -44 -104
-108 -74 -277 59 -333 72 -30 148 -13 210 46 48 45 46 59 -4 29 -19 -11 -53
-21 -74 -23 l-39 -2 -3 145 c-1 79 -1 149 2 156 3 9 16 8 50 -4 44 -16 45 -16
71 8 l26 24 -63 18 c-35 9 -65 17 -68 18 -3 0 -31 -22 -62 -48z m28 -320 c-8
-7 -96 39 -96 51 0 6 15 26 32 44 30 31 33 40 36 111 2 42 8 88 15 101 10 20
12 -4 15 -139 1 -89 0 -165 -2 -168z"/>
<path d="M6517 4902 c-88 -52 -98 -61 -109 -97 -71 -238 163 -368 339 -188 88
90 104 188 43 266 -25 31 -115 77 -149 77 -15 -1 -70 -27 -124 -58z m83 -158
c0 -182 2 -178 -65 -150 -43 18 -43 29 -5 73 29 33 30 36 30 138 0 99 7 122
33 108 4 -2 7 -78 7 -169z m75 147 c22 -10 49 -28 60 -41 l20 -22 -25 -20
c-18 -15 -34 -18 -58 -14 -49 8 -62 23 -62 72 0 50 6 52 65 25z m-180 -228
c-8 -34 -21 -28 -39 17 -26 65 -18 129 22 174 16 17 17 13 20 -75 2 -52 0
-104 -3 -116z m172 120 c12 -3 37 0 54 6 37 13 49 3 49 -41 0 -36 -13 -42 -51
-23 -29 15 -51 15 -93 -1 -13 -5 -16 2 -16 36 0 36 2 41 18 35 9 -4 27 -10 39
-12z m66 -77 c9 -7 17 -20 17 -28 0 -38 -74 -98 -120 -98 -18 0 -20 6 -20 56
0 66 15 83 70 83 19 0 43 -6 53 -13z"/>
<path d="M7060 4929 c-88 -48 -130 -98 -130 -154 0 -19 -8 -29 -35 -42 -19 -9
-36 -22 -39 -30 -7 -16 6 -17 21 -2 18 18 59 -14 73 -56 16 -47 -5 -80 -59
-95 -38 -10 -51 -25 -51 -58 0 -12 3 -13 12 -4 7 7 32 12 55 12 49 0 97 21
107 45 3 9 6 55 6 101 l0 85 43 -3 c41 -3 42 -4 45 -41 2 -22 -2 -53 -8 -70
-10 -29 -8 -34 20 -60 l30 -28 52 43 c38 31 47 44 35 46 -22 5 -24 93 -2 126
14 21 14 24 0 29 -11 5 -15 23 -15 77 0 73 7 83 42 57 14 -11 17 -38 20 -180
3 -140 6 -169 20 -183 16 -16 19 -16 52 7 39 26 46 42 19 37 -17 -3 -18 10
-18 157 0 88 4 169 9 180 9 18 8 19 -8 6 -15 -12 -21 -11 -46 7 -16 12 -33 22
-38 22 -5 0 -30 -16 -56 -36 -41 -31 -47 -33 -53 -17 -7 20 -33 53 -42 53 -3
0 -31 -14 -61 -31z m39 -38 c7 -15 11 -48 9 -72 -3 -42 -5 -44 -35 -47 -18 -2
-33 -7 -33 -13 0 -5 -5 -9 -11 -9 -8 0 -10 20 -6 65 7 95 51 138 76 76z m111
-56 c0 -58 -2 -65 -20 -65 -18 0 -20 7 -20 55 0 41 4 56 18 64 9 6 18 11 20
11 1 0 2 -29 2 -65z m-198 -107 c-2 -87 -8 -158 -14 -165 -6 -7 -20 -13 -31
-13 -20 0 -20 0 -1 21 16 18 20 40 22 153 3 106 11 156 26 156 0 0 0 -69 -2
-152z m198 -69 c0 -62 -2 -70 -17 -67 -15 3 -19 16 -21 71 -3 62 -1 67 18 67
18 0 20 -6 20 -71z"/>
<path d="M9530 4902 c-108 -65 -123 -86 -124 -177 -2 -119 66 -190 178 -189
74 0 114 19 178 86 110 114 96 247 -33 312 -29 14 -65 26 -79 26 -14 0 -68
-26 -120 -58z m78 -150 c2 -142 0 -163 -14 -169 -19 -7 -84 22 -84 38 0 6 14
27 30 46 29 33 30 36 30 144 0 100 2 110 18 107 15 -3 17 -20 20 -166z m69
143 c49 -21 71 -42 89 -84 15 -35 19 -93 7 -104 -3 -4 -15 1 -25 10 -20 18
-69 22 -105 10 -22 -8 -23 -6 -23 33 0 37 2 41 18 34 27 -13 100 -10 114 5 11
12 10 13 -7 5 -30 -12 -91 -10 -109 5 -18 15 -23 101 -6 101 6 0 27 -7 47 -15z
m-175 -242 c-22 -38 -63 81 -48 140 3 13 16 37 28 53 l23 29 3 -103 c1 -56 -1
-110 -6 -119z m241 53 c9 -7 17 -20 17 -28 0 -38 -74 -98 -120 -98 -18 0 -20
6 -20 60 0 46 4 61 18 69 24 15 84 13 105 -3z"/>
<path d="M3320 4129 c0 -108 3 -140 13 -137 8 3 13 30 15 76 3 63 6 74 27 88
18 12 28 13 44 4 19 -9 21 -20 21 -91 0 -60 3 -80 13 -77 20 7 22 144 1 175
-14 23 -21 25 -60 19 l-44 -6 0 45 c0 33 -4 45 -15 45 -13 0 -15 -22 -15 -141z"/>
<path d="M4008 4228 l-3 -43 -38 3 c-59 6 -87 -26 -87 -95 0 -72 24 -97 86
-90 26 2 45 0 47 -6 2 -6 8 -7 14 -4 16 10 12 269 -4 274 -8 3 -13 -11 -15
-39z m-18 -78 c36 -36 16 -130 -27 -130 -50 0 -73 90 -33 130 11 11 25 20 30
20 6 0 19 -9 30 -20z"/>
<path d="M6352 4257 c-6 -6 -13 -24 -17 -40 -4 -15 -14 -27 -24 -27 -15 -1
-15 -2 1 -13 12 -10 17 -33 20 -97 2 -55 7 -85 16 -88 9 -3 12 18 12 83 0 78
2 87 20 92 11 3 20 9 20 13 0 4 -9 10 -20 13 -44 11 -4 62 41 52 22 -5 29 -3
29 9 0 12 -11 16 -44 16 -24 0 -48 -6 -54 -13z"/>
<path d="M7112 4133 c2 -98 6 -138 16 -141 9 -3 12 16 12 72 0 68 2 77 24 91
47 31 64 7 68 -99 2 -37 8 -61 16 -64 9 -3 12 18 12 81 0 103 -15 124 -80 113
l-40 -6 0 45 c0 34 -4 45 -15 45 -13 0 -15 -20 -13 -137z"/>
<path d="M3090 4245 c0 -11 11 -15 40 -15 l39 0 3 -117 c2 -82 7 -118 16 -121
9 -3 12 25 12 117 l0 121 40 0 c29 0 40 4 40 15 0 12 -17 15 -95 15 -78 0 -95
-3 -95 -15z"/>
<path d="M3523 4245 c-7 -20 2 -29 21 -22 9 4 13 13 10 22 -8 19 -23 19 -31 0z"/>
<path d="M6246 4253 c-12 -12 -6 -33 9 -33 8 0 15 6 15 14 0 17 -14 28 -24 19z"/>
<path d="M5410 4219 c0 -12 -8 -23 -20 -26 -25 -7 -26 -19 0 -26 17 -4 20 -15
22 -83 3 -78 3 -79 31 -82 29 -4 37 12 12 22 -11 4 -15 22 -15 76 0 56 3 70
15 70 8 0 15 5 15 10 0 6 -7 10 -15 10 -9 0 -15 9 -15 25 0 16 -6 25 -15 25
-9 0 -15 -9 -15 -21z"/>
<path d="M6130 4219 c0 -12 -8 -23 -20 -26 -11 -3 -20 -9 -20 -14 0 -5 9 -9
20 -9 18 0 20 -7 20 -72 0 -77 6 -95 30 -98 41 -6 57 13 20 23 -18 4 -20 14
-20 75 0 63 2 70 23 77 l22 8 -22 4 c-16 3 -23 11 -23 29 0 15 -6 24 -15 24
-9 0 -15 -9 -15 -21z"/>
<path d="M7010 4219 c0 -12 -8 -23 -20 -26 -11 -3 -20 -9 -20 -13 0 -4 9 -10
20 -13 18 -5 20 -14 20 -81 0 -66 2 -77 21 -87 28 -15 54 7 27 22 -24 14 -27
149 -3 149 8 0 15 5 15 10 0 6 -7 10 -15 10 -14 0 -19 11 -16 38 1 6 -5 12
-14 12 -9 0 -15 -9 -15 -21z"/>
<path d="M7520 4216 c0 -18 -7 -26 -22 -29 l-23 -4 23 -8 c20 -7 22 -13 22
-86 0 -73 2 -80 23 -88 23 -9 47 -4 47 9 0 4 -9 10 -20 13 -18 5 -20 14 -20
76 0 64 2 71 20 71 11 0 20 5 20 10 0 6 -9 10 -20 10 -15 0 -20 7 -20 25 0 16
-6 25 -15 25 -9 0 -15 -9 -15 -24z"/>
<path d="M3522 4093 c2 -66 7 -98 16 -101 9 -3 12 21 12 97 0 84 -3 101 -15
101 -13 0 -15 -15 -13 -97z"/>
<path d="M3626 4171 c-29 -32 -17 -63 31 -81 57 -21 70 -35 53 -55 -18 -21
-57 -19 -72 5 -12 19 -38 28 -38 12 0 -4 7 -18 16 -30 31 -44 134 -21 134 30
0 21 -28 43 -72 58 -40 12 -52 42 -22 54 25 10 32 7 54 -16 14 -16 23 -19 31
-11 8 8 5 17 -10 32 -27 27 -82 28 -105 2z"/>
<path d="M4110 4170 c-38 -38 -38 -120 -1 -154 24 -22 73 -23 105 -3 44 29 47
131 3 162 -30 21 -83 19 -107 -5z m90 -20 c40 -40 15 -130 -35 -130 -50 0 -75
90 -35 130 11 11 27 20 35 20 8 0 24 -9 35 -20z"/>
<path d="M4315 4165 c-55 -54 -20 -165 53 -167 33 -1 72 25 72 49 0 20 -18 16
-30 -7 -13 -25 -52 -26 -73 -2 -35 38 -11 132 33 132 10 0 27 -11 38 -25 24
-30 32 -31 32 -6 0 49 -85 67 -125 26z"/>
<path d="M4481 4128 c1 -35 4 -74 8 -88 9 -33 45 -50 82 -40 17 5 31 5 34 -1
17 -27 25 1 25 91 0 81 -3 100 -15 100 -11 0 -15 -18 -17 -77 -3 -75 -4 -78
-31 -87 -40 -14 -51 3 -54 87 -1 56 -5 73 -17 75 -13 3 -16 -7 -15 -60z"/>
<path d="M4690 4087 c0 -74 3 -98 13 -95 8 3 13 31 15 82 3 70 5 78 27 88 40
18 54 -3 57 -90 2 -49 7 -77 16 -80 9 -3 12 15 12 67 0 58 4 75 20 91 23 23
30 24 53 8 12 -10 17 -32 19 -87 2 -49 7 -76 16 -79 20 -6 17 162 -4 182 -18
18 -75 21 -91 5 -8 -8 -17 -8 -30 0 -11 5 -43 9 -71 9 l-52 -1 0 -100z"/>
<path d="M5023 4168 c-11 -13 -23 -36 -27 -52 -9 -36 10 -93 34 -106 27 -14
83 -12 106 4 26 19 10 32 -21 18 -35 -16 -51 -15 -69 4 -24 23 -21 53 4 47 11
-3 40 -2 64 1 l44 7 -9 37 c-4 20 -16 42 -25 49 -28 21 -78 16 -101 -9z m81
-14 c30 -29 20 -44 -29 -44 -32 0 -45 4 -45 14 0 18 27 46 45 46 7 0 21 -7 29
-16z"/>
<path d="M5194 4177 c-3 -8 -4 -52 -2 -98 2 -67 6 -84 18 -84 12 0 16 17 18
78 3 71 5 79 27 89 40 18 54 -3 57 -90 2 -49 7 -77 16 -80 17 -5 17 169 0 186
-15 15 -70 16 -85 1 -8 -8 -13 -8 -17 0 -10 15 -26 14 -32 -2z"/>
<path d="M5622 4168 c-28 -31 -36 -70 -22 -113 13 -41 35 -55 83 -55 33 0 67
24 67 48 0 19 -20 14 -40 -10 -15 -19 -22 -21 -46 -13 -26 9 -29 16 -32 59 -5
78 37 110 82 61 28 -30 36 -31 36 -6 0 48 -90 68 -128 29z"/>
<path d="M5823 4175 c-26 -19 -47 -77 -38 -107 14 -44 45 -68 91 -68 25 0 47
6 54 15 17 21 4 32 -20 17 -28 -17 -54 -15 -73 6 -33 36 -22 48 42 47 33 0 62
3 66 7 11 11 -15 77 -35 88 -27 14 -62 12 -87 -5z m68 -15 c10 -6 19 -20 19
-30 0 -17 -7 -20 -45 -20 -49 0 -56 11 -28 42 19 21 27 22 54 8z"/>
<path d="M5987 4181 c-5 -12 0 -181 6 -187 16 -17 27 14 27 81 0 72 0 73 30
84 17 5 30 14 30 20 0 10 -89 12 -93 2z"/>
<path d="M6240 4089 c0 -76 3 -100 13 -97 8 3 13 35 15 101 2 82 0 97 -13 97
-12 0 -15 -17 -15 -101z"/>
<path d="M6440 4089 c0 -76 3 -100 13 -97 8 3 13 35 15 101 2 82 0 97 -13 97
-12 0 -15 -17 -15 -101z"/>
<path d="M6545 4165 c-20 -19 -25 -34 -25 -73 0 -57 29 -93 77 -94 32 -1 73
17 73 32 0 13 -27 13 -35 0 -17 -27 -85 4 -85 38 0 11 30 17 55 12 5 -1 24 1
43 5 31 6 33 9 27 33 -3 15 -13 37 -21 50 -20 31 -77 30 -109 -3z m83 -7 c7
-7 12 -20 12 -30 0 -15 -8 -18 -45 -18 -49 0 -56 11 -28 42 19 21 44 23 61 6z"/>
<path d="M6736 4177 c-12 -9 -17 -23 -14 -42 2 -24 10 -32 45 -45 57 -21 70
-35 53 -55 -18 -21 -57 -19 -72 5 -15 23 -38 27 -38 7 0 -25 38 -49 75 -49 39
0 75 25 75 52 0 23 -27 45 -72 60 -42 13 -52 44 -19 55 20 6 51 -3 51 -15 0
-12 29 -20 35 -10 3 5 -3 18 -15 30 -23 23 -77 27 -104 7z"/>
<path d="M7327 4172 c-10 -10 -17 -22 -17 -25 0 -13 23 -7 41 9 24 21 69 11
69 -15 0 -14 -10 -20 -44 -25 -50 -8 -68 -24 -68 -61 0 -44 18 -55 89 -53 l65
2 -6 29 c-3 16 -6 51 -6 78 0 30 -6 53 -16 63 -22 22 -87 21 -107 -2z m93
-107 c0 -28 -31 -49 -60 -40 -12 4 -20 15 -20 29 0 30 7 36 47 36 28 0 33 -3
33 -25z"/>
<path d="M2373 3755 c-27 -31 -54 -32 -176 -4 -56 12 -106 18 -127 14 -52 -9
-107 -50 -130 -96 -27 -52 -21 -74 8 -28 23 38 48 54 100 64 42 9 41 -3 -7
-49 -58 -57 -85 -125 -78 -200 7 -79 43 -131 117 -169 48 -25 62 -28 114 -23
94 9 181 73 200 146 7 24 6 24 -21 -6 -27 -30 -89 -74 -105 -74 -5 0 -8 76 -8
169 l0 168 43 6 c46 6 97 52 97 87 0 25 0 25 -27 -5z m-253 -203 c0 -116 -3
-152 -15 -168 -15 -19 -16 -18 -40 9 -52 59 -57 163 -10 243 21 35 47 62 63
64 1 0 2 -67 2 -148z m120 -52 l0 -180 -30 0 c-17 0 -47 7 -67 15 l-36 15 42
45 41 45 0 120 0 120 25 0 25 0 0 -180z"/>
<path d="M5193 3769 c-29 -11 -53 -60 -52 -106 1 -37 1 -37 9 -10 15 51 27 57
104 57 l71 0 -40 -32 c-71 -59 -95 -91 -112 -147 -13 -46 -14 -65 -5 -110 33
-155 187 -207 329 -110 50 35 53 35 53 6 0 -22 27 -57 44 -57 11 0 66 43 66
52 0 4 -9 8 -20 8 -27 0 -33 42 -28 214 3 131 5 147 26 175 24 33 20 41 -8 16
-15 -13 -20 -12 -50 10 l-34 25 -38 -37 c-38 -37 -55 -71 -20 -40 10 10 24 17
30 17 19 0 33 -39 30 -83 -3 -35 -7 -43 -30 -51 -18 -6 -38 -6 -55 0 -28 9
-28 11 -31 107 -3 90 -10 114 -28 86 -7 -12 -93 -7 -154 9 -20 5 -46 5 -57 1z
m222 -242 c0 -105 -4 -197 -7 -203 -5 -8 -22 -9 -49 -4 -57 11 -67 24 -35 46
45 29 56 63 56 176 0 98 13 178 28 178 4 0 7 -87 7 -193z m-69 146 c-20 -32
-25 -55 -30 -149 -3 -61 -10 -123 -16 -139 -9 -24 -12 -25 -27 -14 -46 39 -57
152 -22 222 21 40 93 117 111 117 4 0 -3 -17 -16 -37z m155 -125 c47 1 49 0
49 -27 0 -36 -6 -41 -39 -30 -18 6 -37 6 -54 0 -26 -10 -27 -10 -27 30 0 26 4
38 11 34 5 -4 32 -7 60 -7z m30 -78 c14 -8 19 -21 19 -55 0 -42 -3 -46 -43
-70 -71 -41 -77 -37 -77 49 0 50 4 76 13 79 22 9 68 7 88 -3z"/>
<path d="M5714 3770 c-12 -5 -25 -17 -29 -27 -16 -40 -23 -73 -15 -73 4 0 10
9 13 20 5 20 41 27 63 12 23 -15 45 -75 51 -140 5 -55 3 -65 -8 -54 -17 15
-61 16 -77 0 -18 -18 -14 -30 8 -23 69 22 98 -97 43 -181 -21 -32 -12 -39 31
-23 28 10 43 10 78 0 l43 -13 62 67 c82 88 125 174 126 253 0 61 -29 161 -49
169 -7 2 -53 -16 -103 -41 -50 -25 -93 -46 -95 -46 -3 0 -13 16 -22 36 -25 52
-78 81 -120 64z m299 -87 c9 -21 19 -53 22 -70 6 -29 3 -34 -20 -43 -32 -12
-115 -13 -134 -1 -7 5 -14 25 -15 46 -1 35 2 38 59 70 33 18 63 33 66 34 3 1
13 -16 22 -36z m27 -134 c0 -5 -5 -30 -11 -55 -11 -44 -12 -45 -43 -37 -17 4
-53 8 -79 7 -38 -1 -47 2 -43 13 4 8 6 28 6 44 0 30 0 30 48 24 26 -3 61 -1
77 4 41 13 45 13 45 0z m-55 -113 c18 -13 18 -15 -9 -60 -26 -45 -28 -46 -65
-40 -27 4 -49 0 -79 -14 -23 -11 -42 -18 -42 -15 0 10 66 128 75 135 17 13
100 9 120 -6z"/>
<path d="M6694 3770 c-11 -4 -25 -14 -32 -22 -15 -19 -33 -108 -21 -108 5 0 9
8 9 18 0 36 32 52 106 52 l69 0 -40 -32 c-86 -70 -113 -112 -122 -186 -7 -66
11 -125 55 -171 69 -72 163 -78 265 -17 l55 33 13 -30 c22 -48 42 -55 77 -26
36 28 39 39 12 39 -27 0 -33 44 -28 214 3 116 8 149 22 171 10 15 14 30 10 33
-4 4 -9 1 -11 -5 -7 -19 -31 -16 -61 7 l-26 21 -38 -38 c-38 -37 -55 -71 -18
-38 34 30 50 13 50 -54 0 -57 -2 -61 -26 -67 -15 -4 -39 -3 -53 2 -25 9 -26
12 -29 107 -3 90 -10 114 -28 86 -7 -12 -93 -7 -154 9 -20 5 -45 6 -56 2z
m219 -242 c-1 -106 -5 -198 -7 -204 -3 -8 -18 -9 -52 -3 -26 5 -50 11 -52 14
-3 3 13 24 36 47 l42 41 0 117 c0 108 12 180 29 180 4 0 6 -87 4 -192z m-68
144 c-23 -34 -26 -52 -31 -158 -8 -161 -25 -191 -63 -111 -44 91 -16 209 66
275 51 42 58 40 28 -6z m195 -158 c0 -32 -1 -33 -25 -24 -14 5 -38 7 -55 4
-29 -6 -30 -5 -30 27 l0 34 55 -3 55 -4 0 -34z m-16 -40 c12 -5 16 -20 16 -58
0 -50 -1 -53 -39 -74 -65 -37 -71 -33 -71 52 0 50 4 76 13 79 18 8 63 8 81 1z"/>
<path d="M1031 3753 c-45 -23 -53 -45 -14 -34 40 10 58 4 72 -25 22 -50 14
-68 -50 -113 -33 -23 -58 -45 -56 -48 3 -3 20 -12 38 -21 42 -22 68 -58 75
-104 6 -34 5 -36 -29 -47 -20 -7 -55 -30 -79 -52 -25 -24 -35 -38 -23 -33 11
3 36 13 55 20 19 7 45 13 58 14 21 0 22 -4 22 -65 l0 -65 60 0 60 0 0 60 c0
58 1 60 25 60 14 0 42 -7 61 -15 l36 -15 49 43 48 42 1 138 c0 103 -4 145 -15
166 -17 34 -92 101 -112 101 -8 0 -31 -11 -51 -25 l-37 -25 -6 27 -7 28 -1
-31 c-1 -38 -28 -66 -42 -43 -5 8 -9 19 -9 25 0 18 -34 43 -66 49 -18 4 -42
-1 -63 -12z m275 -64 c43 -26 64 -56 64 -90 0 -21 -7 -29 -31 -38 -44 -15 -71
-14 -97 5 -18 12 -22 25 -22 68 0 78 24 93 86 55z m-98 -256 c-3 -204 -5 -238
-18 -238 -13 0 -15 33 -18 225 -1 123 0 230 2 237 3 7 12 13 21 13 14 0 15
-29 13 -237z m-108 121 l0 -46 -29 24 c-17 13 -30 25 -30 28 -1 5 49 39 57 40
1 0 2 -21 2 -46z m270 -36 l0 -43 -75 0 -75 0 0 38 c0 40 4 42 44 27 22 -8 61
-1 104 19 1 0 2 -18 2 -41z m-25 -60 c22 -10 25 -17 25 -68 l0 -57 -62 20
c-35 11 -69 22 -76 24 -8 2 -12 15 -10 35 5 50 65 73 123 46z"/>
<path d="M1628 3761 c-45 -15 -87 -50 -108 -91 -35 -69 -23 -130 36 -191 l36
-37 -36 -49 c-45 -62 -57 -94 -45 -116 16 -28 32 -20 25 13 -4 21 -1 32 8 36
15 6 66 -14 112 -45 l31 -21 59 46 59 46 7 -29 c4 -17 16 -37 26 -46 18 -16
21 -15 58 18 29 27 33 34 18 30 -15 -4 -24 0 -28 12 -4 10 -10 99 -13 197 l-6
179 29 24 c18 14 23 23 14 23 -8 -1 -28 -11 -44 -24 l-28 -23 -42 23 c-46 26
-127 38 -168 25z m115 -70 c18 -18 -4 -31 -42 -25 -33 5 -43 2 -72 -24 -19
-17 -31 -34 -26 -38 4 -4 13 -2 19 4 13 13 64 16 72 4 6 -10 -81 -137 -94
-136 -5 1 -14 2 -19 3 -21 3 -51 70 -51 113 0 74 65 122 154 113 27 -2 54 -9
59 -14z m57 -122 l0 -89 -80 0 c-44 0 -80 3 -80 6 0 5 99 153 123 182 7 9 13
9 23 1 10 -8 14 -37 14 -100z m10 -168 c0 -22 -9 -35 -38 -55 l-38 -26 -77 33
c-42 17 -77 37 -77 43 0 27 27 34 127 34 l103 0 0 -29z"/>
<path d="M2618 3714 l-68 -56 0 -98 c0 -99 -5 -130 -21 -130 -18 0 -40 64 -41
119 -1 65 28 129 69 156 33 22 29 39 -4 18 -83 -51 -123 -121 -123 -215 0
-184 182 -293 337 -202 39 22 83 67 83 84 0 4 -25 -6 -56 -22 -31 -15 -72 -28
-90 -28 l-34 0 0 105 0 105 59 0 c51 0 61 3 75 25 23 35 20 47 -11 45 -48 -3
-48 -1 2 50 27 27 46 52 43 55 -4 5 -40 15 -133 40 -14 4 -40 -11 -87 -51z
m38 -371 c-9 -9 -56 11 -87 37 l-34 28 40 42 40 41 3 97 c3 73 8 102 20 116
16 17 17 6 20 -169 1 -104 1 -190 -2 -192z m99 337 c8 0 15 -4 15 -8 0 -10
-83 -92 -93 -92 -9 0 -9 114 -1 123 4 3 19 0 35 -8 15 -8 35 -15 44 -15z"/>
<path d="M2900 3742 c-30 -30 -38 -56 -21 -66 5 -3 11 3 14 14 4 17 13 19 76
17 39 -1 71 -3 71 -4 0 -1 -9 -17 -20 -36 -11 -19 -21 -51 -22 -71 -1 -28 -5
-36 -20 -36 -23 0 -58 -17 -58 -29 0 -5 11 -6 25 -3 30 5 55 -13 55 -40 0 -14
-5 -18 -18 -14 -10 4 -27 -1 -38 -9 -18 -14 -18 -14 8 -15 29 0 48 -24 48 -61
0 -12 -19 -41 -45 -67 -25 -25 -44 -47 -42 -49 2 -2 26 6 53 18 71 32 175 32
228 1 42 -25 34 -28 100 30 23 21 14 37 -9 18 -14 -11 -21 -10 -48 6 -23 13
-51 19 -98 19 l-65 0 42 52 c49 60 59 101 49 207 -7 71 -6 76 18 100 15 14 34
26 44 26 11 0 14 3 7 10 -16 16 -72 0 -105 -31 l-30 -28 2 -113 c3 -124 -14
-182 -61 -223 l-23 -20 8 20 c39 96 43 120 38 225 -6 102 -5 106 20 136 l26
30 -57 0 c-31 -1 -72 3 -89 7 -29 8 -37 5 -63 -21z"/>
<path d="M4694 3756 c-47 -21 -54 -39 -12 -31 42 8 75 -16 84 -60 5 -28 1 -34
-61 -79 l-66 -48 43 -27 c51 -32 77 -69 85 -117 5 -27 2 -34 -11 -34 -35 0
-126 -60 -126 -82 0 -5 13 -2 30 7 38 20 144 19 204 -1 l48 -16 34 33 c35 34
49 65 15 35 -18 -17 -21 -17 -46 0 -24 16 -26 21 -23 88 3 65 5 71 23 68 32
-5 81 -65 100 -123 21 -62 42 -99 58 -99 14 0 67 50 67 63 0 5 -6 4 -14 -2
-18 -15 -36 10 -61 88 -11 34 -31 67 -55 90 l-38 37 49 34 c27 18 49 35 49 38
0 8 -101 142 -107 142 -3 0 -33 -18 -67 -41 l-61 -41 -7 30 c-4 16 -14 34 -20
40 -23 18 -82 23 -114 8z m269 -101 c21 -31 37 -60 35 -65 -2 -5 -25 -25 -53
-45 l-50 -35 -3 87 c-4 134 10 146 71 58z m-89 -140 c1 -150 0 -156 -19 -153
-19 3 -20 12 -23 148 -2 127 0 146 14 157 10 7 20 11 22 8 2 -2 5 -74 6 -160z
m-104 40 c0 -25 -3 -45 -7 -45 -12 1 -68 49 -63 53 18 14 56 37 62 37 5 0 8
-20 8 -45z"/>
<path d="M6191 3759 c-14 -5 -32 -20 -40 -32 -36 -49 -33 -78 4 -37 14 16 29
19 74 18 31 -1 67 2 80 7 l25 8 -27 -32 c-15 -18 -30 -45 -33 -59 -11 -51 -12
-52 -36 -43 -27 10 -63 -1 -71 -22 -5 -13 1 -15 27 -10 27 4 37 0 54 -22 12
-15 22 -36 22 -46 0 -16 -4 -17 -26 -8 -20 7 -32 6 -50 -6 -28 -18 -32 -39 -5
-30 31 10 51 -5 51 -37 0 -24 -12 -43 -50 -81 -28 -28 -49 -51 -48 -53 2 -1
28 4 58 12 70 18 104 18 170 -2 l53 -16 39 44 c27 30 41 39 45 29 3 -7 18 -28
34 -45 l28 -31 38 38 c35 35 36 38 13 32 -22 -5 -29 1 -58 50 -18 30 -50 71
-70 91 -30 29 -34 37 -22 44 8 5 36 24 62 42 l48 34 -31 42 c-17 23 -35 42
-41 42 -6 0 -33 -18 -60 -40 -28 -22 -54 -40 -58 -40 -12 0 8 76 30 121 11 21
16 39 11 39 -29 0 -61 -119 -61 -230 0 -109 -17 -145 -85 -182 -72 -39 -76
-34 -16 20 60 53 70 83 71 209 0 48 7 91 20 125 25 66 25 71 -1 57 -12 -6 -37
-8 -58 -5 -20 4 -47 9 -61 11 -14 2 -36 0 -49 -6z m296 -151 c13 -12 23 -26
23 -32 0 -11 -83 -70 -115 -82 -12 -5 -15 2 -15 32 0 33 6 44 37 71 21 18 40
32 42 33 3 0 15 -10 28 -22z m-48 -174 c50 -42 57 -62 30 -90 -15 -16 -26 -21
-38 -15 -9 5 -35 12 -58 16 l-41 6 24 36 c13 20 24 44 24 54 0 26 23 24 59 -7z"/>
<path d="M7932 3759 c-18 -5 -50 -27 -72 -49 -67 -67 -67 -152 0 -224 l40 -43
-45 -68 c-48 -73 -52 -84 -33 -103 20 -20 29 -13 26 21 -3 29 -1 32 23 30 14
-1 48 -15 77 -32 l51 -30 58 45 58 45 7 -29 c4 -16 16 -36 26 -45 18 -16 21
-15 58 18 29 27 33 34 18 30 -15 -4 -24 0 -29 12 -4 10 -9 99 -13 197 l-5 180
29 23 c16 12 23 23 15 23 -7 0 -26 -11 -42 -24 l-29 -25 -48 25 c-55 28 -123
37 -170 23z m125 -63 c3 -3 3 -12 -1 -21 -4 -12 -14 -14 -44 -9 -34 5 -44 2
-73 -24 -19 -17 -31 -34 -26 -38 4 -4 13 -2 19 4 16 16 68 16 68 0 0 -14 -80
-138 -89 -138 -4 0 -14 6 -23 13 -74 60 -61 174 26 213 29 14 130 13 143 0z
m53 -133 l0 -83 -80 0 c-44 0 -80 3 -80 6 0 6 45 74 98 148 33 45 37 47 49 30
8 -11 13 -48 13 -101z m10 -160 c0 -20 -10 -36 -36 -57 l-35 -28 -77 33 c-42
18 -79 34 -80 35 -2 1 -1 12 3 23 6 20 14 21 116 21 l109 0 0 -27z"/>
<path d="M8315 3760 c-12 -4 -27 -15 -35 -25 -13 -15 -11 -16 22 -10 46 9 78
-19 78 -67 0 -29 -8 -38 -60 -73 -33 -22 -60 -43 -60 -47 0 -4 18 -17 40 -29
45 -26 77 -69 82 -113 3 -25 -1 -30 -34 -42 -40 -14 -108 -61 -108 -75 0 -4
16 -1 35 7 47 19 149 18 207 -3 l48 -17 35 34 c36 35 50 67 16 36 -16 -15 -22
-16 -43 -4 -33 19 -35 22 -37 87 -2 64 10 84 45 71 31 -12 73 -71 90 -126 16
-52 39 -94 53 -94 14 0 71 50 71 62 0 6 -6 5 -15 -2 -20 -17 -36 4 -60 79 -11
37 -31 69 -56 95 -22 21 -39 40 -39 41 0 2 22 18 50 36 28 18 47 37 43 43 -19
34 -98 136 -105 136 -4 0 -30 -16 -57 -35 -26 -19 -52 -35 -57 -35 -5 0 -17
14 -26 30 -25 43 -75 60 -123 40z m264 -107 c23 -31 41 -59 41 -62 -1 -11
-107 -80 -114 -74 -11 12 -6 169 6 181 19 19 24 15 67 -45z m-89 -137 c0 -159
-1 -164 -20 -159 -19 5 -20 14 -20 154 0 130 2 149 18 158 9 6 18 11 20 11 1
0 2 -74 2 -164z m-110 39 l0 -45 -35 22 -35 23 27 22 c16 13 31 23 36 23 4 0
7 -20 7 -45z"/>
<path d="M9063 3758 c-21 -10 -56 -77 -46 -88 4 -4 19 15 26 33 1 5 34 6 73 2
l70 -7 -28 -30 c-15 -16 -30 -45 -34 -64 -5 -29 -10 -34 -35 -34 -16 0 -38 -9
-49 -20 -21 -21 -27 -50 -10 -50 6 0 10 5 10 10 0 14 54 12 68 -2 22 -22 13
-52 -21 -68 -21 -10 -33 -23 -36 -40 l-3 -25 22 20 c16 15 25 17 38 8 26 -16
15 -53 -34 -105 -24 -26 -44 -51 -44 -57 0 -21 13 -41 27 -41 12 0 14 8 9 35
-6 29 -3 36 20 51 35 24 136 24 186 0 36 -17 37 -17 80 7 24 14 69 33 101 42
l57 16 0 79 c0 43 2 85 5 92 4 10 -8 21 -35 33 -22 10 -40 21 -40 25 0 4 16
18 35 32 l35 25 -51 67 c-56 75 -55 75 -143 28 -73 -40 -80 -56 -86 -205 l-5
-129 -33 -30 c-37 -32 -56 -31 -26 3 16 18 20 42 24 153 6 149 14 170 79 207
48 26 45 42 -4 26 -26 -7 -53 -7 -99 1 -74 14 -74 14 -103 0z m340 -82 c20
-30 37 -59 37 -64 0 -11 -78 -72 -91 -72 -4 0 -10 19 -12 43 -2 23 -4 -19 -5
-94 l-2 -137 -58 1 -58 0 41 38 40 38 6 133 c4 73 7 134 8 135 9 14 35 33 44
33 7 0 29 -25 50 -54z m8 -161 c38 -20 29 -35 -21 -35 -40 0 -58 18 -37 39 15
15 22 14 58 -4z m29 -71 c0 -22 -4 -24 -44 -24 -25 0 -48 5 -51 10 -14 23 4
37 49 37 42 1 46 -1 46 -23z m-10 -49 c6 -8 10 -22 8 -32 -4 -22 -64 -41 -80
-25 -16 16 -19 44 -6 59 14 17 63 16 78 -2z"/>
<path d="M3570 3747 c0 -58 45 -87 136 -87 l53 0 -40 -37 c-34 -32 -41 -46
-46 -91 -5 -45 -8 -52 -24 -47 -26 9 -78 -22 -79 -46 0 -3 12 -4 28 -2 36 5
50 -6 58 -45 6 -28 1 -37 -35 -73 -23 -23 -39 -44 -36 -47 9 -9 116 81 132
112 10 19 19 69 22 132 5 81 10 106 25 123 23 26 41 28 30 4 -4 -10 -10 -68
-13 -130 -8 -132 -15 -147 -112 -211 -76 -50 -88 -69 -26 -42 62 28 143 35
236 20 l81 -12 37 27 c61 45 62 48 57 143 -10 169 -34 236 -96 268 -26 14 -68
18 -193 22 -125 3 -164 8 -177 20 -16 14 -18 14 -18 -1z m270 -241 l0 -154
-37 -4 c-21 -3 -39 -4 -41 -3 -2 2 4 18 14 37 12 22 19 68 24 143 3 61 9 116
13 123 21 33 27 2 27 -142z m101 128 c20 -18 42 -81 33 -96 -13 -20 -57 -29
-90 -18 -34 12 -34 12 -34 77 l0 66 36 -6 c20 -3 45 -14 55 -23z m39 -165 c0
-37 0 -37 -29 -26 -22 8 -39 8 -65 0 l-36 -11 0 36 0 37 65 0 65 0 0 -36z m-6
-55 c9 -8 16 -31 16 -51 0 -35 -1 -35 -32 -29 -18 4 -50 9 -70 13 -34 5 -38 9
-38 34 0 16 7 32 18 38 26 16 89 13 106 -5z"/>
<path d="M4330 3749 c-14 -6 -53 -8 -92 -4 -82 8 -104 2 -124 -37 -16 -32 -10
-55 8 -25 8 15 20 18 69 15 32 -2 59 -4 59 -6 0 -2 -8 -17 -17 -35 -9 -18 -19
-47 -22 -66 -5 -27 -13 -36 -38 -45 -36 -12 -70 -42 -60 -52 4 -4 13 -1 22 6
22 19 64 4 71 -25 5 -20 -1 -31 -25 -54 -17 -16 -31 -35 -31 -42 0 -8 6 -6 19
5 48 44 58 -35 10 -80 -52 -49 -70 -114 -32 -114 12 0 14 7 10 28 -3 15 -3 33
1 38 23 36 127 45 203 19 23 -9 45 -12 49 -8 55 68 81 125 40 88 -15 -13 -35
-17 -81 -16 -35 1 -64 3 -67 6 -2 2 9 15 24 29 66 58 204 72 204 21 0 -13 -16
-45 -35 -71 -60 -84 -68 -104 -56 -131 13 -28 54 -29 59 0 3 12 -3 17 -22 17
-14 0 -26 4 -26 9 0 5 29 36 65 67 45 40 68 69 75 93 13 46 13 136 0 180 -10
34 -65 101 -83 101 -6 0 -34 -21 -63 -46 -62 -52 -71 -47 -60 34 6 48 40 92
72 92 8 0 14 5 14 10 0 16 -22 11 -75 -18 -27 -15 -55 -38 -62 -52 -8 -16 -13
-67 -13 -138 0 -123 -13 -172 -51 -192 -20 -11 -21 -10 -14 6 5 11 11 84 14
164 7 156 14 181 61 205 51 26 51 44 0 24z m172 -166 c31 -30 36 -58 12 -67
-30 -11 -111 -6 -123 8 -9 11 -3 21 30 50 24 20 45 36 48 36 3 0 18 -12 33
-27z m28 -118 l0 -30 -72 1 c-61 0 -73 3 -76 18 -7 35 4 41 77 41 l71 0 0 -30z"/>
<path d="M7405 3724 c-33 -20 -71 -46 -84 -57 -29 -27 -60 -93 -61 -129 0 -20
-5 -28 -18 -28 -25 0 -62 -28 -62 -47 0 -13 3 -13 15 -3 42 35 99 -28 93 -103
-3 -40 -5 -42 -58 -62 -41 -16 -57 -28 -64 -48 -10 -29 0 -50 13 -28 5 8 32
14 70 15 53 2 67 7 89 30 25 25 27 33 30 131 l4 105 44 0 44 0 0 -68 c0 -39
-5 -73 -12 -80 -9 -9 -4 -20 22 -47 19 -19 39 -35 44 -35 6 1 36 23 66 50 46
42 51 50 33 50 -21 0 -23 5 -23 58 0 36 6 66 15 78 19 25 19 44 0 44 -12 0
-15 15 -15 73 0 91 8 106 44 81 l25 -19 1 -178 c0 -140 3 -184 15 -207 20 -38
37 -38 77 1 19 18 26 28 16 25 -30 -9 -38 27 -38 181 0 126 3 154 19 186 19
37 16 48 -6 26 -12 -12 -20 -8 -79 35 -9 7 -31 -3 -72 -32 l-60 -42 -12 34
c-10 30 -27 47 -48 46 -4 -1 -34 -17 -67 -36z m55 -106 l0 -68 -29 0 c-18 0
-34 -8 -44 -22 -15 -22 -16 -19 -16 54 -1 68 2 80 25 108 25 29 27 30 45 14
15 -14 19 -31 19 -86z m120 2 c0 -68 -1 -70 -25 -70 -24 0 -25 3 -25 56 0 42
4 60 18 70 29 22 32 17 32 -56z m-222 -156 c-3 -148 -11 -174 -49 -174 -19 0
-19 1 -2 27 14 22 19 55 22 172 2 84 8 155 15 166 10 18 11 17 14 -15 2 -19 2
-98 0 -176z m220 -43 c3 -82 -9 -110 -34 -77 -9 13 -14 45 -14 89 0 65 1 68
23 65 20 -3 22 -9 25 -77z"/>
<path d="M9602 3337 l-22 -23 25 -24 25 -23 25 23 25 24 -22 23 c-12 13 -24
23 -28 23 -4 0 -16 -10 -28 -23z"/>
<path d="M920 3135 l0 -25 4420 0 4420 0 0 25 0 25 -4420 0 -4420 0 0 -25z"/>
<path d="M2827 2954 c-4 -4 -7 -67 -7 -141 0 -126 1 -133 20 -133 18 0 20 7
20 80 0 77 1 80 25 86 48 12 55 1 55 -86 0 -64 3 -80 15 -80 24 0 21 161 -3
183 -21 19 -49 22 -72 7 -12 -8 -16 -1 -20 37 -5 44 -18 62 -33 47z"/>
<path d="M4866 2944 c-9 -8 -16 -26 -16 -40 0 -15 -6 -24 -15 -24 -8 0 -15 -5
-15 -10 0 -6 7 -13 15 -16 12 -5 15 -25 15 -90 0 -68 3 -84 15 -84 12 0 15 16
15 84 0 75 2 84 20 89 11 3 20 10 20 16 0 6 -9 11 -20 11 -30 0 -26 38 5 50
14 5 25 14 25 20 0 16 -47 12 -64 -6z"/>
<path d="M5160 2820 c0 -118 2 -140 15 -140 13 0 15 22 15 140 0 118 -2 140
-15 140 -13 0 -15 -22 -15 -140z"/>
<path d="M5250 2821 c0 -120 2 -141 15 -141 13 0 15 20 13 137 -2 98 -6 138
-15 141 -10 3 -13 -29 -13 -137z"/>
<path d="M6517 2954 c-4 -4 -7 -67 -7 -141 0 -112 2 -133 15 -133 13 0 15 21
15 130 0 72 0 133 1 137 1 10 -16 15 -24 7z"/>
<path d="M7227 2953 c-4 -3 -7 -23 -7 -44 0 -37 -1 -38 -33 -32 -23 3 -39 -1
-60 -17 -24 -19 -27 -28 -27 -76 0 -45 4 -59 25 -79 26 -27 46 -31 75 -15 13
7 21 7 25 0 19 -30 25 2 25 130 0 128 -4 152 -23 133z m-23 -109 c12 -5 16
-20 16 -58 0 -56 -12 -76 -46 -76 -31 0 -47 24 -47 70 0 59 28 83 77 64z"/>
<path d="M7517 2954 c-4 -4 -7 -67 -7 -141 0 -126 1 -133 20 -133 18 0 20 7
20 80 0 77 1 80 25 86 48 12 55 1 55 -86 0 -64 3 -80 15 -80 12 0 15 16 15 83
0 71 -3 87 -20 102 -18 16 -30 17 -80 4 -12 -3 -15 6 -15 40 0 41 -12 60 -28
45z"/>
<path d="M6807 2923 c-4 -3 -7 -15 -7 -25 0 -10 -7 -18 -15 -18 -8 0 -15 -7
-15 -15 0 -8 7 -15 15 -15 11 0 15 -12 16 -47 1 -101 10 -122 52 -123 9 0 17
7 17 15 0 8 -6 15 -14 15 -19 0 -26 22 -26 86 0 47 2 54 20 54 11 0 20 6 20
14 0 7 -9 16 -20 19 -12 3 -20 14 -20 26 0 21 -10 27 -23 14z"/>
<path d="M7410 2905 c0 -18 -5 -25 -20 -25 -11 0 -20 -5 -20 -11 0 -6 9 -13
20 -16 18 -5 20 -14 20 -79 0 -64 3 -75 21 -84 22 -12 49 -7 49 10 0 5 -9 10
-20 10 -18 0 -20 7 -20 69 0 60 2 69 20 74 11 3 20 10 20 16 0 6 -9 11 -20 11
-15 0 -20 7 -20 25 0 16 -6 25 -15 25 -9 0 -15 -9 -15 -25z"/>
<path d="M3043 2855 c-27 -23 -27 -24 -6 -25 12 0 25 5 28 10 9 15 51 12 65
-5 17 -21 4 -35 -33 -35 -72 0 -106 -71 -51 -107 22 -14 31 -15 57 -5 20 8 35
8 42 2 19 -16 25 0 25 64 0 81 -7 101 -36 115 -38 17 -60 13 -91 -14z m97 -93
c0 -45 -80 -71 -88 -29 -5 28 17 47 54 47 26 0 34 -4 34 -18z"/>
<path d="M3240 2860 c-23 -23 -26 -55 -8 -67 7 -4 31 -15 53 -23 28 -11 40
-21 40 -35 0 -27 -50 -33 -75 -10 -32 29 -48 12 -18 -18 45 -45 128 -27 128
27 0 28 -15 42 -66 60 -51 17 -55 49 -6 54 22 2 34 -2 38 -12 8 -20 34 -21 34
-2 0 21 -40 46 -72 46 -16 0 -37 -9 -48 -20z"/>
<path d="M3522 2864 c-12 -8 -22 -26 -22 -39 0 -25 33 -55 60 -55 27 0 52 -24
44 -43 -8 -21 -57 -23 -74 -2 -22 27 -51 17 -32 -11 28 -42 115 -41 134 2 16
35 2 55 -53 75 -30 12 -44 22 -44 35 0 25 41 31 65 9 29 -26 46 -8 19 21 -26
28 -65 31 -97 8z"/>
<path d="M3680 2813 c0 -104 32 -148 90 -126 16 6 30 7 30 2 0 -5 7 -9 15 -9
12 0 15 18 15 100 0 82 -3 100 -15 100 -12 0 -15 -15 -15 -73 0 -78 -9 -97
-46 -97 -31 0 -33 5 -35 93 -2 68 -4 77 -20 77 -17 0 -19 -8 -19 -67z"/>
<path d="M3905 2855 c-20 -19 -25 -34 -25 -72 0 -58 19 -89 59 -98 39 -8 90
18 91 48 0 13 -28 7 -34 -8 -3 -9 -18 -15 -35 -15 -35 0 -51 22 -51 70 0 17 5
40 10 51 15 26 66 26 80 -1 12 -23 30 -26 30 -5 0 23 -41 55 -72 55 -17 0 -39
-10 -53 -25z"/>
<path d="M4095 2855 c-20 -19 -25 -34 -25 -75 0 -79 52 -120 113 -89 35 19 49
49 23 49 -8 0 -16 -7 -20 -15 -3 -9 -18 -15 -35 -15 -35 0 -51 22 -51 70 0 17
5 40 10 51 15 26 66 26 80 -1 6 -11 15 -20 20 -20 17 0 11 29 -10 50 -28 28
-75 26 -105 -5z"/>
<path d="M4305 2868 c-34 -19 -44 -41 -45 -89 0 -58 22 -88 70 -95 27 -4 42
-1 60 14 28 23 22 39 -8 23 -29 -15 -58 -14 -76 5 -33 32 -20 44 49 44 70 0
74 4 55 56 -19 49 -62 67 -105 42z m76 -45 c8 -22 6 -23 -41 -23 -54 0 -55 1
-39 31 15 28 69 22 80 -8z"/>
<path d="M4482 2864 c-12 -8 -22 -26 -22 -39 0 -25 33 -55 60 -55 27 0 52 -24
44 -43 -8 -21 -57 -23 -74 -2 -14 17 -40 20 -40 6 0 -16 30 -41 56 -47 37 -9
73 4 86 32 16 35 2 55 -53 75 -30 12 -44 22 -44 35 0 25 41 31 65 9 29 -26 46
-8 19 21 -26 28 -65 31 -97 8z"/>
<path d="M4680 2873 c-21 -8 -40 -34 -40 -55 0 -13 17 -27 56 -44 40 -18 55
-29 52 -42 -4 -23 -66 -30 -74 -8 -8 20 -34 21 -34 2 0 -36 76 -57 115 -32 21
14 26 24 23 49 -3 28 -8 34 -48 46 -48 15 -61 27 -53 48 7 18 62 17 69 -2 8
-19 34 -20 34 -1 0 32 -58 54 -100 39z"/>
<path d="M4959 2876 c-2 -3 -3 -33 -2 -68 1 -35 2 -71 2 -80 1 -10 13 -25 27
-35 21 -13 32 -15 55 -6 16 6 29 7 29 2 0 -5 7 -9 15 -9 12 0 15 18 15 100 0
82 -3 100 -15 100 -12 0 -15 -15 -15 -74 0 -80 -11 -100 -52 -94 -22 3 -23 8
-26 86 -2 59 -6 82 -16 82 -7 0 -15 -2 -17 -4z"/>
<path d="M5315 2863 c54 -136 64 -174 53 -198 -6 -14 -19 -25 -30 -25 -10 0
-18 -7 -18 -15 0 -19 34 -19 53 -1 16 17 100 246 93 254 -15 14 -34 -13 -49
-67 -10 -34 -21 -60 -25 -57 -5 3 -17 32 -27 66 -14 47 -23 60 -38 60 -14 0
-17 -4 -12 -17z"/>
<path d="M5616 2857 c-48 -48 -32 -154 24 -172 38 -12 100 16 100 46 0 15 -27
10 -34 -6 -7 -18 -57 -20 -74 -3 -7 7 -12 33 -12 58 0 25 5 51 12 58 19 19 66
15 78 -8 12 -23 30 -27 30 -7 0 26 -26 48 -62 53 -30 5 -41 2 -62 -19z"/>
<path d="M5805 2858 c-54 -47 -32 -158 33 -173 71 -15 125 51 103 126 -13 45
-29 58 -73 66 -27 4 -41 0 -63 -19z m95 -27 c5 -11 10 -34 10 -51 0 -47 -16
-70 -49 -70 -37 0 -56 23 -56 70 0 21 7 45 14 54 19 23 68 21 81 -3z"/>
<path d="M5990 2780 c0 -82 3 -100 15 -100 12 0 15 15 15 73 0 77 9 97 45 97
36 0 45 -20 45 -97 0 -58 3 -73 15 -73 12 0 15 15 15 73 0 78 9 97 47 97 31 0
43 -28 43 -104 0 -52 3 -66 15 -66 12 0 15 14 15 70 0 38 -5 81 -12 95 -14 32
-54 43 -87 24 -23 -13 -29 -13 -53 0 -22 13 -33 13 -58 4 -16 -6 -30 -7 -30
-2 0 5 -7 9 -15 9 -12 0 -15 -18 -15 -100z"/>
<path d="M6310 2745 c0 -113 2 -135 15 -135 11 0 15 12 15 45 0 42 2 45 19 35
31 -16 56 -12 78 13 66 72 15 201 -68 170 -16 -6 -29 -7 -29 -2 0 5 -7 9 -15
9 -13 0 -15 -22 -15 -135z m110 90 c7 -9 13 -33 13 -55 0 -22 -6 -46 -13 -55
-15 -18 -51 -20 -68 -3 -16 16 -16 115 1 121 25 10 55 7 67 -8z"/>
<path d="M6623 2856 c-24 -21 -28 -32 -28 -76 0 -44 4 -55 28 -76 15 -13 37
-24 47 -24 29 0 70 22 70 37 0 15 -16 17 -25 3 -12 -19 -63 -11 -79 12 -9 12
-16 26 -16 30 0 5 29 8 65 8 l65 0 0 30 c0 38 -39 80 -74 80 -14 0 -38 -11
-53 -24z m87 -25 c15 -30 14 -31 -35 -31 -30 0 -45 4 -45 13 0 37 62 51 80 18z"/>
<path d="M6933 2856 c-24 -21 -28 -32 -28 -76 0 -44 4 -55 28 -76 41 -35 117
-28 117 11 0 17 -16 20 -25 5 -12 -19 -63 -11 -79 12 -9 12 -16 26 -16 30 0 5
29 8 65 8 l65 0 0 30 c0 38 -39 80 -74 80 -14 0 -38 -11 -53 -24z m87 -27 c15
-28 10 -31 -44 -27 -46 3 -46 3 -31 26 20 28 61 29 75 1z"/>
<path d="M7747 2869 c-32 -19 -49 -74 -37 -118 12 -46 27 -60 72 -67 24 -4 40
-1 58 14 28 23 22 39 -8 23 -32 -17 -70 -13 -82 8 -19 36 -12 41 55 41 70 0
74 4 56 53 -20 52 -69 72 -114 46z m67 -25 c9 -3 16 -15 16 -25 0 -16 -8 -19
-45 -19 -30 0 -45 4 -45 13 0 30 37 45 74 31z"/>
<path d="M3540 2265 l0 -215 30 0 30 0 0 100 0 101 108 -3 107 -3 3 -97 c3
-97 3 -98 27 -98 l25 0 0 215 0 215 -25 0 c-25 0 -25 0 -25 -95 l0 -95 -110 0
-110 0 0 95 0 95 -30 0 -30 0 0 -215z"/>
<path d="M3930 2460 c0 -17 8 -19 68 -22 l67 -3 3 -192 2 -193 25 0 25 0 2
193 3 192 68 3 c59 3 67 5 67 22 0 19 -8 20 -165 20 -157 0 -165 -1 -165 -20z"/>
<path d="M4330 2266 l0 -216 25 0 25 0 2 168 3 167 37 -95 c87 -223 93 -235
119 -235 21 0 30 17 89 162 l65 163 3 -165 2 -165 25 0 25 0 0 215 0 215 -34
0 -33 0 -57 -138 c-31 -77 -61 -153 -67 -170 -6 -18 -14 -32 -17 -32 -4 0 -37
76 -74 168 l-66 167 -36 3 -36 3 0 -215z"/>
<path d="M4850 2265 l0 -215 130 0 c123 0 130 1 130 20 0 19 -7 20 -100 20
l-100 0 0 195 0 195 -30 0 -30 0 0 -215z"/>
<path d="M5415 2471 c-32 -14 -73 -60 -87 -99 -7 -21 -13 -73 -12 -118 0 -65
5 -88 25 -124 31 -57 78 -85 144 -84 81 2 133 39 151 108 5 23 3 26 -20 26
-20 0 -29 -8 -40 -34 -8 -19 -23 -39 -34 -45 -30 -16 -94 -13 -119 4 -36 25
-56 95 -51 177 7 114 41 158 122 158 38 0 83 -38 88 -73 4 -28 58 -38 58 -12
0 32 -34 87 -64 106 -33 20 -123 25 -161 10z"/>
<path d="M5796 2360 c-40 -13 -63 -36 -82 -86 -36 -94 6 -202 86 -224 50 -13
112 1 145 35 63 62 52 212 -19 258 -31 21 -93 29 -130 17z m108 -63 c45 -45
41 -158 -7 -192 -30 -21 -90 -19 -111 4 -40 45 -41 147 0 192 25 28 88 26 118
-4z"/>
<path d="M6475 2353 c-20 -11 -30 -12 -33 -4 -2 6 -15 11 -28 11 l-24 0 0
-156 0 -155 27 3 27 3 4 115 c2 63 8 121 14 127 5 7 26 15 45 19 27 5 33 10
31 28 -4 27 -25 30 -63 9z"/>
<path d="M6664 2359 c-69 -20 -90 -92 -40 -136 15 -12 39 -25 54 -29 66 -14
97 -30 100 -52 5 -34 -16 -52 -58 -52 -52 0 -70 8 -81 36 -6 17 -15 23 -31 21
-32 -5 -32 -20 -3 -56 34 -39 88 -55 147 -42 51 12 78 41 78 85 0 40 -29 69
-85 86 -81 24 -95 32 -95 54 0 32 19 46 62 46 29 0 41 -6 54 -25 18 -27 64
-35 64 -11 0 25 -41 65 -78 76 -42 11 -46 11 -88 -1z"/>
<path d="M6990 2359 c-34 -14 -70 -49 -82 -79 -17 -45 -11 -137 11 -174 42
-67 149 -83 209 -31 23 20 25 25 13 39 -13 15 -16 15 -36 -4 -14 -13 -35 -20
-62 -20 -34 0 -46 6 -67 31 -14 17 -26 39 -26 50 0 18 8 19 105 19 l105 0 0
43 c0 54 -30 104 -75 123 -39 16 -60 17 -95 3z m86 -47 c13 -8 34 -46 34 -61
0 -7 -30 -11 -81 -11 -79 0 -80 0 -74 23 14 46 83 74 121 49z"/>
<path d="M6060 2238 c0 -144 8 -167 65 -186 33 -11 47 -11 82 1 24 8 46 10 49
6 3 -5 16 -9 30 -9 l24 0 0 155 0 155 -30 0 -30 0 0 -119 c0 -113 -1 -121 -22
-135 -30 -22 -81 -20 -101 2 -14 15 -17 41 -17 135 l0 117 -25 0 -25 0 0 -122z"/>
<path d="M3280 1736 c0 -88 4 -137 11 -142 6 -3 14 -1 18 5 6 9 15 9 35 1 30
-11 61 0 83 29 21 27 16 105 -9 136 -19 24 -26 27 -65 21 l-43 -6 0 45 c0 33
-4 45 -15 45 -13 0 -15 -22 -15 -134z m110 14 c36 -36 16 -130 -27 -130 -52 0
-76 103 -31 134 29 20 34 20 58 -4z"/>
<path d="M3580 1730 c0 -118 2 -140 15 -140 13 0 15 22 15 140 0 118 -2 140
-15 140 -13 0 -15 -22 -15 -140z"/>
<path d="M4550 1730 c0 -118 2 -140 15 -140 13 0 15 22 15 140 0 118 -2 140
-15 140 -13 0 -15 -22 -15 -140z"/>
<path d="M6840 1826 l0 -45 -34 6 c-46 7 -73 -10 -86 -56 -21 -80 32 -155 94
-131 16 6 27 6 31 0 19 -30 25 3 25 130 0 118 -2 140 -15 140 -11 0 -15 -12
-15 -44z m-2 -125 c3 -55 -9 -81 -37 -81 -35 0 -54 25 -54 70 0 53 30 84 66
71 18 -7 23 -17 25 -60z"/>
<path d="M3496 1853 c-12 -12 -6 -33 9 -33 8 0 15 6 15 14 0 17 -14 28 -24 19z"/>
<path d="M4646 1853 c-12 -12 -6 -33 9 -33 8 0 15 6 15 14 0 17 -14 28 -24 19z"/>
<path d="M5233 1844 c-7 -19 2 -28 22 -21 19 8 19 23 0 31 -9 3 -18 -1 -22
-10z"/>
<path d="M7024 1847 c-2 -7 -3 -67 -2 -133 l3 -119 74 0 c51 0 76 4 79 13 3 9
-14 12 -62 12 l-66 0 0 120 c0 76 -4 120 -10 120 -6 0 -13 -6 -16 -13z"/>
<path d="M8020 1725 c0 -113 2 -135 15 -135 12 0 15 14 15 65 l0 65 65 0 64 0
3 -62 c2 -38 8 -63 16 -66 9 -3 12 28 12 133 0 105 -3 136 -12 133 -8 -3 -14
-26 -16 -56 l-3 -52 -65 0 -64 0 0 55 c0 42 -3 55 -15 55 -13 0 -15 -22 -15
-135z"/>
<path d="M8257 1854 c-16 -16 -5 -24 33 -24 l39 0 3 -117 c2 -97 6 -118 18
-118 12 0 16 21 18 118 l3 117 40 0 c28 0 39 4 37 13 -5 13 -178 23 -191 11z"/>
<path d="M8490 1725 c0 -113 2 -135 15 -135 12 0 15 18 15 103 l1 102 40 -100
c22 -54 42 -101 45 -104 10 -11 30 24 65 116 l38 98 1 -107 c0 -90 3 -108 15
-108 13 0 15 19 13 133 -3 121 -5 132 -22 132 -14 0 -27 -23 -58 -103 -22 -57
-44 -100 -48 -95 -4 4 -24 52 -45 106 -29 75 -41 97 -56 97 -18 0 -19 -9 -19
-135z"/>
<path d="M8805 1848 c-3 -8 -4 -68 -3 -134 l3 -119 74 0 c51 0 76 4 79 13 3 9
-13 12 -57 12 l-60 0 -3 117 c-2 82 -7 118 -15 121 -7 2 -15 -3 -18 -10z"/>
<path d="M5120 1815 c0 -16 -6 -25 -15 -25 -8 0 -15 -4 -15 -10 0 -5 7 -10 15
-10 12 0 15 -14 15 -70 0 -57 4 -74 21 -91 21 -21 40 -21 47 -1 2 7 -3 12 -11
12 -20 0 -27 22 -27 87 0 46 3 56 20 60 11 3 20 9 20 13 0 4 -9 10 -20 13 -12
3 -20 14 -20 26 0 12 -6 21 -15 21 -9 0 -15 -9 -15 -25z"/>
<path d="M1662 1768 c-28 -31 -36 -70 -22 -113 13 -41 35 -55 83 -55 62 0 100
70 73 134 -24 59 -94 76 -134 34z m86 -14 c17 -12 22 -25 22 -59 0 -83 -71
-106 -99 -32 -14 36 -5 73 22 92 26 19 28 19 55 -1z"/>
<path d="M1850 1690 c0 -82 3 -100 15 -100 12 0 15 15 15 74 0 64 3 77 21 89
26 19 56 11 63 -16 3 -12 6 -50 6 -85 0 -46 3 -63 13 -60 19 7 22 144 2 174
-17 26 -52 31 -86 14 -13 -7 -19 -7 -19 0 0 5 -7 10 -15 10 -12 0 -15 -18 -15
-100z"/>
<path d="M2155 1764 c-56 -61 -18 -168 60 -168 71 0 108 81 70 153 -25 50 -91
57 -130 15z m95 -14 c40 -40 15 -130 -35 -130 -50 0 -75 90 -35 130 11 11 27
20 35 20 8 0 24 -9 35 -20z"/>
<path d="M2340 1719 c0 -102 26 -137 89 -119 18 5 33 5 36 -1 17 -27 25 1 25
91 0 82 -3 100 -15 100 -12 0 -15 -15 -15 -75 0 -65 -3 -76 -20 -85 -12 -6
-30 -8 -40 -5 -21 7 -21 10 -22 113 -1 44 -4 52 -19 52 -17 0 -19 -9 -19 -71z"/>
<path d="M2550 1688 c0 -75 3 -99 13 -96 8 3 13 31 15 80 3 75 4 77 32 87 44
15 36 29 -15 29 l-45 -1 0 -99z"/>
<path d="M2760 1688 c0 -75 3 -99 13 -96 8 3 13 31 15 82 3 72 4 77 29 87 41
15 52 -3 55 -89 2 -49 7 -77 16 -80 9 -3 12 15 12 67 0 58 4 75 20 91 23 23
30 24 53 8 12 -10 17 -32 19 -87 2 -49 7 -76 16 -79 9 -3 12 18 12 81 0 71 -3
87 -20 102 -14 13 -28 16 -52 11 -18 -4 -40 -6 -48 -6 -8 0 -43 2 -77 4 l-63
4 0 -100z"/>
<path d="M3095 1765 c-49 -48 -21 -162 40 -167 49 -4 66 3 85 35 28 45 26 89
-6 126 -33 40 -83 43 -119 6z m92 -21 c21 -21 24 -32 20 -61 -7 -43 -23 -63
-50 -63 -54 0 -79 88 -37 130 26 26 36 25 67 -6z"/>
<path d="M3490 1690 c0 -82 3 -100 15 -100 12 0 15 18 15 100 0 82 -3 100 -15
100 -12 0 -15 -18 -15 -100z"/>
<path d="M3687 1770 c-86 -68 -3 -215 92 -165 36 18 42 41 9 30 -59 -18 -65
-17 -88 12 l-22 28 66 3 66 3 0 34 c0 68 -69 98 -123 55z m77 -16 c30 -29 20
-44 -29 -44 -51 0 -60 18 -23 44 28 20 33 20 52 0z"/>
<path d="M3958 1768 c-27 -27 -9 -36 26 -13 29 19 62 13 69 -14 4 -15 -3 -20
-36 -25 -51 -9 -77 -31 -77 -66 0 -32 21 -52 52 -51 13 0 40 1 62 2 l38 1 -4
80 c-3 65 -7 82 -23 94 -29 21 -82 17 -107 -8z m102 -93 c0 -21 -38 -57 -57
-53 -22 4 -38 32 -30 52 9 22 87 23 87 1z"/>
<path d="M4140 1655 c0 -113 2 -135 15 -135 11 0 15 12 15 46 0 40 2 45 18 39
43 -18 52 -16 82 13 59 59 30 172 -44 172 -17 0 -37 -5 -44 -12 -9 -9 -12 -9
-12 0 0 7 -7 12 -15 12 -13 0 -15 -22 -15 -135z m126 61 c8 -44 -14 -90 -44
-94 -38 -6 -52 15 -52 73 0 49 2 54 28 63 37 13 60 -1 68 -42z"/>
<path d="M4340 1652 c0 -122 2 -133 18 -130 13 3 17 13 17 43 0 31 4 39 15 36
73 -18 110 13 110 93 0 76 -21 96 -100 93 l-60 -1 0 -134z m118 90 c17 -22 15
-82 -5 -104 -35 -38 -71 -15 -80 50 -9 67 46 102 85 54z"/>
<path d="M4640 1690 c0 -82 3 -100 15 -100 12 0 15 18 15 100 0 82 -3 100 -15
100 -12 0 -15 -18 -15 -100z"/>
<path d="M4741 1764 c-23 -29 -29 -101 -11 -134 15 -28 67 -43 98 -27 29 14
50 43 39 53 -4 4 -18 -3 -32 -16 -21 -20 -30 -22 -53 -14 -24 8 -27 15 -30 61
-3 46 0 54 22 68 27 18 58 9 70 -20 8 -21 26 -19 26 4 0 51 -94 69 -129 25z"/>
<path d="M4929 1771 c-32 -26 -16 -39 21 -17 35 20 70 13 70 -14 0 -13 -10
-20 -36 -25 -55 -10 -74 -26 -74 -61 0 -36 19 -56 52 -55 13 0 40 1 62 2 l38
1 -4 80 c-3 65 -7 82 -23 94 -27 20 -79 17 -106 -5z m91 -106 c0 -32 -41 -55
-65 -35 -15 13 -20 42 -8 53 3 4 21 7 40 7 29 0 33 -3 33 -25z"/>
<path d="M5230 1690 c0 -82 3 -100 15 -100 12 0 15 18 15 100 0 82 -3 100 -15
100 -12 0 -15 -18 -15 -100z"/>
<path d="M5335 1764 c-34 -37 -34 -102 -1 -140 51 -60 146 -19 146 62 0 41
-22 89 -45 98 -37 14 -76 6 -100 -20z m95 -14 c40 -40 15 -130 -35 -130 -35 0
-59 41 -52 88 10 59 50 79 87 42z"/>
<path d="M5522 1693 c2 -79 6 -98 18 -98 12 0 16 17 18 77 2 65 6 79 22 88 14
8 26 8 40 0 16 -9 20 -23 22 -87 2 -50 7 -78 16 -81 20 -6 17 162 -4 182 -18
18 -69 21 -80 5 -4 -8 -9 -8 -17 0 -6 6 -17 11 -24 11 -11 0 -13 -21 -11 -97z"/>
<path d="M5812 1693 c2 -79 6 -98 18 -98 12 0 16 18 20 79 4 67 8 80 25 86 41
15 54 -5 57 -87 2 -50 7 -78 16 -81 20 -6 17 162 -4 182 -18 18 -56 21 -85 6
-13 -7 -19 -7 -19 0 0 5 -7 10 -15 10 -13 0 -15 -15 -13 -97z"/>
<path d="M6028 1768 c-26 -26 -9 -37 24 -14 28 20 42 20 62 0 24 -24 20 -31
-26 -38 -52 -8 -78 -30 -78 -66 0 -32 21 -52 52 -51 13 0 40 1 61 2 l37 1 0
74 c0 61 -4 78 -20 94 -27 27 -83 27 -112 -2z m102 -93 c0 -21 -38 -57 -57
-53 -22 4 -38 32 -30 52 9 22 87 23 87 1z"/>
<path d="M6210 1688 c0 -80 3 -98 15 -98 12 0 15 15 15 73 0 79 5 91 36 101
39 12 54 -16 54 -101 0 -55 3 -74 13 -71 7 3 13 27 15 64 3 82 9 101 31 107
37 9 50 -13 53 -93 2 -59 6 -75 18 -75 20 0 26 129 7 165 -15 29 -58 38 -93
19 -17 -9 -27 -9 -37 -1 -7 6 -39 11 -70 10 l-57 -2 0 -98z"/>
<path d="M6549 1764 c-19 -20 -24 -37 -24 -75 0 -61 25 -90 79 -92 36 -1 77
25 63 40 -4 3 -13 1 -19 -5 -18 -18 -56 -14 -78 8 -33 33 -24 40 45 40 65 0
65 0 65 29 0 73 -82 108 -131 55z m83 -11 c31 -28 22 -43 -27 -43 -38 0 -45 3
-45 20 0 18 23 39 44 40 5 0 18 -7 28 -17z"/>
<path d="M7232 1767 c-74 -79 5 -210 97 -162 17 8 31 20 31 25 0 13 -16 13
-40 -2 -26 -16 -70 0 -81 30 -8 21 -7 22 56 22 l65 0 0 33 c0 68 -83 103 -128
54z m82 -13 c30 -29 20 -44 -29 -44 -51 0 -60 18 -23 44 28 20 33 20 52 0z"/>
<path d="M7418 1768 c-20 -20 -21 -23 -5 -26 9 -2 24 4 33 12 24 25 54 18 66
-15 5 -13 -2 -18 -35 -23 -51 -9 -77 -31 -77 -66 0 -32 21 -52 52 -51 13 0 40
1 61 2 l37 1 0 74 c0 61 -4 78 -20 94 -28 28 -83 27 -112 -2z m102 -98 c0 -23
-44 -55 -65 -46 -19 7 -29 31 -21 51 3 10 19 15 46 15 33 0 40 -3 40 -20z"/>
<path d="M7602 1693 c2 -66 7 -98 16 -101 9 -3 12 16 12 70 0 76 9 98 42 98
10 0 18 7 18 15 0 18 -31 20 -48 3 -9 -9 -12 -9 -12 0 0 7 -7 12 -15 12 -13 0
-15 -15 -13 -97z"/>
<path d="M7722 1693 c2 -66 7 -98 16 -101 9 -3 12 14 12 63 0 93 25 129 71
105 16 -9 19 -22 19 -91 0 -60 3 -80 13 -77 8 3 13 32 15 85 2 64 -1 84 -13
97 -19 18 -57 21 -86 6 -13 -7 -19 -7 -19 0 0 5 -7 10 -15 10 -13 0 -15 -15
-13 -97z"/>
<path d="M9002 1614 c4 -21 22 -23 26 -1 2 10 -3 17 -13 17 -10 0 -15 -6 -13
-16z"/>
<path d="M8621 1135 c-19 -31 -32 -57 -30 -60 3 -2 21 23 42 55 20 33 34 60
29 60 -4 0 -23 -25 -41 -55z"/>
<path d="M8086 1084 c-10 -25 1 -29 14 -5 6 12 7 21 1 21 -5 0 -12 -7 -15 -16z"/>
<path d="M8055 1014 c-9 -15 -12 -23 -6 -20 11 7 35 46 28 46 -3 0 -12 -12
-22 -26z"/>
<path d="M8443 888 c-4 -7 -14 -24 -21 -38 -11 -21 -8 -20 22 9 20 19 36 36
36 38 0 9 -30 1 -37 -9z"/>
<path d="M8327 723 c-40 -56 -60 -93 -54 -99 2 -2 25 30 50 71 26 41 45 75 43
75 -3 0 -20 -21 -39 -47z"/>
<path d="M8672 730 c0 -19 2 -27 5 -17 2 9 2 25 0 35 -3 9 -5 1 -5 -18z"/>
<path d="M1920 620 c0 -91 3 -110 15 -110 12 0 15 13 15 60 0 50 3 61 21 70
34 19 49 -4 49 -71 0 -33 4 -59 10 -59 6 0 10 30 10 69 0 80 -12 97 -63 87
-33 -6 -33 -6 -29 29 3 27 1 35 -12 35 -14 0 -16 -16 -16 -110z"/>
<path d="M1240 615 c0 -77 3 -105 13 -105 9 0 11 20 9 75 -2 41 0 75 5 75 4 0
21 -34 37 -75 16 -41 34 -75 41 -75 7 0 25 34 41 75 16 41 32 75 36 75 3 0 4
-34 1 -75 -5 -65 -4 -75 11 -75 14 0 16 14 16 105 0 95 -2 105 -18 105 -14 0
-27 -20 -49 -77 -17 -43 -34 -77 -38 -76 -5 1 -22 36 -39 77 -22 54 -36 76
-48 76 -16 0 -18 -12 -18 -105z"/>
<path d="M2176 704 c-17 -16 -22 -44 -8 -44 4 0 13 9 20 21 19 30 66 23 70
-12 2 -19 -10 -42 -47 -86 -28 -34 -51 -64 -51 -67 0 -3 32 -6 72 -6 78 0 85
16 10 22 l-43 3 45 53 c49 58 57 89 28 115 -23 21 -76 22 -96 1z"/>
<path d="M2476 698 c-20 -28 -20 -38 -2 -38 7 0 16 9 19 20 9 35 77 21 77 -16
0 -7 -19 -36 -42 -64 -80 -98 -80 -90 1 -90 41 0 71 4 71 10 0 6 -23 10 -50
10 l-50 0 45 55 c68 84 59 135 -24 135 -20 0 -35 -8 -45 -22z"/>
<path d="M2663 712 c-30 -19 -42 -103 -22 -161 12 -34 42 -47 83 -37 40 10 59
99 35 163 -12 33 -26 43 -59 43 -14 0 -30 -4 -37 -8z m66 -26 c19 -23 10 -136
-11 -150 -13 -8 -23 -8 -35 0 -22 14 -31 127 -12 150 15 18 43 18 58 0z"/>
<path d="M2817 702 c-10 -10 -17 -24 -17 -30 0 -20 27 -13 33 8 7 27 53 27 67
-1 10 -17 7 -27 -14 -58 -15 -21 -40 -50 -56 -66 -17 -16 -30 -32 -30 -37 0
-4 32 -8 70 -8 40 0 70 4 70 10 0 6 -23 10 -51 10 l-50 0 45 56 c51 62 60 106
27 124 -30 16 -76 12 -94 -8z"/>
<path d="M3028 677 c-14 -23 -36 -59 -48 -79 l-22 -38 51 0 c48 0 51 -2 51
-25 0 -16 6 -25 15 -25 9 0 15 9 15 25 0 16 6 25 15 25 8 0 15 5 15 10 0 6 -7
10 -15 10 -12 0 -15 14 -15 70 0 60 -2 70 -17 70 -10 -1 -30 -20 -45 -43z m32
-47 c0 -49 -1 -50 -30 -50 -16 0 -30 3 -30 6 0 7 53 94 58 94 1 0 2 -22 2 -50z"/>
<path d="M8416 683 c-6 -14 -5 -15 5 -6 7 7 10 15 7 18 -3 3 -9 -2 -12 -12z"/>
<path d="M1522 654 c-12 -8 -20 -20 -16 -25 4 -6 13 -4 24 6 22 20 54 16 58
-6 2 -11 -7 -18 -29 -23 -44 -8 -59 -23 -59 -57 0 -32 15 -38 83 -36 l37 1 0
62 c0 54 -3 65 -22 78 -28 20 -48 20 -76 0z m68 -88 c0 -35 -55 -52 -66 -21
-9 21 14 45 42 45 19 0 24 -5 24 -24z"/>
<path d="M1660 589 c0 -64 3 -79 15 -79 12 0 15 13 15 60 0 55 2 61 25 70 37
14 30 27 -15 27 l-40 0 0 -78z"/>
<path d="M1787 658 c-22 -18 -36 -59 -30 -90 7 -39 35 -60 74 -56 32 3 60 30
45 45 -4 4 -12 0 -17 -10 -6 -9 -21 -17 -34 -17 -43 0 -62 72 -27 103 24 22
31 21 58 -4 28 -27 42 -7 14 21 -23 23 -58 26 -83 8z"/>
<path d="M7942 540 c0 -19 2 -27 5 -17 2 9 2 25 0 35 -3 9 -5 1 -5 -18z"/>
<path d="M2330 521 c0 -11 -3 -26 -6 -35 -3 -9 -2 -16 4 -16 6 0 15 14 21 31
14 40 14 39 -4 39 -8 0 -15 -9 -15 -19z"/>
<path d="M810 415 c0 -13 155 -15 1357 -13 1074 2 1357 6 1361 16 3 9 -273 12
-1357 12 -1205 0 -1361 -2 -1361 -15z"/>
<path d="M7150 415 c0 -13 158 -15 1360 -15 1202 0 1360 2 1360 15 0 13 -158
15 -1360 15 -1202 0 -1360 -2 -1360 -15z"/>
<path d="M2910 334 c0 -34 -1 -35 -29 -29 -46 10 -73 -23 -69 -82 2 -36 9 -50
29 -66 21 -15 31 -17 47 -8 14 7 23 8 27 1 18 -29 25 0 25 105 0 96 -3 115
-15 115 -11 0 -15 -11 -15 -36z m-2 -108 c-3 -45 -6 -51 -27 -54 -47 -7 -69
60 -32 97 12 12 27 17 41 14 18 -5 21 -12 18 -57z"/>
<path d="M8850 334 c0 -34 -1 -35 -28 -30 -34 8 -59 -10 -70 -49 -19 -66 30
-131 78 -105 13 7 21 7 25 0 17 -27 25 11 25 111 0 90 -3 109 -15 109 -11 0
-15 -11 -15 -36z m-5 -109 c0 -45 -2 -50 -23 -53 -32 -5 -52 15 -52 52 0 39
17 58 50 54 23 -3 25 -7 25 -53z"/>
<path d="M9082 258 c2 -78 7 -113 16 -116 9 -3 12 24 12 112 0 98 -2 116 -15
116 -13 0 -15 -17 -13 -112z"/>
<path d="M9230 255 c0 -63 4 -115 9 -115 5 0 11 5 13 11 2 7 12 7 29 1 17 -7
32 -6 45 1 28 15 34 27 34 75 0 57 -28 86 -76 77 -33 -6 -34 -5 -34 30 0 19
-4 35 -10 35 -6 0 -10 -45 -10 -115z m101 -2 c20 -55 -26 -106 -67 -73 -17 15
-19 71 -2 88 22 22 58 14 69 -15z"/>
<path d="M1402 254 l3 -109 50 2 c68 2 95 33 95 107 0 76 -20 98 -94 104 l-57
5 3 -109z m105 60 c22 -22 25 -32 20 -72 -6 -51 -25 -72 -69 -72 l-28 0 0 85
c0 84 0 85 25 85 14 0 37 -12 52 -26z"/>
<path d="M2102 253 c2 -60 7 -108 13 -108 5 0 9 11 8 25 0 14 -1 62 -2 108 0
49 -5 82 -11 82 -7 0 -10 -38 -8 -107z"/>
<path d="M7435 337 c-20 -16 -28 -35 -32 -67 -7 -62 10 -98 51 -115 64 -27
116 14 116 93 0 97 -71 144 -135 89z m83 -13 c18 -12 22 -25 22 -65 0 -66 -13
-89 -50 -89 -42 0 -60 23 -60 81 0 36 5 54 20 69 24 24 38 25 68 4z"/>
<path d="M8422 353 c-44 -17 -57 -135 -19 -178 31 -36 91 -39 118 -6 11 13 19
27 19 32 0 17 -25 9 -38 -11 -16 -27 -68 -27 -82 -1 -18 35 -12 116 10 136 24
21 65 14 80 -15 12 -23 30 -27 30 -7 0 26 -40 57 -73 56 -18 0 -38 -3 -45 -6z"/>
<path d="M9160 345 c0 -8 5 -15 10 -15 6 0 10 7 10 15 0 8 -4 15 -10 15 -5 0
-10 -7 -10 -15z"/>
<path d="M1770 330 c0 -11 -7 -20 -15 -20 -8 0 -15 -4 -15 -10 0 -5 7 -10 15
-10 12 0 15 -14 15 -65 0 -53 3 -66 19 -75 26 -13 31 -13 31 5 0 8 -4 15 -10
15 -6 0 -10 27 -10 60 0 50 3 60 18 60 15 1 15 2 1 13 -8 7 -18 20 -22 30 -9
23 -27 22 -27 -3z"/>
<path d="M1623 300 c-13 -5 -23 -16 -23 -25 0 -19 9 -19 31 1 14 12 22 13 39
4 30 -16 20 -34 -24 -41 -39 -6 -56 -21 -56 -50 0 -21 23 -40 47 -40 10 0 32
1 49 2 l31 0 -3 66 c-1 36 -6 69 -11 74 -14 14 -57 18 -80 9z m61 -108 c-6 -9
-23 -18 -38 -20 -22 -3 -26 0 -26 22 0 19 6 25 28 28 35 5 50 -7 36 -30z"/>
<path d="M1875 285 c-30 -29 -33 -83 -7 -114 22 -28 76 -31 100 -7 16 16 15
17 -21 11 -39 -8 -67 5 -67 31 0 10 14 14 50 14 47 0 50 2 50 25 0 30 -32 65
-60 65 -12 0 -32 -11 -45 -25z m69 -11 c22 -22 11 -34 -30 -34 -38 0 -47 22
-16 39 23 14 28 14 46 -5z"/>
<path d="M2190 290 c-11 -11 -20 -24 -20 -29 0 -13 30 -35 64 -46 39 -13 41
-39 3 -43 -19 -2 -33 3 -41 14 -10 13 -15 14 -21 5 -20 -33 65 -60 99 -31 33
27 15 62 -37 75 -33 9 -46 33 -26 46 19 12 25 11 43 -6 16 -17 36 -20 36 -6 0
14 -41 41 -62 41 -10 0 -27 -9 -38 -20z"/>
<path d="M2352 294 c-36 -25 -25 -56 26 -72 30 -10 42 -19 42 -33 0 -25 -46
-26 -73 -1 -19 16 -19 16 -16 -3 3 -11 17 -26 32 -33 22 -11 32 -11 54 0 50
24 39 71 -18 83 -34 8 -49 33 -28 46 9 5 22 3 36 -6 28 -19 33 -19 33 0 0 15
-29 35 -52 35 -8 0 -24 -7 -36 -16z"/>
<path d="M2490 243 c0 -38 4 -74 9 -81 5 -8 28 -14 57 -15 l49 -1 3 83 c2 64
0 82 -10 79 -8 -3 -15 -29 -18 -69 -5 -63 -5 -64 -35 -64 l-30 0 -3 68 c-2 37
-7 67 -12 67 -6 0 -10 -30 -10 -67z"/>
<path d="M2676 289 c-21 -16 -26 -29 -26 -63 0 -61 46 -97 95 -74 37 17 30 28
-11 21 -29 -5 -40 -2 -50 12 -22 30 -17 34 38 37 63 4 73 23 34 63 -31 30 -45
31 -80 4z m74 -34 c0 -10 -11 -15 -34 -15 -43 0 -53 14 -25 34 25 17 59 6 59
-19z"/>
<path d="M7600 299 c0 -30 45 -159 54 -156 6 2 17 27 25 55 8 29 17 52 21 52
4 0 13 -20 20 -45 21 -77 36 -76 59 3 23 76 26 102 11 102 -5 0 -15 -27 -22
-60 -6 -33 -15 -57 -19 -52 -4 4 -14 29 -22 56 -7 28 -19 52 -25 54 -6 2 -18
-25 -28 -59 -19 -67 -23 -66 -44 19 -10 38 -30 59 -30 31z"/>
<path d="M7840 225 c0 -50 4 -85 10 -85 6 0 10 24 10 54 0 72 6 86 41 86 28 0
28 -1 31 -67 4 -88 22 -88 26 -1 3 63 1 68 -24 84 -22 15 -29 16 -47 4 -15 -9
-22 -10 -25 -1 -2 6 -8 11 -13 11 -5 0 -9 -38 -9 -85z"/>
<path d="M8027 290 c-22 -17 -27 -30 -27 -64 0 -60 44 -95 95 -76 38 14 30 30
-11 23 -29 -5 -40 -2 -50 12 -22 30 -17 35 41 35 50 0 55 2 55 23 -1 55 -59
81 -103 47z m73 -35 c0 -10 -11 -15 -35 -15 -38 0 -48 22 -18 39 21 11 53 -3
53 -24z"/>
<path d="M8166 300 c-1 -3 -1 -38 -1 -77 1 -78 18 -102 23 -31 4 70 11 88 32
88 11 0 20 6 20 14 0 10 -11 14 -36 13 -20 -1 -37 -4 -38 -7z"/>
<path d="M8610 297 c-54 -27 -47 -125 10 -145 80 -28 131 84 63 138 -30 23
-39 24 -73 7z m76 -53 c14 -55 -38 -98 -74 -62 -13 13 -16 67 -4 84 21 32 68
19 78 -22z"/>
<path d="M8946 289 c-21 -16 -26 -29 -26 -63 0 -61 46 -97 95 -74 37 17 30 28
-11 21 -29 -5 -40 -2 -50 12 -22 30 -17 34 38 37 63 4 73 23 34 63 -31 30 -45
31 -80 4z m74 -34 c0 -10 -11 -15 -34 -15 -43 0 -53 14 -25 34 25 17 59 6 59
-19z"/>
<path d="M9160 225 c0 -50 4 -85 10 -85 6 0 10 35 10 85 0 50 -4 85 -10 85 -6
0 -10 -35 -10 -85z"/>
<path d="M9422 290 c-31 -29 -38 -66 -19 -105 17 -37 45 -46 90 -32 39 13 34
29 -8 21 -37 -7 -65 7 -65 32 0 9 17 14 53 16 49 3 52 4 49 28 -4 28 -36 60
-61 60 -10 0 -27 -9 -39 -20z m62 -16 c21 -21 12 -34 -24 -34 -43 0 -49 28
-10 43 8 3 16 6 17 6 1 1 9 -6 17 -15z"/>
<path d="M9560 223 c0 -97 18 -113 22 -20 3 53 6 63 26 72 33 15 27 31 -13 31
l-35 0 0 -83z"/>
<path d="M8250 168 c0 -7 -3 -24 -7 -38 -6 -22 -5 -24 10 -11 18 15 23 61 7
61 -5 0 -10 -6 -10 -12z"/>
</g>
</svg>
